{
.appVersion = "926";
copyright = "Copyright (c) 2011, Jonas Hecksher, Playtypes, e-types AS (lasse@e-types.com), with Reserved Font Name 'Play', 'Playtype', 'Playtype Sans'.";
customParameters = (
{
name = licenseURL;
value = "http://scripts.sil.org/OFL";
},
{
name = trademark;
value = "Play is a trademark of Jonas Hecksher, Playtype, e-types AS.";
},
{
name = license;
value = "Available under SIL OFL v1.1";
},
{
name = openTypeOS2VendorID;
value = PLAY;
},
{
name = glyphOrder;
value = (
NULL,
CR,
space,
exclam,
quotedbl,
numbersign,
dollar,
percent,
ampersand,
quotesingle,
parenleft,
parenright,
asterisk,
plus,
comma,
hyphen,
period,
slash,
zero,
one,
two,
three,
four,
five,
six,
seven,
eight,
nine,
colon,
semicolon,
less,
equal,
greater,
question,
at,
A,
B,
C,
D,
E,
F,
G,
H,
I,
J,
K,
L,
M,
N,
O,
P,
Q,
R,
S,
T,
U,
V,
W,
X,
Y,
Z,
bracketleft,
backslash,
bracketright,
asciicircum,
underscore,
grave,
a,
b,
c,
d,
e,
f,
g,
h,
i,
j,
k,
l,
m,
n,
o,
p,
q,
r,
s,
t,
u,
v,
w,
x,
y,
z,
braceleft,
bar,
braceright,
asciitilde,
exclamdown,
cent,
sterling,
currency,
yen,
brokenbar,
section,
dieresis,
copyright,
ordfeminine,
guillemotleft,
logicalnot,
uni00AD,
registered,
overscore,
degree,
plusminus,
twosuperior,
threesuperior,
acute,
mu,
paragraph,
middot,
cedilla,
onesuperior,
ordmasculine,
guillemotright,
onequarter,
onehalf,
threequarters,
questiondown,
Agrave,
Aacute,
Acircumflex,
Atilde,
Adieresis,
Aring,
AE,
Ccedilla,
Egrave,
Eacute,
Ecircumflex,
Edieresis,
Igrave,
Iacute,
Icircumflex,
Idieresis,
Eth,
Ntilde,
Ograve,
Oacute,
Ocircumflex,
Otilde,
Odieresis,
multiply,
Oslash,
Ugrave,
Uacute,
Ucircumflex,
Udieresis,
Yacute,
Thorn,
germandbls,
agrave,
aacute,
acircumflex,
atilde,
adieresis,
aring,
ae,
ccedilla,
egrave,
eacute,
ecircumflex,
edieresis,
igrave,
iacute,
icircumflex,
idieresis,
eth,
ntilde,
ograve,
oacute,
ocircumflex,
otilde,
odieresis,
divide,
oslash,
ugrave,
uacute,
ucircumflex,
udieresis,
yacute,
thorn,
ydieresis,
Amacron,
amacron,
Abreve,
abreve,
Aogonek,

glyphs = (
{
glyphname = exclam;
lastChange = "2016-10-15 17:21:52 +0000";
layers = (
{
layerId = UUID0;
paths = (
{
closed = 1;
nodes = (
"60 649 LINE",
"103 188 LINE",
"192 188 LINE",
"235 649 LINE"
);
},
{
closed = 1;
nodes = (
"226 138 LINE",
"70 138 LINE",
"70 0 LINE",
"226 0 LINE"
);
}
);
width = 295;
}
);
unicode = 0021;
},
{
glyphname = quotedbl;
lastChange = "2016-10-15 17:21:52 +0000";
layers = (
{
layerId = UUID0;
paths = (
{
closed = 1;
nodes = (
"376 649 LINE",
"257 649 LINE",
"257 399 LINE",
"376 399 LINE"
);
},
{
closed = 1;
nodes = (
"185 649 LINE",
"67 649 LINE",
"67 399 LINE",
"185 399 LINE"
);
}
);
width = 443;
}
);
unicode = 0022;
},
{
glyphname = numbersign;
lastChange = "2016-10-15 17:21:52 +0000";
layers = (
{
layerId = UUID0;
paths = (
{
closed = 1;
nodes = (
"520 272 LINE",
"398 272 LINE",
"419 376 LINE",
"520 376 LINE",
"520 456 LINE",
"436 456 LINE",
"473 639 LINE",
"387 639 LINE",
"350 456 LINE",
"286 456 LINE",
"323 639 LINE",
"237 639 LINE",
"200 456 LINE",
"60 456 LINE",
"60 376 LINE",
"184 376 LINE",
"162 272 LINE",
"60 272 LINE",
"60 193 LINE",
"146 193 LINE",
"107 0 LINE",
"193 0 LINE",
"232 193 LINE",
"296 193 LINE",
"257 0 LINE",
"343 0 LINE",
"382 193 LINE",
"520 193 LINE"
);
},
{
closed = 1;
nodes = (
"312 272 LINE",
"248 272 LINE",
"269 376 LINE",
"334 376 LINE"
);
}
);
width = 580;
}
);
unicode = 0023;
},
{
glyphname = dollar;
lastChange = "2016-10-15 17:21:52 +0000";
layers = (
{
layerId = UUID0;
paths = (
{
closed = 1;
nodes = (
"573 215 LINE",
"573 324 OFFCURVE",
"518 381 OFFCURVE",
"367 381 CURVE SMOOTH",
"354 381 LINE",
"354 529 LINE",
"396 528 OFFCURVE",
"458 522 OFFCURVE",
"541 512 CURVE",
"541 619 LINE",
"482 625 OFFCURVE",
"419 629 OFFCURVE",
"354 632 CURVE",
"354 702 LINE",
"260 702 LINE",
"260 630 LINE",
"100 621 OFFCURVE",
"33 568 OFFCURVE",
"33 467 CURVE SMOOTH",
"33 433 LINE SMOOTH",
"33 320 OFFCURVE",
"102 263 OFFCURVE",
"241 263 CURVE SMOOTH",
"260 263 LINE",
"260 97 LINE",
"223 97 OFFCURVE",
"179 102 OFFCURVE",
"154 105 CURVE",
"99 114 LINE",
"46 123 LINE",
"46 8 LINE",
"135 -3 OFFCURVE",
"207 -9 OFFCURVE",
"260 -10 CURVE",
"260 -140 LINE",
"354 -140 LINE",
"354 -6 LINE",
"491 7 OFFCURVE",
"573 61 OFFCURVE",
"573 185 CURVE SMOOTH"
);
},
{
closed = 1;
nodes = (
"260 381 LINE",
"209 382 OFFCURVE",
"183 397 OFFCURVE",
"183 425 CURVE SMOOTH",
"183 481 LINE SMOOTH",
"183 513 OFFCURVE",
"201 524 OFFCURVE",
"260 528 CURVE"
);
},
{
closed = 1;
nodes = (
"422 153 LINE",
"422 126 OFFCURVE",
"399 109 OFFCURVE",
"354 102 CURVE",
"354 263 LINE",
"409 259 OFFCURVE",
"422 240 OFFCURVE",
"422 209 CURVE SMOOTH"
);
}
);
width = 606;
}
);
unicode = 0024;
},
{
glyphname = percent;
lastChange = "2016-10-15 17:21:52 +0000";
layers = (
{
layerId = UUID0;
paths = (
{
closed = 1;
nodes = (
"818 224 LINE",
"818 294 OFFCURVE",
"787 328 OFFCURVE",
"744 340 CURVE",
"712 351 OFFCURVE",
"689 352 OFFCURVE",
"652 352 CURVE SMOOTH",
"615 352 OFFCURVE",
"592 351 OFFCURVE",
"560 340 CURVE SMOOTH",
"544 335 OFFCURVE",
"531 329 OFFCURVE",
"521 320 CURVE SMOOTH",
"501 303 OFFCURVE",
"485 269 OFFCURVE",
"485 224 CURVE SMOOTH",
"485 105 LINE SMOOTH",
"485 58 OFFCURVE",
"499 27 OFFCURVE",
"526 12 CURVE SMOOTH",
"553 -3 OFFCURVE",
"595 -10 OFFCURVE",
"652 -10 CURVE SMOOTH",
"708 -10 OFFCURVE",
"750 -3 OFFCURVE",
"777 12 CURVE SMOOTH",
"804 27 OFFCURVE",
"818 58 OFFCURVE",
"818 105 CURVE SMOOTH"
);
},
{
closed = 1;
nodes = (
"549 659 LINE",
"225 -10 LINE",
"312 -10 LINE",
"636 659 LINE"
);
},
{
closed = 1;
nodes = (
"370 513 LINE",
"370 583 OFFCURVE",
"339 617 OFFCURVE",
"296 629 CURVE",
"264 640 OFFCURVE",
"241 641 OFFCURVE",
"204 641 CURVE SMOOTH",
"167 641 OFFCURVE",
"144 640 OFFCURVE",
"112 629 CURVE SMOOTH",
"96 624 OFFCURVE",
"83 618 OFFCURVE",
"73 609 CURVE SMOOTH",
"53 592 OFFCURVE",
"37 558 OFFCURVE",
"37 513 CURVE SMOOTH",
"37 394 LINE SMOOTH",
"37 347 OFFCURVE",
"51 316 OFFCURVE",
"78 301 CURVE SMOOTH",
"105 286 OFFCURVE",
"147 279 OFFCURVE",
"204 279 CURVE SMOOTH",
"260 279 OFFCURVE",
"302 286 OFFCURVE",
"329 301 CURVE SMOOTH",
"356 316 OFFCURVE",
"370 347 OFFCURVE",
"370 394 CURVE SMOOTH"
);
},
{
closed = 1;
nodes = (
"707 95 LINE",
"707 76 OFFCURVE",
"689 66 OFFCURVE",
"652 66 CURVE SMOOTH",
"615 66 OFFCURVE",
"596 76 OFFCURVE",
"596 95 CURVE SMOOTH",
"596 242 LINE SMOOTH",
"596 265 OFFCURVE",
"615 276 OFFCURVE",
"652 276 CURVE SMOOTH",
"689 276 OFFCURVE",
"707 265 OFFCURVE",
"707 242 CURVE SMOOTH"
);
},
{
closed = 1;
nodes = (
"259 384 LINE",
"259 365 OFFCURVE",
"241 355 OFFCURVE",
"204 355 CURVE SMOOTH",
"167 355 OFFCURVE",
"148 360 OFFCURVE",
"148 384 CURVE SMOOTH",
"148 531 LINE SMOOTH",
"148 554 OFFCURVE",
"167 565 OFFCURVE",
"204 565 CURVE SMOOTH",
"241 565 OFFCURVE",
"259 554 OFFCURVE",
"259 531 CURVE SMOOTH"
);
}
);
width = 855;
}
);
unicode = 0025;
},
{
glyphname = ampersand;
lastChange = "2016-10-15 17:21:52 +0000";
layers = (
{
layerId = UUID0;
paths = (
{
closed = 1;
nodes = (
"656 95 LINE",
"612 95 LINE SMOOTH",
"605 95 OFFCURVE",
"599 98 OFFCURVE",
"594 103 CURVE SMOOTH",
"575 124 LINE",
"599 149 OFFCURVE",
"611 181 OFFCURVE",
"611 218 CURVE SMOOTH",
"611 379 LINE",
"479 379 LINE",
"479 230 LINE",
"269 461 LINE SMOOTH",
"263 468 OFFCURVE",
"260 479 OFFCURVE",
"260 494 CURVE SMOOTH",
"260 533 LINE SMOOTH",
"260 554 OFFCURVE",
"279 564 OFFCURVE",
"317 564 CURVE SMOOTH",
"362 564 OFFCURVE",
"416 557 OFFCURVE",
"477 543 CURVE",
"477 642 LINE",
"410 653 OFFCURVE",
"355 659 OFFCURVE",
"311 659 CURVE SMOOTH",
"190 659 OFFCURVE",
"119 621 OFFCURVE",
"119 546 CURVE SMOOTH",
"119 467 LINE SMOOTH",
"119 442 OFFCURVE",
"129 418 OFFCURVE",
"150 395 CURVE SMOOTH",
"180 363 LINE",
"93 336 OFFCURVE",
"50 296 OFFCURVE",
"50 243 CURVE SMOOTH",
"50 122 LINE SMOOTH",
"50 30 OFFCURVE",
"148 -10 OFFCURVE",
"296 -10 CURVE SMOOTH",
"376 -10 OFFCURVE",
"440 3 OFFCURVE",
"489 28 CURVE",
"496 21 LINE SMOOTH",
"509 7 OFFCURVE",
"531 0 OFFCURVE",
"564 0 CURVE SMOOTH",
"656 0 LINE"
);
},
{
closed = 1;
nodes = (
"423 99 LINE",
"403 90 OFFCURVE",
"367 86 OFFCURVE",
"314 86 CURVE SMOOTH",
"226 86 OFFCURVE",
"200 106 OFFCURVE",
"200 145 CURVE SMOOTH",
"200 267 LINE SMOOTH",
"200 284 OFFCURVE",
"211 297 OFFCURVE",
"233 305 CURVE"
);
}
);
width = 656;
}
);
unicode = 0026;
},
{
glyphname = quotesingle;
lastChange = "2016-10-15 17:21:52 +0000";
layers = (
{
layerId = UUID0;
paths = (
{
closed = 1;
nodes = (
"187 649 LINE",
"69 649 LINE",
"69 399 LINE",
"187 399 LINE"
);
}
);
width = 256;
}
);
unicode = 0027;
},
{
glyphname = parenleft;
lastChange = "2016-10-15 17:21:52 +0000";
layers = (
{
layerId = UUID0;
paths = (
{
closed = 1;
nodes = (
"338 -127 LINE",
"255 5 OFFCURVE",
"213 139 OFFCURVE",
"213 276 CURVE SMOOTH",
"213 408 OFFCURVE",
"254 542 OFFCURVE",
"337 679 CURVE",
"201 679 LINE",
"112 551 OFFCURVE",
"70 428 OFFCURVE",
"70 276 CURVE SMOOTH",
"70 129 OFFCURVE",
"114 -5 OFFCURVE",
"201 -127 CURVE",
"338 -127 LINE"
);
}
);
width = 348;
}
);
unicode = 0028;
},
{
glyphname = parenright;
lastChange = "2016-10-15 17:21:52 +0000";
layers = (
{
layerId = UUID0;
paths = (
{
closed = 1;
nodes = (
"268 428 OFFCURVE",
"226 551 OFFCURVE",
"137 679 CURVE",
"1 679 LINE",
"84 542 OFFCURVE",
"125 408 OFFCURVE",
"125 276 CURVE SMOOTH",
"125 139 OFFCURVE",
"83 5 OFFCURVE",
"0 -127 CURVE",
"137 -127 LINE",
"224 -5 OFFCURVE",
"268 129 OFFCURVE",
"268 276 CURVE SMOOTH"
);
}
);
width = 348;
}
);
unicode = 0029;
},
{
glyphname = asterisk;
lastChange = "2016-10-15 17:21:52 +0000";
layers = (
{
layerId = UUID0;
paths = (
{
closed = 1;
nodes = (
"369 581 LINE",
"268 538 LINE",
"278 649 LINE",
"172 649 LINE",
"183 537 LINE",
"78 581 LINE",
"44 481 LINE",
"156 457 LINE",
"79 372 LINE",
"167 312 LINE",
"223 407 LINE",
"278 312 LINE",
"367 371 LINE",
"292 457 LINE",
"401 481 LINE"
);
}
);
width = 446;
}
);
unicode = 002A;
},
{
glyphname = plus;
lastChange = "2016-10-15 17:21:52 +0000";
layers = (
{
layerId = UUID0;
paths = (
{
closed = 1;
nodes = (
"239 544 LINE",
"239 365 LINE",
"70 365 LINE",
"70 264 LINE",
"239 264 LINE",
"239 84 LINE",
"340 84 LINE",
"340 264 LINE",
"510 264 LINE",
"510 365 LINE",
"340 365 LINE",
"340 544 LINE"
);
}
);
width = 580;
}
);
unicode = 002B;
},
{
glyphname = comma;
lastChange = "2016-10-15 17:21:52 +0000";
layers = (
{
layerId = UUID0;
paths = (
{
closed = 1;
nodes = (
"65 138 LINE",
"19 -112 LINE",
"123 -112 LINE",
"217 138 LINE"
);
}
);
width = 256;
}
);
unicode = 002C;
},
{
glyphname = hyphen;
lastChange = "2016-10-15 17:21:52 +0000";
layers = (
{
layerId = UUID0;
paths = (
{
closed = 1;
nodes = (
"348 342 LINE",
"40 342 LINE",
"40 230 LINE",
"348 230 LINE"
);
}
);
width = 388;
}
);
unicode = 002D;
},
{
glyphname = period;
lastChange = "2016-10-15 17:21:52 +0000";
layers = (
{
layerId = UUID0;
paths = (
{
closed = 1;
nodes = (
"206 138 LINE",
"50 138 LINE",
"50 0 LINE",
"206 0 LINE"
);
}
);
width = 256;
}
);
unicode = 002E;
},
{
glyphname = slash;
lastChange = "2016-10-15 17:21:52 +0000";
layers = (
{
layerId = UUID0;
paths = (
{
closed = 1;
nodes = (
"334 659 LINE",
"10 -10 LINE",
"97 -10 LINE",
"421 659 LINE"
);
}
);
width = 431;
}
);
unicode = 002F;
},
{
glyphname = zero;
lastChange = "2016-10-15 17:21:52 +0000";
layers = (
{
layerId = UUID0;
paths = (
{
closed = 1;
nodes = (
"51 169 LINE",
"55 70 OFFCURVE",
"91 23 OFFCURVE",
"155 5 CURVE SMOOTH",
"202 -8 OFFCURVE",
"234 -10 OFFCURVE",
"289 -10 CURVE SMOOTH",
"342 -10 OFFCURVE",
"374 -8 OFFCURVE",
"421 5 CURVE SMOOTH",
"444 12 OFFCURVE",
"463 22 OFFCURVE",
"477 34 CURVE SMOOTH",
"506 58 OFFCURVE",
"529 105 OFFCURVE",
"529 169 CURVE SMOOTH",
"529 480 LINE",
"525 579 OFFCURVE",
"487 625 OFFCURVE",
"421 643 CURVE",
"374 658 OFFCURVE",
"342 659 OFFCURVE",
"289 659 CURVE SMOOTH",
"234 659 OFFCURVE",
"202 657 OFFCURVE",
"155 644 CURVE SMOOTH",
"132 637 OFFCURVE",
"114 628 OFFCURVE",
"100 615 CURVE SMOOTH",
"73 591 OFFCURVE",
"51 544 OFFCURVE",
"51 480 CURVE SMOOTH"
);
},
{
closed = 1;
nodes = (
"199 490 LINE",
"199 521 OFFCURVE",
"204 542 OFFCURVE",
"214 551 CURVE SMOOTH",
"224 560 OFFCURVE",
"250 565 OFFCURVE",
"291 565 CURVE SMOOTH",
"332 565 OFFCURVE",
"357 560 OFFCURVE",
"366 551 CURVE SMOOTH",
"376 542 OFFCURVE",
"381 521 OFFCURVE",
"381 490 CURVE SMOOTH",
"381 159 LINE SMOOTH",
"381 128 OFFCURVE",
"376 107 OFFCURVE",
"366 98 CURVE SMOOTH",
"357 89 OFFCURVE",
"332 84 OFFCURVE",
"291 84 CURVE SMOOTH",
"250 84 OFFCURVE",
"224 89 OFFCURVE",
"214 98 CURVE SMOOTH",
"204 107 OFFCURVE",
"199 128 OFFCURVE",
"199 159 CURVE SMOOTH"
);
}
);
width = 580;
}
);
unicode = 0030;
},
{
glyphname = one;
lastChange = "2016-10-15 17:21:52 +0000";
layers = (
{
layerId = UUID0;
paths = (
{
closed = 1;
nodes = (
"408 649 LINE",
"290 649 LINE",
"85 521 LINE",
"85 398 LINE",
"262 496 LINE",
"262 0 LINE",
"408 0 LINE"
);
}
);
width = 580;
}
);
unicode = 0031;
},
{
glyphname = two;
lastChange = "2016-10-15 17:21:52 +0000";
layers = (
{
layerId = UUID0;
paths = (
{
closed = 1;
nodes = (
"514 109 LINE",
"202 109 LINE",
"202 142 LINE SMOOTH",
"202 208 OFFCURVE",
"315 232 OFFCURVE",
"403 267 CURVE SMOOTH",
"464 292 OFFCURVE",
"513 342 OFFCURVE",
"513 413 CURVE SMOOTH",
"513 503 LINE SMOOTH",
"513 618 OFFCURVE",
"433 659 OFFCURVE",
"280 659 CURVE SMOOTH",
"208 659 OFFCURVE",
"138 652 OFFCURVE",
"71 638 CURVE",
"71 528 LINE",
"148 545 OFFCURVE",
"208 553 OFFCURVE",
"253 553 CURVE SMOOTH",
"332 553 OFFCURVE",
"362 541 OFFCURVE",
"362 501 CURVE SMOOTH",
"362 418 LINE SMOOTH",
"362 361 OFFCURVE",
"252 341 OFFCURVE",
"165 302 CURVE",
"106 277 OFFCURVE",
"58 223 OFFCURVE",
"58 148 CURVE SMOOTH",
"58 0 LINE",
"514 0 LINE"
);
}
);
width = 580;
}
);
unicode = 0032;
},
{
glyphname = three;
lastChange = "2016-10-15 17:21:52 +0000";
layers = (
{
layerId = UUID0;
paths = (
{
closed = 1;
nodes = (
"502 251 LINE",
"502 294 OFFCURVE",
"473 327 OFFCURVE",
"414 348 CURVE",
"447 357 OFFCURVE",
"476 384 OFFCURVE",
"476 425 CURVE SMOOTH",
"476 532 LINE SMOOTH",
"476 629 OFFCURVE",
"402 659 OFFCURVE",
"245 659 CURVE SMOOTH",
"208 659 OFFCURVE",
"144 656 OFFCURVE",
"53 650 CURVE",
"53 546 LINE",
"132 554 OFFCURVE",
"190 558 OFFCURVE",
"229 558 CURVE SMOOTH",
"309 558 OFFCURVE",
"326 545 OFFCURVE",
"326 504 CURVE SMOOTH",
"326 441 LINE SMOOTH",
"326 403 OFFCURVE",
"300 384 OFFCURVE",
"248 384 CURVE SMOOTH",
"130 384 LINE",
"130 284 LINE",
"248 284 LINE SMOOTH",
"315 284 OFFCURVE",
"349 268 OFFCURVE",
"349 237 CURVE SMOOTH",
"349 162 LINE SMOOTH",
"349 110 OFFCURVE",
"323 95 OFFCURVE",
"246 95 CURVE SMOOTH",
"223 95 OFFCURVE",
"205 96 OFFCURVE",
"185 97 CURVE",
"165 100 OFFCURVE",
"157 100 OFFCURVE",
"133 104 CURVE SMOOTH",
"108 108 LINE",
"79 114 LINE SMOOTH",
"64 117 OFFCURVE",
"54 120 OFFCURVE",
"47 121 CURVE",
"47 5 LINE",
"136 -5 OFFCURVE",
"208 -10 OFFCURVE",
"265 -10 CURVE SMOOTH",
"426 -10 OFFCURVE",
"502 33 OFFCURVE",
"502 145 CURVE SMOOTH",
"502 251 LINE"
);
}
);
width = 580;
}
);
unicode = 0033;
},
{
glyphname = four;
lastChange = "2016-10-15 17:21:52 +0000";
layers = (
{
layerId = UUID0;
paths = (
{
closed = 1;
nodes = (
"528 236 LINE",
"458 236 LINE",
"458 649 LINE",
"293 649 LINE",
"26 246 LINE",
"26 131 LINE",
"326 131 LINE",
"326 0 LINE",
"458 0 LINE",
"458 131 LINE",
"528 131 LINE"
);
},
{
closed = 1;
nodes = (
"151 236 LINE",
"326 511 LINE",
"326 236 LINE"
);
}
);
width = 580;
}
);
unicode = 0034;
},
{
glyphname = five;
lastChange = "2016-10-15 17:21:52 +0000";
layers = (
{
layerId = UUID0;
paths = (
{
closed = 1;
nodes = (
"503 280 LINE",
"503 329 OFFCURVE",
"476 366 OFFCURVE",
"436 382 CURVE",
"397 399 OFFCURVE",
"361 405 OFFCURVE",
"324 405 CURVE SMOOTH",
"222 405 LINE",
"222 537 LINE",
"486 537 LINE",
"486 649 LINE",
"76 649 LINE",
"76 298 LINE",
"276 298 LINE SMOOTH",
"331 298 OFFCURVE",
"353 284 OFFCURVE",
"353 248 CURVE SMOOTH",
"353 151 LINE SMOOTH",
"353 114 OFFCURVE",
"320 99 OFFCURVE",
"248 99 CURVE SMOOTH",
"204 99 OFFCURVE",
"142 107 OFFCURVE",
"61 122 CURVE",
"61 1 LINE",
"149 -6 OFFCURVE",
"218 -10 OFFCURVE",
"268 -10 CURVE SMOOTH",
"317 -10 OFFCURVE",
"348 -9 OFFCURVE",
"393 3 CURVE SMOOTH",
"416 9 OFFCURVE",
"435 17 OFFCURVE",
"450 27 CURVE SMOOTH",
"479 48 OFFCURVE",
"503 89 OFFCURVE",
"503 144 CURVE SMOOTH",
"503 280 LINE"
);
}
);
width = 580;
}
);
unicode = 0035;
},
{
glyphname = six;
lastChange = "2016-10-15 17:21:52 +0000";
layers = (
{
layerId = UUID0;
paths = (
{
closed = 1;
nodes = (
"525 257 LINE",
"520 343 OFFCURVE",
"499 379 OFFCURVE",
"439 394 CURVE SMOOTH",
"418 399 OFFCURVE",
"398 402 OFFCURVE",
"381 403 CURVE SMOOTH",
"364 404 OFFCURVE",
"339 405 OFFCURVE",
"307 405 CURVE SMOOTH",
"200 405 LINE",
"200 482 LINE SMOOTH",
"200 517 OFFCURVE",
"205 538 OFFCURVE",
"216 546 CURVE SMOOTH",
"227 554 OFFCURVE",
"256 558 OFFCURVE",
"301 558 CURVE SMOOTH",
"336 558 OFFCURVE",
"401 553 OFFCURVE",
"494 542 CURVE",
"494 649 LINE",
"398 656 OFFCURVE",
"338 659 OFFCURVE",
"314 659 CURVE SMOOTH",
"261 659 OFFCURVE",
"228 658 OFFCURVE",
"176 643 CURVE SMOOTH",
"151 636 OFFCURVE",
"130 627 OFFCURVE",
"114 614 CURVE SMOOTH",
"82 589 OFFCURVE",
"55 539 OFFCURVE",
"55 471 CURVE SMOOTH",
"55 169 LINE",
"59 70 OFFCURVE",
"94 25 OFFCURVE",
"156 5 CURVE",
"201 -8 OFFCURVE",
"234 -10 OFFCURVE",
"289 -10 CURVE SMOOTH",
"342 -10 OFFCURVE",
"376 -8 OFFCURVE",
"420 5 CURVE SMOOTH",
"443 12 OFFCURVE",
"461 22 OFFCURVE",
"475 34 CURVE SMOOTH",
"503 59 OFFCURVE",
"525 105 OFFCURVE",
"525 169 CURVE SMOOTH"
);
},
{
closed = 1;
nodes = (
"380 162 LINE",
"380 129 OFFCURVE",
"375 108 OFFCURVE",
"366 99 CURVE SMOOTH",
"357 91 OFFCURVE",
"332 87 OFFCURVE",
"291 87 CURVE SMOOTH",
"250 87 OFFCURVE",
"224 91 OFFCURVE",
"214 100 CURVE SMOOTH",
"205 109 OFFCURVE",
"200 129 OFFCURVE",
"200 161 CURVE SMOOTH",
"200 309 LINE",
"290 309 LINE SMOOTH",
"330 309 OFFCURVE",
"355 306 OFFCURVE",
"365 299 CURVE SMOOTH",
"375 293 OFFCURVE",
"380 279 OFFCURVE",
"380 256 CURVE SMOOTH"
);
}
);
width = 580;
}
);
unicode = 0036;
},
{
glyphname = seven;
lastChange = "2016-10-15 17:21:52 +0000";
layers = (
{
layerId = UUID0;
paths = (
{
closed = 1;
nodes = (
"516 649 LINE",
"40 649 LINE",
"40 535 LINE",
"355 535 LINE",
"105 0 LINE",
"267 0 LINE",
"516 549 LINE"
);
}
);
width = 580;
}
);
unicode = 0037;
},
{
glyphname = eight;
lastChange = "2016-10-15 17:21:52 +0000";
layers = (
{
layerId = UUID0;
paths = (
{
closed = 1;
nodes = (
"42 133 LINE",
"42 25 OFFCURVE",
"123 -10 OFFCURVE",
"290 -10 CURVE SMOOTH",
"457 -10 OFFCURVE",
"538 25 OFFCURVE",
"538 133 CURVE SMOOTH",
"538 245 LINE SMOOTH",
"538 289 OFFCURVE",
"487 330 OFFCURVE",
"430 343 CURVE",
"430 347 LINE",
"474 352 OFFCURVE",
"516 387 OFFCURVE",
"516 430 CURVE SMOOTH",
"516 523 LINE SMOOTH",
"516 568 OFFCURVE",
"499 602 OFFCURVE",
"466 625 CURVE SMOOTH",
"433 648 OFFCURVE",
"375 659 OFFCURVE",
"290 659 CURVE SMOOTH",
"205 659 OFFCURVE",
"146 648 OFFCURVE",
"113 625 CURVE SMOOTH",
"80 602 OFFCURVE",
"64 568 OFFCURVE",
"64 523 CURVE SMOOTH",
"64 430 LINE SMOOTH",
"64 387 OFFCURVE",
"106 352 OFFCURVE",
"150 347 CURVE",
"150 343 LINE",
"93 330 OFFCURVE",
"42 289 OFFCURVE",
"42 245 CURVE SMOOTH"
);
},
{
closed = 1;
nodes = (
"195 233 LINE",
"195 273 OFFCURVE",
"212 289 OFFCURVE",
"291 289 CURVE SMOOTH",
"370 289 OFFCURVE",
"385 273 OFFCURVE",
"385 233 CURVE SMOOTH",
"385 145 LINE SMOOTH",
"385 120 OFFCURVE",
"380 104 OFFCURVE",
"369 96 CURVE SMOOTH",
"358 89 OFFCURVE",
"332 85 OFFCURVE",
"290 85 CURVE SMOOTH",
"248 85 OFFCURVE",
"222 89 OFFCURVE",
"211 96 CURVE SMOOTH",
"200 104 OFFCURVE",
"195 120 OFFCURVE",
"195 145 CURVE SMOOTH"
);
},
{
closed = 1;
nodes = (
"369 435 LINE",
"369 399 OFFCURVE",
"351 382 OFFCURVE",
"290 382 CURVE SMOOTH",
"229 382 OFFCURVE",
"211 399 OFFCURVE",
"211 435 CURVE SMOOTH",
"211 510 LINE SMOOTH",
"211 547 OFFCURVE",
"229 564 OFFCURVE",
"290 564 CURVE SMOOTH",
"351 564 OFFCURVE",
"369 547 OFFCURVE",
"369 510 CURVE SMOOTH"
);
}
);
width = 580;
}
);
unicode = 0038;
},
{
glyphname = nine;
lastChange = "2016-10-15 17:21:52 +0000";
layers = (
{
layerId = UUID0;
paths = (
{
closed = 1;
nodes = (
"526 480 LINE",
"522 579 OFFCURVE",
"487 625 OFFCURVE",
"423 643 CURVE",
"379 658 OFFCURVE",
"346 659 OFFCURVE",
"291 659 CURVE SMOOTH",
"238 659 OFFCURVE",
"204 658 OFFCURVE",
"159 643 CURVE SMOOTH",
"137 636 OFFCURVE",
"119 627 OFFCURVE",
"105 614 CURVE SMOOTH",
"77 590 OFFCURVE",
"55 544 OFFCURVE",
"55 480 CURVE SMOOTH",
"55 392 LINE",
"60 306 OFFCURVE",
"81 270 OFFCURVE",
"141 255 CURVE SMOOTH",
"162 250 OFFCURVE",
"182 246 OFFCURVE",
"199 245 CURVE SMOOTH",
"216 244 OFFCURVE",
"241 244 OFFCURVE",
"273 244 CURVE SMOOTH",
"381 244 LINE",
"381 183 LINE SMOOTH",
"381 144 OFFCURVE",
"375 119 OFFCURVE",
"362 107 CURVE SMOOTH",
"350 96 OFFCURVE",
"319 90 OFFCURVE",
"269 90 CURVE SMOOTH",
"229 90 OFFCURVE",
"168 95 OFFCURVE",
"86 104 CURVE",
"86 0 LINE",
"155 -7 OFFCURVE",
"217 -10 OFFCURVE",
"271 -10 CURVE SMOOTH",
"447 -10 OFFCURVE",
"526 41 OFFCURVE",
"526 178 CURVE SMOOTH"
);
},
{
closed = 1;
nodes = (
"290 341 LINE",
"250 341 OFFCURVE",
"225 344 OFFCURVE",
"215 350 CURVE SMOOTH",
"205 357 OFFCURVE",
"200 371 OFFCURVE",
"200 394 CURVE SMOOTH",
"200 493 LINE SMOOTH",
"200 524 OFFCURVE",
"205 543 OFFCURVE",
"215 550 CURVE SMOOTH",
"225 557 OFFCURVE",
"250 561 OFFCURVE",
"289 561 CURVE SMOOTH",
"332 561 OFFCURVE",
"358 557 OFFCURVE",
"367 550 CURVE SMOOTH",
"376 543 OFFCURVE",
"381 524 OFFCURVE",
"381 493 CURVE SMOOTH",
"381 341 LINE"
);
}
);
width = 580;
}
);
unicode = 0039;
},
{
glyphname = colon;
lastChange = "2016-10-15 17:21:52 +0000";
layers = (
{
layerId = UUID0;
paths = (
{
closed = 1;
nodes = (
"206 484 LINE",
"50 484 LINE",
"50 346 LINE",
"206 346 LINE"
);
},
{
closed = 1;
nodes = (
"206 138 LINE",
"50 138 LINE",
"50 0 LINE",
"206 0 LINE"
);
}
);
width = 256;
}
);
unicode = 003A;
},
{
glyphname = semicolon;
lastChange = "2016-10-15 17:21:52 +0000";
layers = (
{
layerId = UUID0;
paths = (
{
closed = 1;
nodes = (
"206 484 LINE",
"50 484 LINE",
"50 346 LINE",
"206 346 LINE"
);
},
{
closed = 1;
nodes = (
"65 138 LINE",
"19 -112 LINE",
"123 -112 LINE",
"217 138 LINE"
);
}
);
width = 256;
}
);
unicode = 003B;
},
{
glyphname = less;
lastChange = "2016-10-15 17:21:52 +0000";
layers = (
{
layerId = UUID0;
paths = (
{
closed = 1;
nodes = (
"510 217 LINE",
"184 315 LINE",
"510 413 LINE",
"510 524 LINE",
"70 371 LINE",
"70 259 LINE",
"510 106 LINE"
);
}
);
width = 580;
}
);
unicode = 003C;
},
{
glyphname = equal;
lastChange = "2016-10-15 17:21:52 +0000";
layers = (
{
layerId = UUID0;
paths = (
{
closed = 1;
nodes = (
"510 465 LINE",
"70 465 LINE",
"70 364 LINE",
"510 364 LINE"
);
},
{
closed = 1;
nodes = (
"510 265 LINE",
"70 265 LINE",
"70 164 LINE",
"510 164 LINE"
);
}
);
width = 580;
}
);
unicode = 003D;
},
{
glyphname = greater;
lastChange = "2016-10-15 17:21:52 +0000";
layers = (
{
layerId = UUID0;
paths = (
{
closed = 1;
nodes = (
"510 371 LINE",
"70 524 LINE",
"70 413 LINE",
"396 315 LINE",
"70 217 LINE",
"70 106 LINE",
"510 259 LINE"
);
}
);
width = 580;
}
);
unicode = 003E;
},
{
glyphname = question;
lastChange = "2016-10-15 17:21:52 +0000";
layers = (
{
layerId = UUID0;
paths = (
{
closed = 1;
nodes = (
"489 523 LINE",
"489 594 OFFCURVE",
"458 630 OFFCURVE",
"400 645 CURVE",
"360 657 OFFCURVE",
"321 659 OFFCURVE",
"258 659 CURVE SMOOTH",
"198 659 OFFCURVE",
"125 654 OFFCURVE",
"40 643 CURVE",
"40 534 LINE",
"142 550 OFFCURVE",
"208 558 OFFCURVE",
"239 558 CURVE SMOOTH",
"319 558 OFFCURVE",
"337 546 OFFCURVE",
"337 510 CURVE SMOOTH",
"337 463 LINE SMOOTH",
"337 376 OFFCURVE",
"181 383 OFFCURVE",
"181 246 CURVE SMOOTH",
"181 188 LINE",
"317 188 LINE",
"317 233 LINE SMOOTH",
"317 296 OFFCURVE",
"489 324 OFFCURVE",
"489 427 CURVE SMOOTH"
);
},
{
closed = 1;
nodes = (
"327 138 LINE",
"171 138 LINE",
"171 0 LINE",
"327 0 LINE"
);
}
);
width = 529;
}
);
unicode = 003F;
},
{
glyphname = at;
lastChange = "2016-10-15 17:21:52 +0000";
layers = (
{
layerId = UUID0;
paths = (
{
closed = 1;
nodes = (
"733 474 LINE",
"733 550 OFFCURVE",
"681 604 OFFCURVE",
"602 627 CURVE",
"525 651 OFFCURVE",
"460 659 OFFCURVE",
"388 659 CURVE",
"330 658 OFFCURVE",
"252 654 OFFCURVE",
"179 626 CURVE SMOOTH",
"112 600 OFFCURVE",
"56 555 OFFCURVE",
"56 473 CURVE SMOOTH",
"56 166 LINE SMOOTH",
"56 49 OFFCURVE",
"167 -10 OFFCURVE",
"388 -10 CURVE SMOOTH",
"435 -10 OFFCURVE",
"515 -2 OFFCURVE",
"630 13 CURVE",
"630 90 LINE",
"514 74 OFFCURVE",
"434 66 OFFCURVE",
"390 66 CURVE SMOOTH",
"239 66 OFFCURVE",
"164 102 OFFCURVE",
"164 174 CURVE SMOOTH",
"164 471 LINE",
"167 531 OFFCURVE",
"209 561 OFFCURVE",
"271 571 CURVE",
"316 580 OFFCURVE",
"345 581 OFFCURVE",
"389 581 CURVE SMOOTH",
"550 581 OFFCURVE",
"630 544 OFFCURVE",
"630 471 CURVE SMOOTH",
"630 238 LINE SMOOTH",
"630 218 OFFCURVE",
"621 214 OFFCURVE",
"593 214 CURVE SMOOTH",
"565 214 OFFCURVE",
"554 219 OFFCURVE",
"554 238 CURVE SMOOTH",
"554 381 LINE SMOOTH",
"554 430 OFFCURVE",
"544 462 OFFCURVE",
"524 478 CURVE SMOOTH",
"504 494 OFFCURVE",
"461 502 OFFCURVE",
"395 502 CURVE SMOOTH",
"329 502 OFFCURVE",
"284 494 OFFCURVE",
"261 478 CURVE SMOOTH",
"238 462 OFFCURVE",
"226 430 OFFCURVE",
"226 381 CURVE SMOOTH",
"226 268 LINE SMOOTH",
"226 218 OFFCURVE",
"236 185 OFFCURVE",
"257 169 CURVE SMOOTH",
"278 154 OFFCURVE",
"318 146 OFFCURVE",
"375 146 CURVE SMOOTH",
"427 146 OFFCURVE",
"458 158 OFFCURVE",
"469 183 CURVE",
"476 163 OFFCURVE",
"525 148 OFFCURVE",
"573 148 CURVE SMOOTH",
"604 148 LINE SMOOTH",
"690 148 OFFCURVE",
"733 176 OFFCURVE",
"733 231 CURVE SMOOTH"
);
},
{
closed = 1;
nodes = (
"451 271 LINE",
"451 244 OFFCURVE",
"448 228 OFFCURVE",
"442 222 CURVE SMOOTH",
"436 217 OFFCURVE",
"421 214 OFFCURVE",
"397 214 CURVE SMOOTH",
"386 214 LINE SMOOTH",
"361 214 OFFCURVE",
"346 216 OFFCURVE",
"341 220 CURVE SMOOTH",
"336 225 OFFCURVE",
"334 238 OFFCURVE",
"334 261 CURVE SMOOTH",
"334 375 LINE SMOOTH",
"334 430 OFFCURVE",
"341 438 OFFCURVE",
"392 438 CURVE SMOOTH",
"419 438 OFFCURVE",
"435 434 OFFCURVE",
"441 427 CURVE SMOOTH",
"448 420 OFFCURVE",
"451 403 OFFCURVE",
"451 375 CURVE SMOOTH"
);
}
);
width = 787;
}
);
unicode = 0040;
},
{
glyphname = A;
lastChange = "2016-10-15 17:21:52 +0000";
layers = (
{
layerId = UUID0;
paths = (
{
closed = 1;
nodes = (
"432 649 LINE",
"242 649 LINE",
"2 0 LINE",
"156 0 LINE",
"213 171 LINE",
"450 171 LINE",
"508 0 LINE",
"666 0 LINE"
);
},
{
closed = 1;
nodes = (
"248 275 LINE",
"330 519 LINE",
"334 519 LINE",
"416 275 LINE"
);
}
);
width = 668;
}
);
unicode = 0041;
},
{
glyphname = B;
lastChange = "2016-10-15 17:21:52 +0000";
layers = (
{
layerId = UUID0;
paths = (
{
closed = 1;
nodes = (
"598 245 LINE",
"598 269 OFFCURVE",
"587 290 OFFCURVE",
"565 309 CURVE SMOOTH",
"544 328 OFFCURVE",
"521 338 OFFCURVE",
"497 341 CURVE",
"497 346 LINE",
"534 357 OFFCURVE",
"569 393 OFFCURVE",
"569 430 CURVE SMOOTH",
"569 510 LINE SMOOTH",
"569 561 OFFCURVE",
"553 597 OFFCURVE",
"520 618 CURVE SMOOTH",
"487 639 OFFCURVE",
"425 649 OFFCURVE",
"333 649 CURVE SMOOTH",
"70 649 LINE",
"70 0 LINE",
"340 0 LINE SMOOTH",
"511 0 OFFCURVE",
"598 37 OFFCURVE",
"598 145 CURVE SMOOTH"
);
},
{
closed = 1;
nodes = (
"419 450 LINE",
"419 401 OFFCURVE",
"406 385 OFFCURVE",
"333 385 CURVE SMOOTH",
"226 385 LINE",
"226 538 LINE",
"330 538 LINE SMOOTH",
"369 538 OFFCURVE",
"394 534 OFFCURVE",
"404 526 CURVE SMOOTH",
"414 518 OFFCURVE",
"419 503 OFFCURVE",
"419 482 CURVE SMOOTH"
);
},
{
closed = 1;
nodes = (
"442 166 LINE",
"442 127 OFFCURVE",
"413 111 OFFCURVE",
"337 111 CURVE SMOOTH",
"226 111 LINE",
"226 284 LINE",
"358 284 LINE SMOOTH",
"421 284 OFFCURVE",
"442 266 OFFCURVE",
"442 218 CURVE SMOOTH"
);
}
);
width = 635;
}
);
unicode = 0042;
},
{
glyphname = C;
lastChange = "2016-10-15 17:21:52 +0000";
layers = (
{
layerId = UUID0;
paths = (
{
closed = 1;
nodes = (
"567 130 LINE",
"485 111 OFFCURVE",
"420 101 OFFCURVE",
"373 101 CURVE SMOOTH",
"266 101 OFFCURVE",
"212 130 OFFCURVE",
"212 189 CURVE SMOOTH",
"212 465 LINE SMOOTH",
"212 502 OFFCURVE",
"227 525 OFFCURVE",
"258 536 CURVE SMOOTH",
"290 547 OFFCURVE",
"314 548 OFFCURVE",
"359 548 CURVE SMOOTH",
"416 548 OFFCURVE",
"484 539 OFFCURVE",
"563 520 CURVE",
"563 637 LINE",
"475 652 OFFCURVE",
"406 659 OFFCURVE",
"357 659 CURVE SMOOTH",
"156 659 OFFCURVE",
"56 594 OFFCURVE",
"56 463 CURVE SMOOTH",
"56 178 LINE",
"59 79 OFFCURVE",
"120 29 OFFCURVE",
"202 8 CURVE SMOOTH",
"261 -7 OFFCURVE",
"304 -10 OFFCURVE",
"357 -10 CURVE SMOOTH",
"424 -10 OFFCURVE",
"494 -3 OFFCURVE",
"567 12 CURVE"
);
}
);
width = 597;
}
);
unicode = 0043;
},
{
glyphname = D;
lastChange = "2016-10-15 17:21:52 +0000";
layers = (
{
layerId = UUID0;
paths = (
{
closed = 1;
nodes = (
"654 452 LINE",
"654 529 OFFCURVE",
"630 581 OFFCURVE",
"582 608 CURVE SMOOTH",
"535 635 OFFCURVE",
"456 649 OFFCURVE",
"346 649 CURVE SMOOTH",
"70 649 LINE",
"70 0 LINE",
"347 0 LINE SMOOTH",
"461 0 OFFCURVE",
"541 13 OFFCURVE",
"586 39 CURVE SMOOTH",
"631 65 OFFCURVE",
"654 115 OFFCURVE",
"654 188 CURVE SMOOTH"
);
},
{
closed = 1;
nodes = (
"498 188 LINE",
"498 155 OFFCURVE",
"487 133 OFFCURVE",
"464 124 CURVE SMOOTH",
"441 115 OFFCURVE",
"400 111 OFFCURVE",
"340 111 CURVE SMOOTH",
"226 111 LINE",
"226 538 LINE",
"345 538 LINE SMOOTH",
"448 538 OFFCURVE",
"498 518 OFFCURVE",
"498 455 CURVE SMOOTH"
);
}
);
width = 710;
}
);
unicode = 0044;
},
{
glyphname = E;
lastChange = "2016-10-15 17:21:52 +0000";
layers = (
{
layerId = UUID0;
paths = (
{
closed = 1;
nodes = (
"575 111 LINE",
"226 111 LINE",
"226 278 LINE",
"532 278 LINE",
"532 389 LINE",
"226 389 LINE",
"226 538 LINE",
"565 538 LINE",
"565 649 LINE",
"70 649 LINE",
"70 0 LINE",
"575 0 LINE"
);
}
);
width = 610;
}
);
unicode = 0045;
},
{
glyphname = F;
lastChange = "2016-10-15 17:21:52 +0000";
layers = (
{
layerId = UUID0;
paths = (
{
closed = 1;
nodes = (
"575 649 LINE",
"70 649 LINE",
"70 0 LINE",
"226 0 LINE",
"226 268 LINE",
"542 268 LINE",
"542 379 LINE",
"226 379 LINE",
"226 538 LINE",
"575 538 LINE"
);
}
);
width = 610;
}
);
unicode = 0046;
},
{
glyphname = G;
lastChange = "2016-10-15 17:21:52 +0000";
layers = (
{
layerId = UUID0;
paths = (
{
closed = 1;
nodes = (
"649 369 LINE",
"394 369 LINE",
"394 267 LINE",
"500 267 LINE",
"500 116 LINE",
"463 106 OFFCURVE",
"428 101 OFFCURVE",
"395 101 CURVE SMOOTH",
"278 101 OFFCURVE",
"212 122 OFFCURVE",
"212 189 CURVE SMOOTH",
"212 450 LINE SMOOTH",
"212 515 OFFCURVE",
"268 548 OFFCURVE",
"381 548 CURVE SMOOTH",
"478 548 OFFCURVE",
"566 539 OFFCURVE",
"645 520 CURVE",
"645 638 LINE",
"561 652 OFFCURVE",
"473 659 OFFCURVE",
"381 659 CURVE SMOOTH",
"320 659 OFFCURVE",
"267 655 OFFCURVE",
"207 635 CURVE",
"177 626 OFFCURVE",
"151 614 OFFCURVE",
"130 599 CURVE SMOOTH",
"87 570 OFFCURVE",
"56 516 OFFCURVE",
"56 448 CURVE SMOOTH",
"56 178 LINE SMOOTH",
"56 83 OFFCURVE",
"112 36 OFFCURVE",
"194 11 CURVE",
"253 -5 OFFCURVE",
"307 -10 OFFCURVE",
"379 -10 CURVE SMOOTH",
"422 -10 OFFCURVE",
"470 -6 OFFCURVE",
"521 2 CURVE SMOOTH",
"573 10 OFFCURVE",
"616 20 OFFCURVE",
"649 32 CURVE"
);
}
);
width = 705;
}
);
unicode = 0047;
},
{
glyphname = H;
lastChange = "2016-10-15 17:21:52 +0000";
layers = (
{
layerId = UUID0;
paths = (
{
closed = 1;
nodes = (
"658 649 LINE",
"502 649 LINE",
"502 389 LINE",
"226 389 LINE",
"226 649 LINE",
"70 649 LINE",
"70 0 LINE",
"226 0 LINE",
"226 278 LINE",
"502 278 LINE",
"502 0 LINE",
"658 0 LINE"
);
}
);
width = 728;
}
);
unicode = 0048;
},
{
glyphname = I;
lastChange = "2016-10-15 17:21:52 +0000";
layers = (
{
layerId = UUID0;
paths = (
{
closed = 1;
nodes = (
"226 649 LINE",
"70 649 LINE",
"70 0 LINE",
"226 0 LINE"
);
}
);
width = 296;
}
);
unicode = 0049;
},
{
glyphname = J;
lastChange = "2016-10-15 17:21:52 +0000";
layers = (
{
layerId = UUID0;
paths = (
{
closed = 1;
nodes = (
"221 649 LINE",
"221 172 LINE SMOOTH",
"221 125 OFFCURVE",
"195 101 OFFCURVE",
"142 101 CURVE SMOOTH",
"109 101 OFFCURVE",
"68 105 OFFCURVE",
"19 114 CURVE",
"19 0 LINE",
"66 -7 OFFCURVE",
"111 -10 OFFCURVE",
"154 -10 CURVE SMOOTH",
"299 -10 OFFCURVE",
"377 37 OFFCURVE",
"377 177 CURVE SMOOTH",
"377 649 LINE"
);
}
);
width = 445;
}
);
unicode = 004A;
},
{
glyphname = K;
lastChange = "2016-10-15 17:21:52 +0000";
layers = (
{
layerId = UUID0;
paths = (
{
closed = 1;
nodes = (
"410 347 LINE",
"656 649 LINE",
"473 649 LINE",
"230 344 LINE",
"493 0 LINE",
"683 0 LINE"
);
},
{
closed = 1;
nodes = (
"226 649 LINE",
"70 649 LINE",
"70 0 LINE",
"226 0 LINE"
);
}
);
width = 682;
}
);
unicode = 004B;
},
{
glyphname = L;
lastChange = "2016-10-15 17:21:52 +0000";
layers = (
{
layerId = UUID0;
paths = (
{
closed = 1;
nodes = (
"545 111 LINE",
"226 111 LINE",
"226 649 LINE",
"70 649 LINE",
"70 0 LINE",
"545 0 LINE"
);
}
);
width = 580;
}
);
unicode = 004C;
},
{
glyphname = M;
lastChange = "2016-10-15 17:21:52 +0000";
layers = (
{
layerId = UUID0;
paths = (
{
closed = 1;
nodes = (
"819 649 LINE",
"610 649 LINE",
"452 185 LINE",
"292 649 LINE",
"70 649 LINE",
"70 0 LINE",
"213 0 LINE",
"213 480 LINE",
"217 480 LINE",
"386 0 LINE",
"511 0 LINE",
"675 480 LINE",
"678 480 LINE",
"678 0 LINE",
"819 0 LINE"
);
}
);
width = 889;
}
);
unicode = 004D;
},
{
glyphname = N;
lastChange = "2016-10-15 17:21:52 +0000";
layers = (
{
layerId = UUID0;
paths = (
{
closed = 1;
nodes = (
"681 649 LINE",
"542 649 LINE",
"542 206 LINE",
"228 649 LINE",
"70 649 LINE",
"70 0 LINE",
"209 0 LINE",
"209 450 LINE",
"523 0 LINE",
"681 0 LINE"
);
}
);
width = 751;
}
);
unicode = 004E;
},
{
glyphname = O;
lastChange = "2016-10-15 17:21:52 +0000";
layers = (
{
layerId = UUID0;
paths = (
{
closed = 1;
nodes = (
"672 462 LINE",
"669 568 OFFCURVE",
"604 619 OFFCURVE",
"519 640 CURVE",
"459 657 OFFCURVE",
"416 659 OFFCURVE",
"363 659 CURVE SMOOTH",
"311 659 OFFCURVE",
"269 657 OFFCURVE",
"209 640 CURVE SMOOTH",
"179 632 OFFCURVE",
"153 621 OFFCURVE",
"132 608 CURVE SMOOTH",
"91 581 OFFCURVE",
"56 529 OFFCURVE",
"56 462 CURVE SMOOTH",
"56 178 LINE SMOOTH",
"56 99 OFFCURVE",
"100 45 OFFCURVE",
"168 21 CURVE SMOOTH",
"237 -3 OFFCURVE",
"294 -10 OFFCURVE",
"363 -10 CURVE SMOOTH",
"436 -10 OFFCURVE",
"500 0 OFFCURVE",
"565 25 CURVE",
"630 52 OFFCURVE",
"672 105 OFFCURVE",
"672 178 CURVE SMOOTH"
);
},
{
closed = 1;
nodes = (
"516 178 LINE",
"516 145 OFFCURVE",
"499 122 OFFCURVE",
"467 113 CURVE SMOOTH",
"435 104 OFFCURVE",
"409 101 OFFCURVE",
"365 101 CURVE SMOOTH",
"321 101 OFFCURVE",
"295 104 OFFCURVE",
"262 113 CURVE SMOOTH",
"230 122 OFFCURVE",
"212 145 OFFCURVE",
"212 178 CURVE SMOOTH",
"212 463 LINE SMOOTH",
"212 527 OFFCURVE",
"263 548 OFFCURVE",
"364 548 CURVE SMOOTH",
"464 548 OFFCURVE",
"516 526 OFFCURVE",
"516 463 CURVE SMOOTH"
);
}
);
width = 728;
}
);
unicode = 004F;
},
{
glyphname = P;
lastChange = "2016-10-15 17:21:52 +0000";
layers = (
{
layerId = UUID0;
paths = (
{
closed = 1;
nodes = (
"587 500 LINE",
"587 559 OFFCURVE",
"567 598 OFFCURVE",
"527 618 CURVE",
"488 639 OFFCURVE",
"422 649 OFFCURVE",
"330 649 CURVE SMOOTH",
"70 649 LINE",
"70 0 LINE",
"226 0 LINE",
"226 211 LINE",
"312 211 LINE SMOOTH",
"410 211 OFFCURVE",
"480 223 OFFCURVE",
"523 246 CURVE SMOOTH",
"566 269 OFFCURVE",
"587 313 OFFCURVE",
"587 377 CURVE SMOOTH"
);
},
{
closed = 1;
nodes = (
"436 382 LINE",
"436 335 OFFCURVE",
"406 318 OFFCURVE",
"325 318 CURVE SMOOTH",
"226 318 LINE",
"226 538 LINE",
"323 538 LINE SMOOTH",
"410 538 OFFCURVE",
"436 527 OFFCURVE",
"436 486 CURVE SMOOTH"
);
}
);
width = 627;
}
);
unicode = 0050;
},
{
glyphname = Q;
lastChange = "2016-10-15 17:21:52 +0000";
layers = (
{
layerId = UUID0;
paths = (
{
closed = 1;
nodes = (
"672 462 LINE",
"669 568 OFFCURVE",
"604 619 OFFCURVE",
"519 640 CURVE",
"459 657 OFFCURVE",
"416 659 OFFCURVE",
"363 659 CURVE SMOOTH",
"311 659 OFFCURVE",
"269 657 OFFCURVE",
"209 640 CURVE SMOOTH",
"179 632 OFFCURVE",
"153 621 OFFCURVE",
"132 608 CURVE SMOOTH",
"91 581 OFFCURVE",
"56 529 OFFCURVE",
"56 462 CURVE SMOOTH",
"56 178 LINE SMOOTH",
"56 99 OFFCURVE",
"100 45 OFFCURVE",
"168 21 CURVE SMOOTH",
"237 -3 OFFCURVE",
"294 -10 OFFCURVE",
"363 -10 CURVE SMOOTH",
"388 -10 OFFCURVE",
"417 -8 OFFCURVE",
"451 -5 CURVE SMOOTH",
"485 -2 OFFCURVE",
"508 0 OFFCURVE",
"519 0 CURVE SMOOTH",
"732 0 LINE",
"732 112 LINE",
"590 112 LINE",
"645 129 OFFCURVE",
"672 187 OFFCURVE",
"672 285 CURVE SMOOTH"
);
},
{
closed = 1;
nodes = (
"516 178 LINE",
"516 145 OFFCURVE",
"499 122 OFFCURVE",
"467 113 CURVE SMOOTH",
"435 104 OFFCURVE",
"409 101 OFFCURVE",
"365 101 CURVE SMOOTH",
"321 101 OFFCURVE",
"295 104 OFFCURVE",
"262 113 CURVE SMOOTH",
"230 122 OFFCURVE",
"212 145 OFFCURVE",
"212 178 CURVE SMOOTH",
"212 463 LINE SMOOTH",
"212 527 OFFCURVE",
"263 548 OFFCURVE",
"364 548 CURVE SMOOTH",
"464 548 OFFCURVE",
"516 526 OFFCURVE",
"516 463 CURVE SMOOTH"
);
}
);
width = 740;
}
);
unicode = 0051;
},
{
glyphname = R;
lastChange = "2016-10-15 17:21:52 +0000";
layers = (
{
layerId = UUID0;
paths = (
{
closed = 1;
nodes = (
"460 267 LINE",
"544 278 OFFCURVE",
"608 319 OFFCURVE",
"608 398 CURVE SMOOTH",
"608 512 LINE SMOOTH",
"608 612 OFFCURVE",
"533 649 OFFCURVE",
"362 649 CURVE SMOOTH",
"70 649 LINE",
"70 0 LINE",
"226 0 LINE",
"226 255 LINE",
"298 255 LINE",
"468 0 LINE",
"648 0 LINE"
);
},
{
closed = 1;
nodes = (
"455 429 LINE",
"455 373 OFFCURVE",
"433 358 OFFCURVE",
"360 358 CURVE SMOOTH",
"226 358 LINE",
"226 538 LINE",
"360 538 LINE SMOOTH",
"429 538 OFFCURVE",
"455 523 OFFCURVE",
"455 475 CURVE SMOOTH"
);
}
);
width = 668;
}
);
unicode = 0052;
},
{
glyphname = S;
lastChange = "2016-10-15 17:21:52 +0000";
layers = (
{
layerId = UUID0;
paths = (
{
closed = 1;
nodes = (
"568 228 LINE",
"568 337 OFFCURVE",
"509 394 OFFCURVE",
"357 394 CURVE SMOOTH",
"279 394 LINE SMOOTH",
"222 394 OFFCURVE",
"193 411 OFFCURVE",
"193 445 CURVE SMOOTH",
"193 491 LINE SMOOTH",
"193 532 OFFCURVE",
"225 548 OFFCURVE",
"328 548 CURVE SMOOTH",
"365 548 OFFCURVE",
"435 542 OFFCURVE",
"536 530 CURVE",
"536 646 LINE",
"451 655 OFFCURVE",
"383 659 OFFCURVE",
"333 659 CURVE SMOOTH",
"126 659 OFFCURVE",
"37 606 OFFCURVE",
"37 494 CURVE SMOOTH",
"37 446 LINE SMOOTH",
"37 333 OFFCURVE",
"108 276 OFFCURVE",
"251 276 CURVE SMOOTH",
"327 276 LINE SMOOTH",
"395 276 OFFCURVE",
"412 249 OFFCURVE",
"412 210 CURVE SMOOTH",
"412 168 LINE SMOOTH",
"412 123 OFFCURVE",
"369 101 OFFCURVE",
"282 101 CURVE SMOOTH",
"238 101 OFFCURVE",
"161 110 OFFCURVE",
"50 127 CURVE",
"50 8 LINE",
"141 -4 OFFCURVE",
"218 -10 OFFCURVE",
"280 -10 CURVE SMOOTH",
"369 -10 OFFCURVE",
"430 0 OFFCURVE",
"485 27 CURVE SMOOTH",
"540 55 OFFCURVE",
"568 108 OFFCURVE",
"568 185 CURVE SMOOTH",
"568 228 LINE"
);
}
);
width = 606;
}
);
unicode = 0053;
},
{
glyphname = T;
lastChange = "2016-10-15 17:21:52 +0000";
layers = (
{
layerId = UUID0;
paths = (
{
closed = 1;
nodes = (
"575 649 LINE",
"20 649 LINE",
"20 538 LINE",
"220 538 LINE",
"220 0 LINE",
"376 0 LINE",
"376 538 LINE",
"575 538 LINE"
);
}
);
width = 595;
}
);
unicode = 0054;
},
{
glyphname = U;
lastChange = "2016-10-15 17:21:52 +0000";
layers = (
{
layerId = UUID0;
paths = (
{
closed = 1;
nodes = (
"475 649 LINE",
"475 178 LINE SMOOTH",
"475 119 OFFCURVE",
"442 101 OFFCURVE",
"351 101 CURVE SMOOTH",
"259 101 OFFCURVE",
"224 119 OFFCURVE",
"224 178 CURVE SMOOTH",
"224 649 LINE",
"68 649 LINE",
"68 178 LINE SMOOTH",
"68 53 OFFCURVE",
"162 -10 OFFCURVE",
"349 -10 CURVE SMOOTH",
"537 -10 OFFCURVE",
"631 53 OFFCURVE",
"631 178 CURVE SMOOTH",
"631 649 LINE"
);
}
);
width = 699;
}
);
unicode = 0055;
},
{
glyphname = V;
lastChange = "2016-10-15 17:21:52 +0000";
layers = (
{
layerId = UUID0;
paths = (
{
closed = 1;
nodes = (
"510 649 LINE",
"336 130 LINE",
"332 130 LINE",
"158 649 LINE",
"0 649 LINE",
"233 0 LINE",
"424 0 LINE",
"664 649 LINE"
);
}
);
width = 664;
}
);
unicode = 0056;
},
{
glyphname = W;
lastChange = "2016-10-15 17:21:52 +0000";
layers = (
{
layerId = UUID0;
paths = (
{
closed = 1;
nodes = (
"819 649 LINE",
"703 175 LINE",
"567 649 LINE",
"422 649 LINE",
"296 175 LINE",
"170 649 LINE",
"8 649 LINE",
"209 0 LINE",
"363 0 LINE",
"491 471 LINE",
"615 0 LINE",
"769 0 LINE",
"977 649 LINE"
);
}
);
width = 985;
}
);
unicode = 0057;
},
{
glyphname = X;
lastChange = "2016-10-15 17:21:52 +0000";
layers = (
{
layerId = UUID0;
paths = (
{
closed = 1;
nodes = (
"428 331 LINE",
"657 649 LINE",
"477 649 LINE",
"339 433 LINE",
"200 649 LINE",
"20 649 LINE",
"249 331 LINE",
"10 0 LINE",
"190 0 LINE",
"339 230 LINE",
"487 0 LINE",
"668 0 LINE"
);
}
);
width = 677;
}
);
unicode = 0058;
},
{
glyphname = Y;
lastChange = "2016-10-15 17:21:52 +0000";
layers = (
{
layerId = UUID0;
paths = (
{
closed = 1;
nodes = (
"458 649 LINE",
"322 395 LINE",
"185 649 LINE",
"8 649 LINE",
"243 260 LINE",
"243 0 LINE",
"399 0 LINE",
"399 262 LINE",
"636 649 LINE"
);
}
);
width = 644;
}
);
unicode = 0059;
},
{
glyphname = Z;
lastChange = "2016-10-15 17:21:52 +0000";
layers = (
{
layerId = UUID0;
paths = (
{
closed = 1;
nodes = (
"576 112 LINE",
"232 112 LINE",
"570 555 LINE",
"570 649 LINE",
"50 649 LINE",
"50 538 LINE",
"378 538 LINE",
"40 95 LINE",
"40 0 LINE",
"576 0 LINE"
);
}
);
width = 612;
}
);
unicode = 005A;
},
{
glyphname = bracketleft;
lastChange = "2016-10-15 17:21:52 +0000";
layers = (
{
layerId = UUID0;
paths = (
{
closed = 1;
nodes = (
"362 -103 LINE",
"243 -103 LINE",
"243 649 LINE",
"362 649 LINE",
"362 736 LINE",
"100 736 LINE",
"100 -190 LINE",
"362 -190 LINE"
);
}
);
width = 372;
}
);
unicode = 005B;
},
{
glyphname = backslash;
lastChange = "2016-10-15 17:21:52 +0000";
layers = (
{
layerId = UUID0;
paths = (
{
closed = 1;
nodes = (
"97 659 LINE",
"10 659 LINE",
"334 -10 LINE",
"421 -10 LINE"
);
}
);
width = 431;
}
);
unicode = 005C;
},
{
glyphname = bracketright;
lastChange = "2016-10-15 17:21:52 +0000";
layers = (
{
layerId = UUID0;
paths = (
{
closed = 1;
nodes = (
"272 736 LINE",
"10 736 LINE",
"10 649 LINE",
"129 649 LINE",
"129 -103 LINE",
"10 -103 LINE",
"10 -190 LINE",
"272 -190 LINE"
);
}
);
width = 372;
}
);
unicode = 005D;
},
{
glyphname = asciicircum;
lastChange = "2016-10-15 17:21:52 +0000";
layers = (
{
layerId = UUID0;
paths = (
{
closed = 1;
nodes = (
"263 680 LINE",
"76 680 LINE",
"20 453 LINE",
"118 453 LINE",
"170 640 LINE",
"223 453 LINE",
"321 453 LINE"
);
}
);
width = 341;
}
);
unicode = 005E;
},
{
glyphname = underscore;
lastChange = "2016-10-15 17:21:52 +0000";
layers = (
{
layerId = UUID0;
paths = (
{
closed = 1;
nodes = (
"509 -60 LINE",
"71 -60 LINE",
"71 -161 LINE",
"509 -161 LINE"
);
}
);
width = 580;
}
);
unicode = 005F;
},
{
glyphname = grave;
lastChange = "2016-10-15 17:21:52 +0000";
layers = (
{
layerId = UUID0;
paths = (
{
closed = 1;
nodes = (
"234 680 LINE",
"75 680 LINE",
"200 553 LINE",
"324 553 LINE"
);
}
);
width = 400;
}
);
unicode = 0060;
},
{
glyphname = a;
lastChange = "2016-10-15 17:21:52 +0000";
layers = (
{
layerId = UUID0;
paths = (
{
closed = 1;
nodes = (
"500 333 LINE",
"500 397 OFFCURVE",
"483 440 OFFCURVE",
"448 461 CURVE SMOOTH",
"413 483 OFFCURVE",
"351 494 OFFCURVE",
"262 494 CURVE SMOOTH",
"194 494 OFFCURVE",
"132 491 OFFCURVE",
"77 484 CURVE",
"77 392 LINE",
"149 400 OFFCURVE",
"206 404 OFFCURVE",
"247 404 CURVE SMOOTH",
"291 404 OFFCURVE",
"320 399 OFFCURVE",
"333 389 CURVE",
"347 380 OFFCURVE",
"354 360 OFFCURVE",
"354 331 CURVE SMOOTH",
"354 298 LINE",
"190 298 LINE SMOOTH",
"133 298 OFFCURVE",
"94 287 OFFCURVE",
"72 264 CURVE SMOOTH",
"50 242 OFFCURVE",
"39 202 OFFCURVE",
"39 145 CURVE SMOOTH",
"39 82 OFFCURVE",
"50 40 OFFCURVE",
"71 20 CURVE SMOOTH",
"92 0 OFFCURVE",
"136 -10 OFFCURVE",
"201 -10 CURVE SMOOTH",
"254 -10 OFFCURVE",
"291 -6 OFFCURVE",
"311 2 CURVE SMOOTH",
"331 11 OFFCURVE",
"346 25 OFFCURVE",
"357 44 CURVE",
"357 0 LINE",
"500 0 LINE"
);
},
{
closed = 1;
nodes = (
"354 124 LINE",
"354 99 OFFCURVE",
"345 87 OFFCURVE",
"321 84 CURVE SMOOTH",
"302 81 OFFCURVE",
"291 81 OFFCURVE",
"258 81 CURVE SMOOTH",
"224 81 OFFCURVE",
"203 84 OFFCURVE",
"194 91 CURVE SMOOTH",
"186 98 OFFCURVE",
"182 117 OFFCURVE",
"182 148 CURVE SMOOTH",
"182 180 OFFCURVE",
"186 200 OFFCURVE",
"194 207 CURVE SMOOTH",
"202 214 OFFCURVE",
"222 218 OFFCURVE",
"254 218 CURVE SMOOTH",
"354 218 LINE"
);
}
);
width = 564;
}
);
unicode = 0061;
},
{
glyphname = b;
lastChange = "2016-10-15 17:21:52 +0000";
layers = (
{
layerId = UUID0;
paths = (
{
closed = 1;
nodes = (
"560 331 LINE",
"560 390 OFFCURVE",
"554 422 OFFCURVE",
"527 451 CURVE SMOOTH",
"500 482 OFFCURVE",
"450 494 OFFCURVE",
"367 494 CURVE SMOOTH",
"270 494 OFFCURVE",
"227 480 OFFCURVE",
"210 436 CURVE",
"210 700 LINE",
"64 700 LINE",
"64 172 LINE SMOOTH",
"64 109 OFFCURVE",
"82 62 OFFCURVE",
"117 33 CURVE SMOOTH",
"152 4 OFFCURVE",
"216 -10 OFFCURVE",
"309 -10 CURVE SMOOTH",
"485 -10 OFFCURVE",
"560 40 OFFCURVE",
"560 172 CURVE SMOOTH"
);
},
{
closed = 1;
nodes = (
"414 153 LINE",
"414 124 OFFCURVE",
"407 105 OFFCURVE",
"394 95 CURVE SMOOTH",
"381 86 OFFCURVE",
"354 81 OFFCURVE",
"311 81 CURVE SMOOTH",
"268 81 OFFCURVE",
"241 86 OFFCURVE",
"228 95 CURVE",
"216 105 OFFCURVE",
"210 124 OFFCURVE",
"210 153 CURVE SMOOTH",
"210 332 LINE SMOOTH",
"210 385 OFFCURVE",
"227 404 OFFCURVE",
"310 404 CURVE SMOOTH",
"356 404 OFFCURVE",
"385 400 OFFCURVE",
"396 391 CURVE",
"408 383 OFFCURVE",
"414 363 OFFCURVE",
"414 332 CURVE SMOOTH"
);
}
);
width = 610;
}
);
unicode = 0062;
},
{
glyphname = c;
lastChange = "2016-10-15 17:21:52 +0000";
layers = (
{
layerId = UUID0;
paths = (
{
closed = 1;
nodes = (
"464 103 LINE",
"395 88 OFFCURVE",
"344 81 OFFCURVE",
"309 81 CURVE SMOOTH",
"235 81 OFFCURVE",
"198 107 OFFCURVE",
"198 158 CURVE SMOOTH",
"198 336 LINE SMOOTH",
"198 381 OFFCURVE",
"232 404 OFFCURVE",
"299 404 CURVE SMOOTH",
"335 404 OFFCURVE",
"388 396 OFFCURVE",
"457 380 CURVE",
"457 476 LINE",
"396 488 OFFCURVE",
"347 494 OFFCURVE",
"310 494 CURVE SMOOTH",
"266 494 OFFCURVE",
"246 494 OFFCURVE",
"205 489 CURVE SMOOTH",
"165 484 OFFCURVE",
"145 476 OFFCURVE",
"114 459 CURVE",
"74 435 OFFCURVE",
"50 390 OFFCURVE",
"50 318 CURVE SMOOTH",
"50 157 LINE SMOOTH",
"50 72 OFFCURVE",
"87 36 OFFCURVE",
"131 12 CURVE SMOOTH",
"159 -3 OFFCURVE",
"212 -8 OFFCURVE",
"241 -9 CURVE SMOOTH",
"256 -10 OFFCURVE",
"275 -10 OFFCURVE",
"300 -10 CURVE SMOOTH",
"351 -10 OFFCURVE",
"405 -4 OFFCURVE",
"464 7 CURVE"
);
}
);
width = 482;
}
);
unicode = 0063;
},
{
glyphname = d;
lastChange = "2016-10-15 17:21:52 +0000";
layers = (
{
layerId = UUID0;
paths = (
{
closed = 1;
nodes = (
"544 700 LINE",
"398 700 LINE",
"398 430 LINE",
"381 455 OFFCURVE",
"363 471 OFFCURVE",
"344 480 CURVE SMOOTH",
"325 489 OFFCURVE",
"291 494 OFFCURVE",
"243 494 CURVE SMOOTH",
"110 494 OFFCURVE",
"50 457 OFFCURVE",
"50 348 CURVE SMOOTH",
"50 159 LINE SMOOTH",
"50 88 OFFCURVE",
"63 42 OFFCURVE",
"88 21 CURVE SMOOTH",
"113 0 OFFCURVE",
"167 -10 OFFCURVE",
"250 -10 CURVE",
"358 -7 OFFCURVE",
"368 3 OFFCURVE",
"403 55 CURVE",
"403 0 LINE",
"544 0 LINE"
);
},
{
closed = 1;
nodes = (
"398 145 LINE",
"398 119 OFFCURVE",
"391 102 OFFCURVE",
"378 93 CURVE SMOOTH",
"365 85 OFFCURVE",
"334 81 OFFCURVE",
"287 81 CURVE SMOOTH",
"248 81 OFFCURVE",
"223 86 OFFCURVE",
"212 95 CURVE SMOOTH",
"201 105 OFFCURVE",
"196 123 OFFCURVE",
"196 150 CURVE SMOOTH",
"196 335 LINE SMOOTH",
"196 364 OFFCURVE",
"201 382 OFFCURVE",
"212 391 CURVE SMOOTH",
"223 400 OFFCURVE",
"250 404 OFFCURVE",
"295 404 CURVE SMOOTH",
"338 404 OFFCURVE",
"365 399 OFFCURVE",
"378 390 CURVE SMOOTH",
"391 381 OFFCURVE",
"398 364 OFFCURVE",
"398 340 CURVE SMOOTH"
);
}
);
width = 608;
}
);
unicode = 0064;
},
{
glyphname = e;
lastChange = "2016-10-15 17:21:52 +0000";
layers = (
{
layerId = UUID0;
paths = (
{
closed = 1;
nodes = (
"511 321 LINE",
"511 450 OFFCURVE",
"438 494 OFFCURVE",
"289 494 CURVE SMOOTH",
"130 494 OFFCURVE",
"50 445 OFFCURVE",
"50 321 CURVE SMOOTH",
"50 147 LINE SMOOTH",
"50 42 OFFCURVE",
"136 -10 OFFCURVE",
"307 -10 CURVE SMOOTH",
"372 -10 OFFCURVE",
"436 -4 OFFCURVE",
"497 9 CURVE",
"497 102 LINE",
"437 88 OFFCURVE",
"383 81 OFFCURVE",
"335 81 CURVE SMOOTH",
"228 81 OFFCURVE",
"197 104 OFFCURVE",
"197 159 CURVE SMOOTH",
"197 203 LINE",
"511 203 LINE"
);
},
{
closed = 1;
nodes = (
"197 286 LINE",
"197 356 LINE SMOOTH",
"197 387 OFFCURVE",
"216 404 OFFCURVE",
"287 404 CURVE SMOOTH",
"351 404 OFFCURVE",
"372 387 OFFCURVE",
"372 356 CURVE SMOOTH",
"372 286 LINE"
);
}
);
width = 559;
}
);
unicode = 0065;
},
{
glyphname = f;
lastChange = "2016-10-15 17:21:52 +0000";
layers = (
{
layerId = UUID0;
paths = (
{
closed = 1;
nodes = (
"398 702 LINE",
"353 707 OFFCURVE",
"317 710 OFFCURVE",
"289 710 CURVE SMOOTH",
"158 710 OFFCURVE",
"101 676 OFFCURVE",
"101 557 CURVE SMOOTH",
"101 484 LINE",
"10 484 LINE",
"10 394 LINE",
"101 394 LINE",
"101 0 LINE",
"247 0 LINE",
"247 394 LINE",
"380 394 LINE",
"380 484 LINE",
"247 484 LINE",
"247 565 LINE SMOOTH",
"247 608 OFFCURVE",
"264 620 OFFCURVE",
"312 620 CURVE SMOOTH",
"329 620 OFFCURVE",
"358 617 OFFCURVE",
"398 612 CURVE"
);
}
);
width = 388;
}
);
unicode = 0066;
},
{
glyphname = g;
lastChange = "2016-10-15 17:21:52 +0000";
layers = (
{
layerId = UUID0;
paths = (
{
closed = 1;
nodes = (
"403 484 LINE",
"403 429 LINE",
"368 481 OFFCURVE",
"358 491 OFFCURVE",
"250 494 CURVE",
"171 494 OFFCURVE",
"118 482 OFFCURVE",
"91 458 CURVE SMOOTH",
"64 435 OFFCURVE",
"50 390 OFFCURVE",
"50 325 CURVE SMOOTH",
"50 136 LINE SMOOTH",
"50 24 OFFCURVE",
"104 -10 OFFCURVE",
"243 -10 CURVE SMOOTH",
"291 -10 OFFCURVE",
"325 -6 OFFCURVE",
"344 3 CURVE SMOOTH",
"363 12 OFFCURVE",
"381 29 OFFCURVE",
"398 54 CURVE",
"398 -24 LINE SMOOTH",
"398 -100 OFFCURVE",
"357 -128 OFFCURVE",
"260 -128 CURVE SMOOTH",
"209 -128 OFFCURVE",
"150 -124 OFFCURVE",
"85 -115 CURVE",
"85 -213 LINE",
"126 -218 OFFCURVE",
"184 -220 OFFCURVE",
"260 -220 CURVE SMOOTH",
"445 -220 OFFCURVE",
"544 -167 OFFCURVE",
"544 -26 CURVE SMOOTH",
"544 484 LINE"
);
},
{
closed = 1;
nodes = (
"398 145 LINE",
"398 121 OFFCURVE",
"391 104 OFFCURVE",
"378 95 CURVE SMOOTH",
"365 86 OFFCURVE",
"338 81 OFFCURVE",
"295 81 CURVE SMOOTH",
"250 81 OFFCURVE",
"223 85 OFFCURVE",
"212 94 CURVE SMOOTH",
"201 103 OFFCURVE",
"196 121 OFFCURVE",
"196 150 CURVE SMOOTH",
"196 335 LINE SMOOTH",
"196 362 OFFCURVE",
"201 380 OFFCURVE",
"212 389 CURVE SMOOTH",
"223 399 OFFCURVE",
"248 404 OFFCURVE",
"287 404 CURVE SMOOTH",
"334 404 OFFCURVE",
"365 400 OFFCURVE",
"378 391 CURVE SMOOTH",
"391 383 OFFCURVE",
"398 366 OFFCURVE",
"398 340 CURVE SMOOTH"
);
}
);
width = 608;
}
);
unicode = 0067;
},
{
glyphname = h;
lastChange = "2016-10-15 17:21:52 +0000";
layers = (
{
layerId = UUID0;
paths = (
{
closed = 1;
nodes = (
"531 355 LINE SMOOTH",
"531 448 OFFCURVE",
"491 494 OFFCURVE",
"363 494 CURVE SMOOTH",
"270 494 OFFCURVE",
"219 471 OFFCURVE",
"210 425 CURVE",
"210 700 LINE",
"64 700 LINE",
"64 0 LINE",
"210 0 LINE",
"210 338 LINE SMOOTH",
"210 365 OFFCURVE",
"216 383 OFFCURVE",
"227 391 CURVE SMOOTH",
"238 400 OFFCURVE",
"265 404 OFFCURVE",
"307 404 CURVE SMOOTH",
"341 404 OFFCURVE",
"362 400 OFFCURVE",
"371 391 CURVE SMOOTH",
"380 382 OFFCURVE",
"385 365 OFFCURVE",
"385 338 CURVE SMOOTH",
"385 0 LINE",
"531 0 LINE"
);
}
);
width = 595;
}
);
unicode = 0068;
},
{
glyphname = i;
lastChange = "2016-10-15 17:21:52 +0000";
layers = (
{
layerId = UUID0;
paths = (
{
closed = 1;
nodes = (
"214 659 LINE",
"68 659 LINE",
"68 541 LINE",
"214 541 LINE"
);
},
{
closed = 1;
nodes = (
"214 484 LINE",
"68 484 LINE",
"68 0 LINE",
"214 0 LINE"
);
}
);
width = 282;
}
);
unicode = 0069;
},
{
glyphname = j;
lastChange = "2016-10-15 17:21:52 +0000";
layers = (
{
layerId = UUID0;
paths = (
{
closed = 1;
nodes = (
"64 484 LINE",
"64 -40 LINE SMOOTH",
"64 -77 OFFCURVE",
"59 -101 OFFCURVE",
"49 -110 CURVE SMOOTH",
"39 -119 OFFCURVE",
"16 -124 OFFCURVE",
"-20 -124 CURVE SMOOTH",
"-28 -124 OFFCURVE",
"-34 -124 OFFCURVE",
"-38 -123 CURVE",
"-38 -218 LINE",
"-15 -219 OFFCURVE",
"0 -220 OFFCURVE",
"9 -220 CURVE SMOOTH",
"140 -220 OFFCURVE",
"210 -188 OFFCURVE",
"210 -73 CURVE SMOOTH",
"210 484 LINE"
);
},
{
closed = 1;
nodes = (
"210 659 LINE",
"64 659 LINE",
"64 541 LINE",
"210 541 LINE"
);
}
);
width = 274;
}
);
unicode = 006A;
},
{
glyphname = k;
lastChange = "2016-10-15 17:21:52 +0000";
layers = (
{
layerId = UUID0;
paths = (
{
closed = 1;
nodes = (
"374 273 LINE",
"542 484 LINE",
"375 484 LINE",
"216 272 LINE",
"391 0 LINE",
"556 0 LINE"
);
},
{
closed = 1;
nodes = (
"210 700 LINE",
"64 700 LINE",
"64 0 LINE",
"210 0 LINE"
);
}
);
width = 540;
}
);
unicode = 006B;
},
{
glyphname = l;
lastChange = "2016-10-15 17:21:52 +0000";
layers = (
{
layerId = UUID0;
paths = (
{
closed = 1;
nodes = (
"214 700 LINE",
"68 700 LINE",
"68 0 LINE",
"214 0 LINE"
);
}
);
width = 282;
}
);
unicode = 006C;
},
{
glyphname = m;
lastChange = "2016-10-15 17:21:52 +0000";
layers = (
{
layerId = UUID0;
paths = (
{
closed = 1;
nodes = (
"812 355 LINE SMOOTH",
"812 403 OFFCURVE",
"801 438 OFFCURVE",
"780 460 CURVE SMOOTH",
"759 483 OFFCURVE",
"717 494 OFFCURVE",
"654 494 CURVE SMOOTH",
"558 494 OFFCURVE",
"519 471 OFFCURVE",
"503 422 CURVE",
"487 470 OFFCURVE",
"445 494 OFFCURVE",
"353 494 CURVE SMOOTH",
"267 494 OFFCURVE",
"219 471 OFFCURVE",
"210 425 CURVE",
"210 484 LINE",
"64 484 LINE",
"64 0 LINE",
"210 0 LINE",
"210 335 LINE SMOOTH",
"210 364 OFFCURVE",
"214 383 OFFCURVE",
"223 391 CURVE SMOOTH",
"232 400 OFFCURVE",
"257 404 OFFCURVE",
"297 404 CURVE SMOOTH",
"328 404 OFFCURVE",
"347 400 OFFCURVE",
"354 391 CURVE SMOOTH",
"361 383 OFFCURVE",
"365 364 OFFCURVE",
"365 335 CURVE SMOOTH",
"365 0 LINE",
"511 0 LINE",
"511 335 LINE SMOOTH",
"511 364 OFFCURVE",
"515 383 OFFCURVE",
"524 391 CURVE SMOOTH",
"533 400 OFFCURVE",
"558 404 OFFCURVE",
"598 404 CURVE SMOOTH",
"629 404 OFFCURVE",
"648 400 OFFCURVE",
"655 391 CURVE SMOOTH",
"662 383 OFFCURVE",
"666 364 OFFCURVE",
"666 335 CURVE SMOOTH",
"666 0 LINE",
"812 0 LINE"
);
}
);
width = 876;
}
);
unicode = 006D;
},
{
glyphname = n;
lastChange = "2016-10-15 17:21:52 +0000";
layers = (
{
layerId = UUID0;
paths = (
{
closed = 1;
nodes = (
"531 355 LINE SMOOTH",
"531 448 OFFCURVE",
"491 494 OFFCURVE",
"363 494 CURVE SMOOTH",
"271 494 OFFCURVE",
"219 471 OFFCURVE",
"208 425 CURVE",
"208 484 LINE",
"64 484 LINE",
"64 0 LINE",
"210 0 LINE",
"210 336 LINE SMOOTH",
"210 363 OFFCURVE",
"216 381 OFFCURVE",
"227 390 CURVE SMOOTH",
"238 399 OFFCURVE",
"265 404 OFFCURVE",
"307 404 CURVE SMOOTH",
"341 404 OFFCURVE",
"362 399 OFFCURVE",
"371 390 CURVE SMOOTH",
"380 381 OFFCURVE",
"385 363 OFFCURVE",
"385 336 CURVE SMOOTH",
"385 0 LINE",
"531 0 LINE"
);
}
);
width = 595;
}
);
unicode = 006E;
},
{
glyphname = o;
lastChange = "2016-10-15 17:21:52 +0000";
layers = (
{
layerId = UUID0;
paths = (
{
closed = 1;
nodes = (
"542 309 LINE",
"538 412 OFFCURVE",
"498 460 OFFCURVE",
"430 478 CURVE",
"382 493 OFFCURVE",
"351 494 OFFCURVE",
"296 494 CURVE SMOOTH",
"241 494 OFFCURVE",
"210 493 OFFCURVE",
"162 478 CURVE SMOOTH",
"138 471 OFFCURVE",
"118 462 OFFCURVE",
"103 449 CURVE SMOOTH",
"74 424 OFFCURVE",
"50 376 OFFCURVE",
"50 309 CURVE SMOOTH",
"50 166 LINE",
"53 70 OFFCURVE",
"93 23 OFFCURVE",
"159 5 CURVE SMOOTH",
"207 -8 OFFCURVE",
"240 -10 OFFCURVE",
"296 -10 CURVE SMOOTH",
"352 -10 OFFCURVE",
"385 -8 OFFCURVE",
"432 5 CURVE SMOOTH",
"456 12 OFFCURVE",
"475 21 OFFCURVE",
"490 33 CURVE SMOOTH",
"519 58 OFFCURVE",
"542 103 OFFCURVE",
"542 166 CURVE SMOOTH"
);
},
{
closed = 1;
nodes = (
"396 149 LINE",
"396 98 OFFCURVE",
"377 81 OFFCURVE",
"296 81 CURVE SMOOTH",
"215 81 OFFCURVE",
"196 98 OFFCURVE",
"196 149 CURVE SMOOTH",
"196 332 LINE SMOOTH",
"196 384 OFFCURVE",
"216 404 OFFCURVE",
"296 404 CURVE SMOOTH",
"376 404 OFFCURVE",
"396 384 OFFCURVE",
"396 332 CURVE SMOOTH"
);
}
);
width = 592;
}
);
unicode = 006F;
},
{
glyphname = p;
lastChange = "2016-10-15 17:21:52 +0000";
layers = (
{
layerId = UUID0;
paths = (
{
closed = 1;
nodes = (
"559 331 LINE",
"559 390 OFFCURVE",
"553 422 OFFCURVE",
"526 451 CURVE SMOOTH",
"499 482 OFFCURVE",
"449 494 OFFCURVE",
"366 494 CURVE SMOOTH",
"267 494 OFFCURVE",
"219 479 OFFCURVE",
"202 436 CURVE",
"202 484 LINE",
"64 484 LINE",
"64 -208 LINE",
"210 -208 LINE",
"210 49 LINE",
"223 0 OFFCURVE",
"264 -10 OFFCURVE",
"355 -10 CURVE SMOOTH",
"427 -10 OFFCURVE",
"479 2 OFFCURVE",
"511 27 CURVE SMOOTH",
"543 52 OFFCURVE",
"559 100 OFFCURVE",
"559 172 CURVE SMOOTH"
);
},
{
closed = 1;
nodes = (
"413 153 LINE",
"413 124 OFFCURVE",
"406 105 OFFCURVE",
"393 95 CURVE SMOOTH",
"380 86 OFFCURVE",
"353 81 OFFCURVE",
"310 81 CURVE SMOOTH",
"267 81 OFFCURVE",
"240 86 OFFCURVE",
"228 95 CURVE SMOOTH",
"216 105 OFFCURVE",
"210 124 OFFCURVE",
"210 153 CURVE SMOOTH",
"210 332 LINE SMOOTH",
"210 359 OFFCURVE",
"216 377 OFFCURVE",
"228 388 CURVE SMOOTH",
"241 399 OFFCURVE",
"268 404 OFFCURVE",
"309 404 CURVE SMOOTH",
"355 404 OFFCURVE",
"384 400 OFFCURVE",
"395 391 CURVE",
"407 383 OFFCURVE",
"413 363 OFFCURVE",
"413 332 CURVE SMOOTH"
);
}
);
width = 609;
}
);
unicode = 0070;
},
{
glyphname = q;
lastChange = "2016-10-15 17:21:52 +0000";
layers = (
{
layerId = UUID0;
paths = (
{
closed = 1;
nodes = (
"544 310 LINE",
"544 361 OFFCURVE",
"543 382 OFFCURVE",
"532 414 CURVE SMOOTH",
"527 431 OFFCURVE",
"520 443 OFFCURVE",
"509 451 CURVE SMOOTH",
"475 478 OFFCURVE",
"417 494 OFFCURVE",
"297 494 CURVE SMOOTH",
"197 494 OFFCURVE",
"131 483 OFFCURVE",
"98 461 CURVE SMOOTH",
"66 439 OFFCURVE",
"50 395 OFFCURVE",
"50 328 CURVE SMOOTH",
"50 159 LINE SMOOTH",
"50 88 OFFCURVE",
"63 42 OFFCURVE",
"88 21 CURVE SMOOTH",
"113 0 OFFCURVE",
"167 -10 OFFCURVE",
"250 -10 CURVE SMOOTH",
"299 -10 OFFCURVE",
"332 -6 OFFCURVE",
"349 2 CURVE SMOOTH",
"366 11 OFFCURVE",
"382 28 OFFCURVE",
"398 55 CURVE",
"398 -208 LINE",
"544 -208 LINE"
);
},
{
closed = 1;
nodes = (
"398 145 LINE",
"398 119 OFFCURVE",
"391 102 OFFCURVE",
"378 93 CURVE SMOOTH",
"365 85 OFFCURVE",
"334 81 OFFCURVE",
"287 81 CURVE SMOOTH",
"248 81 OFFCURVE",
"223 86 OFFCURVE",
"212 95 CURVE SMOOTH",
"201 105 OFFCURVE",
"196 123 OFFCURVE",
"196 150 CURVE SMOOTH",
"196 337 LINE SMOOTH",
"196 366 OFFCURVE",
"201 384 OFFCURVE",
"212 392 CURVE SMOOTH",
"223 400 OFFCURVE",
"250 404 OFFCURVE",
"295 404 CURVE SMOOTH",
"338 404 OFFCURVE",
"365 399 OFFCURVE",
"378 388 CURVE SMOOTH",
"391 378 OFFCURVE",
"398 361 OFFCURVE",
"398 337 CURVE SMOOTH"
);
}
);
width = 608;
}
);
unicode = 0071;
},
{
glyphname = r;
lastChange = "2016-10-15 17:21:52 +0000";
layers = (
{
layerId = UUID0;
paths = (
{
closed = 1;
nodes = (
"381 494 LINE",
"329 494 LINE SMOOTH",
"300 494 OFFCURVE",
"271 484 OFFCURVE",
"244 464 CURVE SMOOTH",
"217 445 OFFCURVE",
"204 423 OFFCURVE",
"203 399 CURVE",
"203 484 LINE",
"64 484 LINE",
"64 0 LINE",
"210 0 LINE",
"210 291 LINE SMOOTH",
"210 351 OFFCURVE",
"251 373 OFFCURVE",
"331 373 CURVE SMOOTH",
"381 373 LINE"
);
}
);
width = 397;
}
);
unicode = 0072;
},
{
glyphname = s;
lastChange = "2016-10-15 17:21:52 +0000";
layers = (
{
layerId = UUID0;
paths = (
{
closed = 1;
nodes = (
"481 189 LINE",
"481 266 OFFCURVE",
"422 305 OFFCURVE",
"303 305 CURVE SMOOTH",
"239 305 LINE SMOOTH",
"204 305 OFFCURVE",
"188 321 OFFCURVE",
"188 337 CURVE SMOOTH",
"188 363 LINE SMOOTH",
"188 379 OFFCURVE",
"193 390 OFFCURVE",
"204 395 CURVE SMOOTH",
"215 401 OFFCURVE",
"240 404 OFFCURVE",
"281 404 CURVE SMOOTH",
"294 404 OFFCURVE",
"353 400 OFFCURVE",
"457 392 CURVE",
"457 485 LINE",
"374 491 OFFCURVE",
"317 494 OFFCURVE",
"285 494 CURVE SMOOTH",
"132 494 OFFCURVE",
"44 466 OFFCURVE",
"44 378 CURVE SMOOTH",
"44 319 LINE SMOOTH",
"44 240 OFFCURVE",
"104 199 OFFCURVE",
"205 199 CURVE SMOOTH",
"268 199 LINE SMOOTH",
"325 199 OFFCURVE",
"337 184 OFFCURVE",
"337 153 CURVE SMOOTH",
"337 123 LINE SMOOTH",
"337 90 OFFCURVE",
"304 81 OFFCURVE",
"247 81 CURVE SMOOTH",
"211 81 OFFCURVE",
"147 88 OFFCURVE",
"54 102 CURVE",
"54 5 LINE",
"129 -5 OFFCURVE",
"192 -10 OFFCURVE",
"245 -10 CURVE SMOOTH",
"300 -10 OFFCURVE",
"336 -8 OFFCURVE",
"380 3 CURVE SMOOTH",
"402 8 OFFCURVE",
"420 16 OFFCURVE",
"433 25 CURVE SMOOTH",
"461 45 OFFCURVE",
"481 80 OFFCURVE",
"481 128 CURVE SMOOTH",
"481 189 LINE"
);
}
);
width = 525;
}
);
unicode = 0073;
},
{
glyphname = t;
lastChange = "2016-10-15 17:21:52 +0000";
layers = (
{
layerId = UUID0;
paths = (
{
closed = 1;
nodes = (
"387 86 LINE",
"364 83 OFFCURVE",
"346 81 OFFCURVE",
"335 81 CURVE SMOOTH",
"267 81 OFFCURVE",
"254 99 OFFCURVE",
"254 166 CURVE SMOOTH",
"254 394 LINE",
"387 394 LINE",
"387 484 LINE",
"254 484 LINE",
"254 624 LINE",
"108 624 LINE",
"108 484 LINE",
"10 484 LINE",
"10 394 LINE",
"108 394 LINE",
"108 141 LINE SMOOTH",
"108 60 OFFCURVE",
"143 22 OFFCURVE",
"193 4 CURVE",
"230 -8 OFFCURVE",
"261 -10 OFFCURVE",
"306 -10 CURVE SMOOTH",
"332 -10 OFFCURVE",
"359 -8 OFFCURVE",
"387 -5 CURVE"
);
}
);
width = 407;
}
);
unicode = 0074;
},
{
glyphname = u;
lastChange = "2016-10-15 17:21:52 +0000";
layers = (
{
layerId = UUID0;
paths = (
{
closed = 1;
nodes = (
"531 484 LINE",
"385 484 LINE",
"385 149 LINE SMOOTH",
"385 122 OFFCURVE",
"379 103 OFFCURVE",
"368 94 CURVE SMOOTH",
"357 85 OFFCURVE",
"330 81 OFFCURVE",
"288 81 CURVE SMOOTH",
"254 81 OFFCURVE",
"232 86 OFFCURVE",
"223 95 CURVE SMOOTH",
"214 104 OFFCURVE",
"210 122 OFFCURVE",
"210 149 CURVE SMOOTH",
"210 484 LINE",
"64 484 LINE",
"64 129 LINE SMOOTH",
"64 36 OFFCURVE",
"104 -10 OFFCURVE",
"232 -10 CURVE SMOOTH",
"324 -10 OFFCURVE",
"376 13 OFFCURVE",
"387 59 CURVE",
"387 0 LINE",
"531 0 LINE"
);
}
);
width = 595;
}
);
unicode = 0075;
},
{
glyphname = v;
lastChange = "2016-10-15 17:21:52 +0000";
layers = (
{
layerId = UUID0;
paths = (
{
closed = 1;
nodes = (
"363 484 LINE",
"261 149 LINE",
"155 484 LINE",
"0 484 LINE",
"184 0 LINE",
"332 0 LINE",
"510 484 LINE"
);
}
);
width = 510;
}
);
unicode = 0076;
},
{
glyphname = w;
lastChange = "2016-10-15 17:21:52 +0000";
layers = (
{
layerId = UUID0;
paths = (
{
closed = 1;
nodes = (
"672 484 LINE",
"586 133 LINE",
"486 484 LINE",
"343 484 LINE",
"247 133 LINE",
"157 484 LINE",
"8 484 LINE",
"170 0 LINE",
"318 0 LINE",
"412 327 LINE",
"508 0 LINE",
"656 0 LINE",
"814 484 LINE"
);
}
);
width = 822;
}
);
unicode = 0077;
},
{
glyphname = x;
lastChange = "2016-10-15 17:21:52 +0000";
layers = (
{
layerId = UUID0;
paths = (
{
closed = 1;
nodes = (
"368 248 LINE",
"549 484 LINE",
"380 484 LINE",
"284 345 LINE",
"189 484 LINE",
"20 484 LINE",
"200 248 LINE",
"10 0 LINE",
"179 0 LINE",
"284 152 LINE",
"390 0 LINE",
"559 0 LINE"
);
}
);
width = 568;
}
);
unicode = 0078;
},
{
glyphname = y;
lastChange = "2016-10-15 17:21:52 +0000";
layers = (
{
layerId = UUID0;
paths = (
{
closed = 1;
nodes = (
"375 484 LINE",
"276 142 LINE",
"167 484 LINE",
"8 484 LINE",
"201 4 LINE",
"113 -208 LINE",
"261 -208 LINE",
"526 484 LINE"
);
}
);
width = 534;
}
);
unicode = 0079;
},
{
glyphname = z;
lastChange = "2016-10-15 17:21:52 +0000";
layers = (
{
layerId = UUID0;
paths = (
{
closed = 1;
nodes = (
"476 95 LINE",
"226 95 LINE",
"470 406 LINE",
"470 484 LINE",
"50 484 LINE",
"50 389 LINE",
"284 389 LINE",
"40 78 LINE",
"40 0 LINE",
"476 0 LINE"
);
}
);
width = 512;
}
);
unicode = 007A;
},
{
glyphname = braceleft;
lastChange = "2016-10-15 17:21:52 +0000";
layers = (
{
layerId = UUID0;
paths = (
{
closed = 1;
nodes = (
"364 -103 LINE",
"304 -103 LINE SMOOTH",
"271 -103 OFFCURVE",
"243 -79 OFFCURVE",
"243 -38 CURVE SMOOTH",
"243 157 LINE SMOOTH",
"243 240 OFFCURVE",
"225 277 OFFCURVE",
"164 297 CURVE",
"164 301 LINE",
"225 322 OFFCURVE",
"243 360 OFFCURVE",
"243 441 CURVE SMOOTH",
"243 584 LINE SMOOTH",
"243 625 OFFCURVE",
"271 649 OFFCURVE",
"304 649 CURVE SMOOTH",
"364 649 LINE",
"364 736 LINE",
"261 736 LINE SMOOTH",
"218 736 OFFCURVE",
"188 730 OFFCURVE",
"153 707 CURVE SMOOTH",
"120 684 OFFCURVE",
"100 636 OFFCURVE",
"100 564 CURVE SMOOTH",
"100 426 LINE SMOOTH",
"100 389 OFFCURVE",
"97 366 OFFCURVE",
"90 357 CURVE SMOOTH",
"83 349 OFFCURVE",
"64 345 OFFCURVE",
"31 345 CURVE SMOOTH",
"8 345 LINE",
"8 253 LINE",
"31 253 LINE SMOOTH",
"64 253 OFFCURVE",
"83 249 OFFCURVE",
"90 240 CURVE SMOOTH",
"97 232 OFFCURVE",
"100 209 OFFCURVE",
"100 172 CURVE SMOOTH",
"100 -18 LINE SMOOTH",
"100 -90 OFFCURVE",
"120 -138 OFFCURVE",
"153 -161 CURVE SMOOTH",
"188 -184 OFFCURVE",
"218 -190 OFFCURVE",
"261 -190 CURVE SMOOTH",
"364 -190 LINE"
);
}
);
width = 384;
}
);
unicode = 007B;
},
{
glyphname = bar;
lastChange = "2016-10-15 17:21:52 +0000";
layers = (
{
layerId = UUID0;
paths = (
{
closed = 1;
nodes = (
"161 659 LINE",
"104 659 LINE",
"104 -10 LINE",
"161 -10 LINE"
);
}
);
width = 265;
}
);
unicode = 007C;
},
{
glyphname = braceright;
lastChange = "2016-10-15 17:21:52 +0000";
layers = (
{
layerId = UUID0;
paths = (
{
closed = 1;
nodes = (
"376 345 LINE",
"353 345 LINE SMOOTH",
"320 345 OFFCURVE",
"301 349 OFFCURVE",
"294 357 CURVE SMOOTH",
"287 366 OFFCURVE",
"284 389 OFFCURVE",
"284 426 CURVE SMOOTH",
"284 564 LINE SMOOTH",
"284 636 OFFCURVE",
"265 684 OFFCURVE",
"230 707 CURVE SMOOTH",
"197 730 OFFCURVE",
"166 736 OFFCURVE",
"123 736 CURVE SMOOTH",
"20 736 LINE",
"20 649 LINE",
"80 649 LINE SMOOTH",
"113 649 OFFCURVE",
"141 625 OFFCURVE",
"141 584 CURVE SMOOTH",
"141 441 LINE SMOOTH",
"141 360 OFFCURVE",
"159 322 OFFCURVE",
"220 301 CURVE",
"220 297 LINE",
"159 277 OFFCURVE",
"141 240 OFFCURVE",
"141 157 CURVE SMOOTH",
"141 -38 LINE SMOOTH",
"141 -79 OFFCURVE",
"113 -103 OFFCURVE",
"80 -103 CURVE SMOOTH",
"20 -103 LINE",
"20 -190 LINE",
"123 -190 LINE SMOOTH",
"166 -190 OFFCURVE",
"197 -184 OFFCURVE",
"230 -161 CURVE SMOOTH",
"265 -138 OFFCURVE",
"284 -90 OFFCURVE",
"284 -18 CURVE SMOOTH",
"284 172 LINE SMOOTH",
"284 209 OFFCURVE",
"287 232 OFFCURVE",
"294 240 CURVE SMOOTH",
"301 249 OFFCURVE",
"320 253 OFFCURVE",
"353 253 CURVE SMOOTH",
"376 253 LINE"
);
}
);
width = 384;
}
);
unicode = 007D;
},
{
glyphname = asciitilde;
lastChange = "2016-10-15 17:21:52 +0000";
layers = (
{
layerId = UUID0;
paths = (
{
closed = 1;
nodes = (
"133 371 OFFCURVE",
"93 356 OFFCURVE",
"68 326 CURVE",
"68 225 LINE",
"96 268 OFFCURVE",
"130 286 OFFCURVE",
"186 286 CURVE SMOOTH",
"206 286 OFFCURVE",
"239 276 OFFCURVE",
"286 256 CURVE SMOOTH",
"333 237 OFFCURVE",
"368 227 OFFCURVE",
"389 227 CURVE SMOOTH",
"447 227 OFFCURVE",
"488 242 OFFCURVE",
"512 273 CURVE",
"512 374 LINE",
"487 333 OFFCURVE",
"447 312 OFFCURVE",
"393 312 CURVE SMOOTH",
"377 312 OFFCURVE",
"345 322 OFFCURVE",
"298 341 CURVE SMOOTH",
"251 361 OFFCURVE",
"215 371 OFFCURVE",
"190 371 CURVE SMOOTH"
);
}
);
width = 580;
}
);
unicode = 007E;
},
{
glyphname = exclamdown;
lastChange = "2016-10-15 17:21:52 +0000";
layers = (
{
layerId = UUID0;
paths = (
{
closed = 1;
nodes = (
"103 296 LINE",
"60 -165 LINE",
"235 -165 LINE",
"192 296 LINE"
);
},
{
closed = 1;
nodes = (
"70 346 LINE",
"226 346 LINE",
"226 484 LINE",
"70 484 LINE"
);
}
);
width = 295;
}
);
unicode = 00A1;
},
{
glyphname = cent;
lastChange = "2016-10-15 17:21:52 +0000";
layers = (
{
layerId = UUID0;
paths = (
{
closed = 1;
nodes = (
"446 188 LINE",
"377 173 OFFCURVE",
"323 166 OFFCURVE",
"282 166 CURVE SMOOTH",
"240 166 OFFCURVE",
"212 169 OFFCURVE",
"199 174 CURVE SMOOTH",
"186 180 OFFCURVE",
"180 195 OFFCURVE",
"180 218 CURVE SMOOTH",
"180 426 LINE SMOOTH",
"180 453 OFFCURVE",
"185 470 OFFCURVE",
"196 476 CURVE SMOOTH",
"207 483 OFFCURVE",
"233 486 OFFCURVE",
"272 486 CURVE SMOOTH",
"314 486 OFFCURVE",
"370 478 OFFCURVE",
"439 462 CURVE",
"439 559 LINE",
"392 568 OFFCURVE",
"355 573 OFFCURVE",
"326 575 CURVE",
"326 659 LINE",
"244 659 LINE",
"244 577 LINE",
"181 576 OFFCURVE",
"142 569 OFFCURVE",
"98 545 CURVE SMOOTH",
"54 522 OFFCURVE",
"32 474 OFFCURVE",
"32 401 CURVE SMOOTH",
"32 240 LINE SMOOTH",
"32 151 OFFCURVE",
"69 108 OFFCURVE",
"124 90 CURVE SMOOTH",
"164 77 OFFCURVE",
"195 74 OFFCURVE",
"244 73 CURVE",
"244 -10 LINE",
"326 -10 LINE",
"326 75 LINE",
"367 78 OFFCURVE",
"407 83 OFFCURVE",
"446 90 CURVE"
);
}
);
width = 464;
}
);
unicode = 00A2;
},
{
glyphname = sterling;
lastChange = "2016-10-15 17:21:52 +0000";
layers = (
{
layerId = UUID0;
paths = (
{
closed = 1;
nodes = (
"538 111 LINE",
"289 111 LINE",
"289 283 LINE",
"460 283 LINE",
"460 385 LINE",
"289 385 LINE",
"289 475 LINE SMOOTH",
"289 514 OFFCURVE",
"294 537 OFFCURVE",
"305 546 CURVE SMOOTH",
"316 555 OFFCURVE",
"346 559 OFFCURVE",
"395 559 CURVE SMOOTH",
"420 559 OFFCURVE",
"451 556 OFFCURVE",
"490 550 CURVE",
"490 651 LINE",
"445 656 OFFCURVE",
"406 659 OFFCURVE",
"371 659 CURVE SMOOTH",
"294 659 OFFCURVE",
"247 651 OFFCURVE",
"204 623 CURVE SMOOTH",
"163 595 OFFCURVE",
"143 543 OFFCURVE",
"143 460 CURVE SMOOTH",
"143 385 LINE",
"42 385 LINE",
"42 283 LINE",
"143 283 LINE",
"143 111 LINE",
"42 111 LINE",
"42 0 LINE",
"538 0 LINE"
);
}
);
width = 580;
}
);
unicode = 00A3;
},
{
glyphname = currency;
lastChange = "2016-10-15 17:21:52 +0000";
layers = (
{
layerId = UUID0;
paths = (
{
closed = 1;
nodes = (
"447 176 LINE",
"530 279 OFFCURVE",
"530 399 OFFCURVE",
"447 502 CURVE",
"501 556 LINE",
"475 582 LINE",
"421 528 LINE",
"372 566 OFFCURVE",
"318 585 OFFCURVE",
"258 585 CURVE SMOOTH",
"203 585 OFFCURVE",
"151 565 OFFCURVE",
"100 526 CURVE",
"46 580 LINE",
"20 554 LINE",
"74 500 LINE",
"-9 397 OFFCURVE",
"-9 277 OFFCURVE",
"74 174 CURVE",
"20 120 LINE",
"46 94 LINE",
"100 148 LINE",
"151 109 OFFCURVE",
"203 89 OFFCURVE",
"258 89 CURVE SMOOTH",
"315 89 OFFCURVE",
"369 109 OFFCURVE",
"421 150 CURVE",
"475 96 LINE",
"501 122 LINE"
);
},
{
closed = 1;
nodes = (
"469 282 OFFCURVE",
"449 232 OFFCURVE",
"408 191 CURVE SMOOTH",
"368 150 OFFCURVE",
"319 129 OFFCURVE",
"262 129 CURVE SMOOTH",
"204 129 OFFCURVE",
"154 149 OFFCURVE",
"113 189 CURVE SMOOTH",
"72 230 OFFCURVE",
"52 279 OFFCURVE",
"52 337 CURVE SMOOTH",
"52 396 OFFCURVE",
"72 446 OFFCURVE",
"113 485 CURVE SMOOTH",
"154 525 OFFCURVE",
"204 545 OFFCURVE",
"263 545 CURVE SMOOTH",
"320 545 OFFCURVE",
"368 525 OFFCURVE",
"408 484 CURVE SMOOTH",
"449 443 OFFCURVE",
"469 395 OFFCURVE",
"469 339 CURVE SMOOTH"
);
}
);
width = 520;
}
);
unicode = 00A4;
},
{
glyphname = yen;
lastChange = "2016-10-15 17:21:52 +0000";
layers = (
{
layerId = UUID0;
paths = (
{
closed = 1;
nodes = (
"460 649 LINE",
"324 395 LINE",
"187 649 LINE",
"10 649 LINE",
"185 364 LINE",
"55 364 LINE",
"55 263 LINE",
"247 263 LINE",
"247 196 LINE",
"55 196 LINE",
"55 95 LINE",
"247 95 LINE",
"247 0 LINE",
"400 0 LINE",
"400 95 LINE",
"593 95 LINE",
"593 196 LINE",
"400 196 LINE",
"400 263 LINE",
"593 263 LINE",
"593 364 LINE",
"461 364 LINE",
"638 649 LINE"
);
}
);
width = 647;
}
);
unicode = 00A5;
},
{
glyphname = brokenbar;
lastChange = "2016-10-15 17:21:52 +0000";
layers = (
{
layerId = UUID0;
paths = (
{
closed = 1;
nodes = (
"160 649 LINE",
"105 649 LINE",
"105 298 LINE",
"160 298 LINE"
);
},
{
closed = 1;
nodes = (
"160 161 LINE",
"105 161 LINE",
"105 -190 LINE",
"160 -190 LINE"
);
}
);
width = 265;
}
);
unicode = 00A6;
},
{
glyphname = section;
lastChange = "2016-10-15 17:21:52 +0000";
layers = (
{
layerId = UUID0;
paths = (
{
closed = 1;
nodes = (
"542 316 LINE",
"542 404 OFFCURVE",
"477 449 OFFCURVE",
"360 449 CURVE SMOOTH",
"265 449 LINE SMOOTH",
"224 449 OFFCURVE",
"203 459 OFFCURVE",
"203 478 CURVE SMOOTH",
"203 529 LINE SMOOTH",
"203 541 OFFCURVE",
"202 546 OFFCURVE",
"235 554 CURVE SMOOTH",
"252 558 OFFCURVE",
"276 560 OFFCURVE",
"308 560 CURVE SMOOTH",
"327 560 OFFCURVE",
"390 556 OFFCURVE",
"497 548 CURVE",
"497 650 LINE",
"389 656 OFFCURVE",
"327 659 OFFCURVE",
"312 659 CURVE SMOOTH",
"148 659 OFFCURVE",
"58 626 OFFCURVE",
"58 537 CURVE SMOOTH",
"58 471 LINE SMOOTH",
"58 444 OFFCURVE",
"79 413 OFFCURVE",
"104 400 CURVE",
"69 388 OFFCURVE",
"38 350 OFFCURVE",
"38 317 CURVE SMOOTH",
"38 237 LINE SMOOTH",
"38 153 OFFCURVE",
"112 111 OFFCURVE",
"229 111 CURVE SMOOTH",
"316 111 LINE SMOOTH",
"375 111 OFFCURVE",
"377 88 OFFCURVE",
"377 74 CURVE SMOOTH",
"377 26 LINE SMOOTH",
"377 9 OFFCURVE",
"367 -3 OFFCURVE",
"344 -7 CURVE SMOOTH",
"321 -12 OFFCURVE",
"306 -13 OFFCURVE",
"274 -13 CURVE SMOOTH",
"218 -13 OFFCURVE",
"149 -6 OFFCURVE",
"68 8 CURVE",
"68 -101 LINE",
"149 -110 OFFCURVE",
"217 -115 OFFCURVE",
"272 -115 CURVE SMOOTH",
"343 -115 OFFCURVE",
"388 -111 OFFCURVE",
"440 -92 CURVE",
"493 -75 OFFCURVE",
"522 -33 OFFCURVE",
"522 30 CURVE SMOOTH",
"522 92 LINE SMOOTH",
"522 121 OFFCURVE",
"503 153 OFFCURVE",
"475 161 CURVE",
"508 173 OFFCURVE",
"542 221 OFFCURVE",
"542 269 CURVE SMOOTH"
);
},
{
closed = 1;
nodes = (
"397 245 LINE",
"397 224 OFFCURVE",
"389 216 OFFCURVE",
"342 216 CURVE SMOOTH",
"238 216 LINE SMOOTH",
"201 216 OFFCURVE",
"183 222 OFFCURVE",
"183 235 CURVE SMOOTH",
"183 319 LINE SMOOTH",
"183 336 OFFCURVE",
"194 345 OFFCURVE",
"217 345 CURVE SMOOTH",
"326 345 LINE SMOOTH",
"373 345 OFFCURVE",
"397 336 OFFCURVE",
"397 317 CURVE SMOOTH"
);
}
);
width = 580;
}
);
unicode = 00A7;
},
{
glyphname = dieresis;
lastChange = "2016-10-15 17:21:52 +0000";
layers = (
{
layerId = UUID0;
paths = (
{
closed = 1;
nodes = (
"358 683 LINE",
"232 683 LINE",
"232 565 LINE",
"358 565 LINE"
);
},
{
closed = 1;
nodes = (
"168 683 LINE",
"42 683 LINE",
"42 565 LINE",
"168 565 LINE"
);
}
);
width = 400;
}
);
unicode = 00A8;
},
{
glyphname = copyright;
lastChange = "2016-10-15 17:21:52 +0000";
layers = (
{
layerId = UUID0;
paths = (
{
closed = 1;
nodes = (
"727 474 LINE",
"725 570 OFFCURVE",
"652 619 OFFCURVE",
"560 640 CURVE",
"496 656 OFFCURVE",
"447 659 OFFCURVE",
"392 659 CURVE SMOOTH",
"334 658 OFFCURVE",
"253 654 OFFCURVE",
"178 626 CURVE SMOOTH",
"108 599 OFFCURVE",
"50 555 OFFCURVE",
"50 473 CURVE SMOOTH",
"50 166 LINE SMOOTH",
"50 76 OFFCURVE",
"129 30 OFFCURVE",
"221 8 CURVE SMOOTH",
"286 -7 OFFCURVE",
"337 -10 OFFCURVE",
"392 -10 CURVE SMOOTH",
"445 -10 OFFCURVE",
"496 -7 OFFCURVE",
"559 9 CURVE SMOOTH",
"591 17 OFFCURVE",
"619 27 OFFCURVE",
"643 39 CURVE SMOOTH",
"691 63 OFFCURVE",
"727 109 OFFCURVE",
"727 166 CURVE SMOOTH"
);
},
{
closed = 1;
nodes = (
"618 174 LINE",
"614 115 OFFCURVE",
"569 89 OFFCURVE",
"504 79 CURVE SMOOTH",
"457 72 OFFCURVE",
"435 72 OFFCURVE",
"394 72 CURVE SMOOTH",
"237 72 OFFCURVE",
"158 106 OFFCURVE",
"158 174 CURVE SMOOTH",
"158 471 LINE SMOOTH",
"158 544 OFFCURVE",
"236 581 OFFCURVE",
"393 581 CURVE SMOOTH",
"543 581 OFFCURVE",
"618 544 OFFCURVE",
"618 471 CURVE SMOOTH"
);
},
{
closed = 1;
nodes = (
"438 291 LINE",
"438 271 LINE SMOOTH",
"438 231 OFFCURVE",
"433 228 OFFCURVE",
"389 228 CURVE SMOOTH",
"348 228 OFFCURVE",
"341 234 OFFCURVE",
"341 281 CURVE SMOOTH",
"341 381 LINE SMOOTH",
"341 425 OFFCURVE",
"353 434 OFFCURVE",
"389 434 CURVE SMOOTH",
"433 434 OFFCURVE",
"438 428 OFFCURVE",
"438 391 CURVE SMOOTH",
"438 372 LINE",
"541 372 LINE",
"541 399 LINE SMOOTH",
"541 476 OFFCURVE",
"504 510 OFFCURVE",
"392 510 CURVE SMOOTH",
"280 510 OFFCURVE",
"233 470 OFFCURVE",
"233 389 CURVE SMOOTH",
"233 273 LINE SMOOTH",
"233 226 OFFCURVE",
"245 194 OFFCURVE",
"268 177 CURVE SMOOTH",
"291 160 OFFCURVE",
"333 152 OFFCURVE",
"392 152 CURVE SMOOTH",
"508 152 OFFCURVE",
"541 187 OFFCURVE",
"541 263 CURVE SMOOTH",
"541 291 LINE"
);
}
);
width = 777;
}
);
unicode = 00A9;
},
{
glyphname = ordfeminine;
lastChange = "2016-10-15 17:21:52 +0000";
layers = (
{
layerId = UUID0;
paths = (
{
closed = 1;
nodes = (
"288 578 LINE",
"288 638 OFFCURVE",
"256 659 OFFCURVE",
"173 659 CURVE SMOOTH",
"151 659 OFFCURVE",
"112 658 OFFCURVE",
"56 655 CURVE",
"56 609 LINE",
"166 613 LINE",
"195 613 OFFCURVE",
"204 608 OFFCURVE",
"204 592 CURVE SMOOTH",
"204 561 LINE",
"122 561 LINE SMOOTH",
"63 561 OFFCURVE",
"37 540 OFFCURVE",
"37 484 CURVE SMOOTH",
"37 423 OFFCURVE",
"61 407 OFFCURVE",
"128 407 CURVE SMOOTH",
"180 407 OFFCURVE",
"194 414 OFFCURVE",
"206 434 CURVE",
"206 412 LINE",
"288 412 LINE"
);
},
{
closed = 1;
nodes = (
"204 469 LINE",
"204 449 OFFCURVE",
"194 448 OFFCURVE",
"157 448 CURVE SMOOTH",
"122 448 OFFCURVE",
"118 451 OFFCURVE",
"118 483 CURVE SMOOTH",
"118 515 OFFCURVE",
"123 521 OFFCURVE",
"154 521 CURVE SMOOTH",
"204 521 LINE"
);
}
);
width = 327;
}
);
unicode = 00AA;
},
{
glyphname = guillemotleft;
lastChange = "2016-10-15 17:21:52 +0000";
layers = (
{
layerId = UUID0;
paths = (
{
closed = 1;
nodes = (
"174 262 LINE",
"266 454 LINE",
"140 454 LINE",
"40 262 LINE",
"140 70 LINE",
"266 70 LINE"
);
},
{
closed = 1;
nodes = (
"394 262 LINE",
"486 454 LINE",
"360 454 LINE",
"260 262 LINE",
"360 70 LINE",
"486 70 LINE"
);
}
);
width = 526;
}
);
unicode = 00AB;
},
{
glyphname = logicalnot;
lastChange = "2016-10-15 17:21:52 +0000";
layers = (
{
layerId = UUID0;
paths = (
{
closed = 1;
nodes = (
"70 264 LINE",
"409 264 LINE",
"409 84 LINE",
"510 84 LINE",
"510 365 LINE",
"70 365 LINE"
);
}
);
width = 580;
}
);
unicode = 00AC;
},
{
glyphname = registered;
lastChange = "2016-10-15 17:21:52 +0000";
layers = (
{
layerId = UUID0;
paths = (
{
closed = 1;
nodes = (
"727 474 LINE",
"725 570 OFFCURVE",
"652 619 OFFCURVE",
"560 640 CURVE",
"496 656 OFFCURVE",
"447 659 OFFCURVE",
"392 659 CURVE SMOOTH",
"334 658 OFFCURVE",
"253 654 OFFCURVE",
"178 626 CURVE SMOOTH",
"108 599 OFFCURVE",
"50 555 OFFCURVE",
"50 473 CURVE SMOOTH",
"50 166 LINE SMOOTH",
"50 76 OFFCURVE",
"129 30 OFFCURVE",
"221 8 CURVE SMOOTH",
"286 -7 OFFCURVE",
"337 -10 OFFCURVE",
"392 -10 CURVE SMOOTH",
"445 -10 OFFCURVE",
"496 -7 OFFCURVE",
"559 9 CURVE SMOOTH",
"591 17 OFFCURVE",
"619 27 OFFCURVE",
"643 39 CURVE SMOOTH",
"691 63 OFFCURVE",
"727 109 OFFCURVE",
"727 166 CURVE SMOOTH"
);
},
{
closed = 1;
nodes = (
"618 174 LINE",
"614 115 OFFCURVE",
"569 89 OFFCURVE",
"504 79 CURVE SMOOTH",
"457 72 OFFCURVE",
"435 72 OFFCURVE",
"394 72 CURVE SMOOTH",
"237 72 OFFCURVE",
"158 106 OFFCURVE",
"158 174 CURVE SMOOTH",
"158 471 LINE SMOOTH",
"158 544 OFFCURVE",
"236 581 OFFCURVE",
"393 581 CURVE SMOOTH",
"543 581 OFFCURVE",
"618 544 OFFCURVE",
"618 471 CURVE SMOOTH"
);
},
{
closed = 1;
nodes = (
"464 293 LINE",
"512 305 OFFCURVE",
"535 321 OFFCURVE",
"535 368 CURVE SMOOTH",
"535 433 LINE SMOOTH",
"535 492 OFFCURVE",
"505 509 OFFCURVE",
"398 509 CURVE SMOOTH",
"251 509 LINE",
"251 140 LINE",
"349 140 LINE",
"349 286 LINE",
"371 286 LINE",
"443 140 LINE",
"549 140 LINE"
);
},
{
closed = 1;
nodes = (
"437 383 LINE",
"437 350 OFFCURVE",
"432 344 OFFCURVE",
"396 344 CURVE SMOOTH",
"349 344 LINE",
"349 451 LINE",
"401 451 LINE SMOOTH",
"429 451 OFFCURVE",
"437 445 OFFCURVE",
"437 417 CURVE SMOOTH"
);
}
);
width = 777;
}
);
unicode = 00AE;
},
{
glyphname = overscore;
lastChange = "2016-10-15 17:21:52 +0000";
layers = (
{
layerId = UUID0;
paths = (
{
closed = 1;
nodes = (
"339 649 LINE",
"61 649 LINE",
"61 560 LINE",
"339 560 LINE"
);
}
);
width = 400;
}
);
unicode = 00AF;
},
{
glyphname = degree;
lastChange = "2016-10-15 17:21:52 +0000";
layers = (
{
layerId = UUID0;
paths = (
{
closed = 1;
nodes = (
"414 543 LINE",
"409 613 OFFCURVE",
"380 643 OFFCURVE",
"325 653 CURVE SMOOTH",
"305 657 OFFCURVE",
"289 659 OFFCURVE",
"277 660 CURVE SMOOTH",
"265 661 OFFCURVE",
"248 661 OFFCURVE",
"227 661 CURVE SMOOTH",
"206 661 OFFCURVE",
"189 661 OFFCURVE",
"177 660 CURVE SMOOTH",
"165 659 OFFCURVE",
"149 657 OFFCURVE",
"129 653 CURVE SMOOTH",
"109 649 OFFCURVE",
"93 643 OFFCURVE",
"82 635 CURVE SMOOTH",
"61 620 OFFCURVE",
"40 588 OFFCURVE",
"40 543 CURVE SMOOTH",
"40 434 LINE SMOOTH",
"40 385 OFFCURVE",
"60 353 OFFCURVE",
"97 338 CURVE SMOOTH",
"136 323 OFFCURVE",
"171 319 OFFCURVE",
"227 319 CURVE SMOOTH",
"283 319 OFFCURVE",
"319 323 OFFCURVE",
"356 338 CURVE SMOOTH",
"395 353 OFFCURVE",
"414 385 OFFCURVE",
"414 434 CURVE SMOOTH"
);
},
{
closed = 1;
nodes = (
"303 434 LINE",
"303 405 OFFCURVE",
"287 395 OFFCURVE",
"227 395 CURVE SMOOTH",
"167 395 OFFCURVE",
"151 405 OFFCURVE",
"151 434 CURVE SMOOTH",
"151 541 LINE SMOOTH",
"151 577 OFFCURVE",
"166 585 OFFCURVE",
"227 585 CURVE SMOOTH",
"288 585 OFFCURVE",
"303 577 OFFCURVE",
"303 541 CURVE SMOOTH"
);
}
);
width = 454;
}
);
unicode = 00B0;
},
{
glyphname = plusminus;
lastChange = "2016-10-15 17:21:52 +0000";
layers = (
{
layerId = UUID0;
paths = (
{
closed = 1;
nodes = (
"510 101 LINE",
"70 101 LINE",
"70 0 LINE",
"510 0 LINE"
);
},
{
closed = 1;
nodes = (
"239 544 LINE",
"239 365 LINE",
"70 365 LINE",
"70 264 LINE",
"239 264 LINE",
"239 134 LINE",
"340 134 LINE",
"340 264 LINE",
"510 264 LINE",
"510 365 LINE",
"340 365 LINE",
"340 544 LINE"
);
}
);
width = 580;
}
);
unicode = 00B1;
},
{
glyphname = twosuperior;
lastChange = "2016-10-15 17:21:52 +0000";
layers = (
{
layerId = UUID0;
paths = (
{
closed = 1;
nodes = (
"340 353 LINE",
"144 353 LINE",
"144 358 LINE SMOOTH",
"144 383 OFFCURVE",
"193 402 OFFCURVE",
"241 414 CURVE SMOOTH",
"290 426 OFFCURVE",
"339 462 OFFCURVE",
"339 515 CURVE SMOOTH",
"339 557 LINE SMOOTH",
"339 629 OFFCURVE",
"285 655 OFFCURVE",
"180 655 CURVE SMOOTH",
"137 655 OFFCURVE",
"88 651 OFFCURVE",
"35 642 CURVE",
"35 560 LINE",
"101 571 OFFCURVE",
"143 577 OFFCURVE",
"162 577 CURVE SMOOTH",
"199 577 OFFCURVE",
"217 570 OFFCURVE",
"217 556 CURVE SMOOTH",
"217 518 LINE SMOOTH",
"217 468 OFFCURVE",
"27 480 OFFCURVE",
"27 361 CURVE SMOOTH",
"27 273 LINE",
"340 273 LINE"
);
}
);
width = 378;
}
);
unicode = 00B2;
},
{
glyphname = threesuperior;
lastChange = "2016-10-15 17:21:52 +0000";
layers = (
{
layerId = UUID0;
paths = (
{
closed = 1;
nodes = (
"333 419 LINE",
"333 444 OFFCURVE",
"319 463 OFFCURVE",
"291 476 CURVE",
"308 489 OFFCURVE",
"317 503 OFFCURVE",
"317 520 CURVE SMOOTH",
"317 573 LINE SMOOTH",
"317 637 OFFCURVE",
"267 655 OFFCURVE",
"158 655 CURVE SMOOTH",
"122 655 OFFCURVE",
"91 654 OFFCURVE",
"66 652 CURVE SMOOTH",
"24 650 LINE",
"24 572 LINE",
"77 577 OFFCURVE",
"119 580 OFFCURVE",
"149 580 CURVE SMOOTH",
"188 580 OFFCURVE",
"196 574 OFFCURVE",
"196 557 CURVE SMOOTH",
"196 529 LINE SMOOTH",
"196 512 OFFCURVE",
"184 504 OFFCURVE",
"160 504 CURVE SMOOTH",
"73 504 LINE",
"73 429 LINE",
"160 429 LINE SMOOTH",
"194 429 OFFCURVE",
"211 423 OFFCURVE",
"211 411 CURVE SMOOTH",
"211 377 LINE SMOOTH",
"211 353 OFFCURVE",
"198 347 OFFCURVE",
"159 347 CURVE SMOOTH",
"131 347 OFFCURVE",
"95 351 OFFCURVE",
"52 360 CURVE SMOOTH",
"22 366 LINE",
"22 278 LINE",
"25 278 OFFCURVE",
"46 276 OFFCURVE",
"51 276 CURVE",
"88 271 OFFCURVE",
"128 269 OFFCURVE",
"171 269 CURVE SMOOTH",
"282 269 OFFCURVE",
"333 296 OFFCURVE",
"333 368 CURVE SMOOTH",
"333 419 LINE"
);
}
);
width = 378;
}
);
unicode = 00B3;
},
{
glyphname = acute;
lastChange = "2016-10-15 17:21:52 +0000";
layers = (
{
layerId = UUID0;
paths = (
{
closed = 1;
nodes = (
"165 680 LINE",
"75 553 LINE",
"199 553 LINE",
"324 680 LINE"
);
}
);
width = 400;
}
);
unicode = 00B4;
},
{
glyphname = mu;
lastChange = "2016-10-15 17:21:52 +0000";
layers = (
{
layerId = UUID0;
paths = (
{
closed = 1;
nodes = (
"531 484 LINE",
"385 484 LINE",
"385 149 LINE SMOOTH",
"385 122 OFFCURVE",
"379 103 OFFCURVE",
"368 94 CURVE SMOOTH",
"357 85 OFFCURVE",
"330 81 OFFCURVE",
"288 81 CURVE SMOOTH",
"254 81 OFFCURVE",
"232 86 OFFCURVE",
"223 95 CURVE SMOOTH",
"214 104 OFFCURVE",
"210 122 OFFCURVE",
"210 149 CURVE SMOOTH",
"210 484 LINE",
"64 484 LINE",
"64 -208 LINE",
"210 -208 LINE",
"210 -8 LINE",
"219 -9 OFFCURVE",
"227 -10 OFFCURVE",
"232 -10 CURVE SMOOTH",
"324 -10 OFFCURVE",
"376 13 OFFCURVE",
"387 59 CURVE",
"387 0 LINE",
"531 0 LINE"
);
}
);
width = 595;
}
);
unicode = 00B5;
},
{
glyphname = paragraph;
lastChange = "2016-10-15 17:21:52 +0000";
layers = (
{
layerId = UUID0;
paths = (
{
closed = 1;
nodes = (
"419 649 LINE",
"147 649 LINE SMOOTH",
"106 649 OFFCURVE",
"77 639 OFFCURVE",
"62 618 CURVE SMOOTH",
"47 597 OFFCURVE",
"40 558 OFFCURVE",
"40 501 CURVE SMOOTH",
"40 438 OFFCURVE",
"50 398 OFFCURVE",
"69 379 CURVE",
"89 361 OFFCURVE",
"132 352 OFFCURVE",
"199 352 CURVE",
"199 0 LINE",
"252 0 LINE",
"252 606 LINE",
"322 606 LINE",
"322 0 LINE",
"375 0 LINE",
"375 579 LINE SMOOTH",
"375 593 OFFCURVE",
"382 605 OFFCURVE",
"396 616 CURVE SMOOTH",
"419 633 LINE"
);
}
);
width = 459;
}
);
unicode = 00B6;
},
{
glyphname = middot;
lastChange = "2016-10-15 17:21:52 +0000";
layers = (
{
layerId = UUID0;
paths = (
{
closed = 1;
nodes = (
"197 400 LINE",
"50 400 LINE",
"50 262 LINE",
"197 262 LINE"
);
}
);
width = 256;
}
);
unicode = 00B7;
},
{
glyphname = cedilla;
lastChange = "2016-10-15 17:21:52 +0000";
layers = (
{
layerId = UUID0;
paths = (
{
closed = 1;
nodes = (
"102 0 LINE",
"101 -3 OFFCURVE",
"90 -19 OFFCURVE",
"70 -48 CURVE SMOOTH",
"50 -77 OFFCURVE",
"39 -93 OFFCURVE",
"38 -96 CURVE",
"78 -96 LINE SMOOTH",
"128 -96 OFFCURVE",
"153 -109 OFFCURVE",
"153 -134 CURVE SMOOTH",
"153 -157 OFFCURVE",
"137 -169 OFFCURVE",
"106 -169 CURVE SMOOTH",
"85 -169 OFFCURVE",
"64 -163 OFFCURVE",
"44 -151 CURVE",
"22 -197 LINE",
"45 -212 OFFCURVE",
"75 -220 OFFCURVE",
"113 -220 CURVE SMOOTH",
"144 -220 OFFCURVE",
"172 -212 OFFCURVE",
"196 -197 CURVE SMOOTH",
"221 -182 OFFCURVE",
"233 -159 OFFCURVE",
"233 -129 CURVE SMOOTH",
"233 -77 OFFCURVE",
"191 -54 OFFCURVE",
"136 -50 CURVE",
"172 0 LINE",
"102 0 LINE"
);
}
);
width = 251;
}
);
unicode = 00B8;
},
{
glyphname = onesuperior;
lastChange = "2016-10-15 17:21:52 +0000";
layers = (
{
layerId = UUID0;
paths = (
{
closed = 1;
nodes = (
"272 649 LINE",
"179 649 LINE",
"42 571 LINE",
"42 479 LINE",
"153 536 LINE",
"153 273 LINE",
"272 273 LINE"
);
}
);
width = 378;
}
);
unicode = 00B9;
},
{
glyphname = ordmasculine;
lastChange = "2016-10-15 17:21:52 +0000";
layers = (
{
layerId = UUID0;
paths = (
{
closed = 1;
nodes = (
"308 566 LINE",
"308 607 OFFCURVE",
"292 634 OFFCURVE",
"261 645 CURVE",
"232 657 OFFCURVE",
"209 659 OFFCURVE",
"174 659 CURVE SMOOTH",
"139 659 OFFCURVE",
"117 657 OFFCURVE",
"86 645 CURVE SMOOTH",
"57 634 OFFCURVE",
"40 607 OFFCURVE",
"40 566 CURVE SMOOTH",
"40 495 LINE SMOOTH",
"40 456 OFFCURVE",
"57 431 OFFCURVE",
"86 420 CURVE SMOOTH",
"115 409 OFFCURVE",
"138 407 OFFCURVE",
"174 407 CURVE SMOOTH",
"210 407 OFFCURVE",
"233 409 OFFCURVE",
"262 420 CURVE SMOOTH",
"291 431 OFFCURVE",
"308 456 OFFCURVE",
"308 495 CURVE SMOOTH"
);
},
{
closed = 1;
nodes = (
"224 483 LINE",
"224 458 OFFCURVE",
"215 451 OFFCURVE",
"174 451 CURVE SMOOTH",
"133 451 OFFCURVE",
"124 458 OFFCURVE",
"124 483 CURVE SMOOTH",
"124 580 LINE SMOOTH",
"124 607 OFFCURVE",
"134 616 OFFCURVE",
"174 616 CURVE SMOOTH",
"214 616 OFFCURVE",
"224 607 OFFCURVE",
"224 580 CURVE SMOOTH"
);
}
);
width = 347;
}
);
unicode = 00BA;
},
{
glyphname = guillemotright;
lastChange = "2016-10-15 17:21:52 +0000";
layers = (
{
layerId = UUID0;
paths = (
{
closed = 1;
nodes = (
"166 454 LINE",
"40 454 LINE",
"132 262 LINE",
"40 70 LINE",
"166 70 LINE",
"266 262 LINE"
);
},
{
closed = 1;
nodes = (
"386 454 LINE",
"260 454 LINE",
"352 262 LINE",
"260 70 LINE",
"386 70 LINE",
"486 262 LINE"
);
}
);
width = 526;
}
);
unicode = 00BB;
},
{
glyphname = onequarter;
lastChange = "2016-10-15 17:21:52 +0000";
layers = (
{
layerId = UUID0;
paths = (
{
closed = 1;
nodes = (
"344 649 LINE",
"251 649 LINE",
"114 571 LINE",
"114 479 LINE",
"225 536 LINE",
"225 273 LINE",
"344 273 LINE"
);
},
{
closed = 1;
nodes = (
"333 0 LINE",
"725 649 LINE",
"624 649 LINE",
"232 0 LINE"
);
},
{
closed = 1;
nodes = (
"903 146 LINE",
"860 146 LINE",
"860 376 LINE",
"735 376 LINE",
"562 144 LINE",
"562 68 LINE",
"750 68 LINE",
"750 0 LINE",
"860 0 LINE",
"860 68 LINE",
"903 68 LINE"
);
},
{
closed = 1;
nodes = (
"664 146 LINE",
"750 267 LINE",
"750 146 LINE"
);
}
);
width = 956;
}
);
unicode = 00BC;
},
{
glyphname = onehalf;
lastChange = "2016-10-15 17:21:52 +0000";
layers = (
{
layerId = UUID0;
paths = (
{
closed = 1;
nodes = (
"344 649 LINE",
"251 649 LINE",
"114 571 LINE",
"114 479 LINE",
"225 536 LINE",
"225 273 LINE",
"344 273 LINE"
);
},
{
closed = 1;
nodes = (
"333 0 LINE",
"725 649 LINE",
"624 649 LINE",
"232 0 LINE"
);
},
{
closed = 1;
nodes = (
"894 80 LINE",
"698 80 LINE",
"698 85 LINE SMOOTH",
"698 110 OFFCURVE",
"747 129 OFFCURVE",
"795 141 CURVE SMOOTH",
"844 153 OFFCURVE",
"893 189 OFFCURVE",
"893 242 CURVE SMOOTH",
"893 284 LINE SMOOTH",
"893 356 OFFCURVE",
"839 382 OFFCURVE",
"734 382 CURVE SMOOTH",
"691 382 OFFCURVE",
"642 378 OFFCURVE",
"589 369 CURVE",
"589 287 LINE",
"655 298 OFFCURVE",
"697 304 OFFCURVE",
"716 304 CURVE SMOOTH",
"753 304 OFFCURVE",
"771 297 OFFCURVE",
"771 283 CURVE SMOOTH",
"771 245 LINE SMOOTH",
"771 195 OFFCURVE",
"581 207 OFFCURVE",
"581 88 CURVE SMOOTH",
"581 0 LINE",
"894 0 LINE"
);
}
);
width = 956;
}
);
unicode = 00BD;
},
{
glyphname = threequarters;
lastChange = "2016-10-15 17:21:52 +0000";
layers = (
{
layerId = UUID0;
paths = (
{
closed = 1;
nodes = (
"333 419 LINE",
"333 444 OFFCURVE",
"319 463 OFFCURVE",
"291 476 CURVE",
"308 489 OFFCURVE",
"317 503 OFFCURVE",
"317 520 CURVE SMOOTH",
"317 573 LINE SMOOTH",
"317 637 OFFCURVE",
"267 655 OFFCURVE",
"158 655 CURVE SMOOTH",
"122 655 OFFCURVE",
"91 654 OFFCURVE",
"66 652 CURVE SMOOTH",
"24 650 LINE",
"24 572 LINE",
"77 577 OFFCURVE",
"119 580 OFFCURVE",
"149 580 CURVE SMOOTH",
"188 580 OFFCURVE",
"196 574 OFFCURVE",
"196 557 CURVE SMOOTH",
"196 529 LINE SMOOTH",
"196 512 OFFCURVE",
"184 504 OFFCURVE",
"160 504 CURVE SMOOTH",
"73 504 LINE",
"73 429 LINE",
"160 429 LINE SMOOTH",
"194 429 OFFCURVE",
"211 423 OFFCURVE",
"211 411 CURVE SMOOTH",
"211 377 LINE SMOOTH",
"211 353 OFFCURVE",
"198 347 OFFCURVE",
"159 347 CURVE SMOOTH",
"131 347 OFFCURVE",
"95 351 OFFCURVE",
"52 360 CURVE SMOOTH",
"22 366 LINE",
"22 278 LINE",
"25 278 OFFCURVE",
"46 276 OFFCURVE",
"51 276 CURVE",
"88 271 OFFCURVE",
"128 269 OFFCURVE",
"171 269 CURVE SMOOTH",
"282 269 OFFCURVE",
"333 296 OFFCURVE",
"333 368 CURVE SMOOTH"
);
},
{
closed = 1;
nodes = (
"903 146 LINE",
"860 146 LINE",
"860 376 LINE",
"735 376 LINE",
"562 144 LINE",
"562 68 LINE",
"750 68 LINE",
"750 0 LINE",
"860 0 LINE",
"860 68 LINE",
"903 68 LINE"
);
},
{
closed = 1;
nodes = (
"664 146 LINE",
"750 267 LINE",
"750 146 LINE"
);
},
{
closed = 1;
nodes = (
"333 0 LINE",
"725 649 LINE",
"624 649 LINE",
"232 0 LINE"
);
}
);
width = 956;
}
);
unicode = 00BE;
},
{
glyphname = questiondown;
lastChange = "2016-10-15 17:21:52 +0000";
layers = (
{
layerId = UUID0;
paths = (
{
closed = 1;
nodes = (
"40 -39 LINE",
"40 -110 OFFCURVE",
"72 -146 OFFCURVE",
"128 -161 CURVE SMOOTH",
"169 -173 OFFCURVE",
"208 -175 OFFCURVE",
"271 -175 CURVE SMOOTH",
"331 -175 OFFCURVE",
"404 -170 OFFCURVE",
"489 -159 CURVE",
"489 -50 LINE",
"387 -66 OFFCURVE",
"321 -74 OFFCURVE",
"290 -74 CURVE SMOOTH",
"210 -74 OFFCURVE",
"192 -62 OFFCURVE",
"192 -26 CURVE SMOOTH",
"192 21 LINE SMOOTH",
"192 108 OFFCURVE",
"348 101 OFFCURVE",
"348 238 CURVE SMOOTH",
"348 296 LINE",
"212 296 LINE",
"212 251 LINE SMOOTH",
"212 188 OFFCURVE",
"40 160 OFFCURVE",
"40 57 CURVE SMOOTH"
);
},
{
closed = 1;
nodes = (
"202 346 LINE",
"358 346 LINE",
"358 484 LINE",
"202 484 LINE"
);
}
);
width = 529;
}
);
unicode = 00BF;
},
{
glyphname = Agrave;
lastChange = "2016-10-15 17:21:52 +0000";
layers = (
{
layerId = UUID0;
paths = (
{
closed = 1;
nodes = (
"432 649 LINE",
"242 649 LINE",
"2 0 LINE",
"156 0 LINE",
"213 171 LINE",
"450 171 LINE",
"508 0 LINE",
"666 0 LINE"
);
},
{
closed = 1;
nodes = (
"248 275 LINE",
"330 519 LINE",
"334 519 LINE",
"416 275 LINE"
);
},
{
closed = 1;
nodes = (
"319 820 LINE",
"160 820 LINE",
"285 693 LINE",
"409 693 LINE"
);
}
);
width = 668;
}
);
unicode = 00C0;
},
{
glyphname = Aacute;
lastChange = "2016-10-15 17:21:52 +0000";
layers = (
{
layerId = UUID0;
paths = (
{
closed = 1;
nodes = (
"432 649 LINE",
"242 649 LINE",
"2 0 LINE",
"156 0 LINE",
"213 171 LINE",
"450 171 LINE",
"508 0 LINE",
"666 0 LINE"
);
},
{
closed = 1;
nodes = (
"248 275 LINE",
"330 519 LINE",
"334 519 LINE",
"416 275 LINE"
);
},
{
closed = 1;
nodes = (
"360 830 LINE",
"270 703 LINE",
"394 703 LINE",
"519 830 LINE"
);
}
);
width = 668;
}
);
unicode = 00C1;
},
{
glyphname = Acircumflex;
lastChange = "2016-10-15 17:21:52 +0000";
layers = (
{
layerId = UUID0;
paths = (
{
closed = 1;
nodes = (
"432 649 LINE",
"242 649 LINE",
"2 0 LINE",
"156 0 LINE",
"213 171 LINE",
"450 171 LINE",
"508 0 LINE",
"666 0 LINE"
);
},
{
closed = 1;
nodes = (
"248 275 LINE",
"330 519 LINE",
"334 519 LINE",
"416 275 LINE"
);
},
{
closed = 1;
nodes = (
"433 830 LINE",
"246 830 LINE",
"190 703 LINE",
"288 703 LINE",
"340 790 LINE",
"393 703 LINE",
"491 703 LINE"
);
}
);
width = 668;
}
);
unicode = 00C2;
},
{
glyphname = Atilde;
lastChange = "2016-10-15 17:21:52 +0000";
layers = (
{
layerId = UUID0;
paths = (
{
closed = 1;
nodes = (
"432 649 LINE",
"242 649 LINE",
"2 0 LINE",
"156 0 LINE",
"213 171 LINE",
"450 171 LINE",
"508 0 LINE",
"666 0 LINE"
);
},
{
closed = 1;
nodes = (
"248 275 LINE",
"330 519 LINE",
"334 519 LINE",
"416 275 LINE"
);
},
{
closed = 1;
nodes = (
"439 830 LINE",
"439 807 OFFCURVE",
"428 795 OFFCURVE",
"406 795 CURVE SMOOTH",
"401 795 OFFCURVE",
"386 801 OFFCURVE",
"361 814 CURVE SMOOTH",
"336 827 OFFCURVE",
"315 833 OFFCURVE",
"296 833 CURVE SMOOTH",
"223 833 OFFCURVE",
"181 806 OFFCURVE",
"180 727 CURVE",
"253 727 LINE",
"254 747 OFFCURVE",
"266 757 OFFCURVE",
"289 757 CURVE SMOOTH",
"290 757 OFFCURVE",
"303 750 OFFCURVE",
"330 736 CURVE SMOOTH",
"357 723 OFFCURVE",
"381 716 OFFCURVE",
"401 716 CURVE SMOOTH",
"474 716 OFFCURVE",
"510 754 OFFCURVE",
"511 830 CURVE"
);
}
);
width = 668;
}
);
unicode = 00C3;
},
{
glyphname = Adieresis;
lastChange = "2016-10-15 17:21:52 +0000";
layers = (
{
layerId = UUID0;
paths = (
{
closed = 1;
nodes = (
"432 649 LINE",
"242 649 LINE",
"2 0 LINE",
"156 0 LINE",
"213 171 LINE",
"450 171 LINE",
"508 0 LINE",
"666 0 LINE"
);
},
{
closed = 1;
nodes = (
"248 275 LINE",
"330 519 LINE",
"334 519 LINE",
"416 275 LINE"
);
},
{
closed = 1;
nodes = (
"491 833 LINE",
"365 833 LINE",
"365 715 LINE",
"491 715 LINE"
);
},
{
closed = 1;
nodes = (
"301 833 LINE",
"175 833 LINE",
"175 715 LINE",
"301 715 LINE"
);
}
);
width = 668;
}
);
unicode = 00C4;
},
{
glyphname = Aring;
lastChange = "2016-10-15 17:21:52 +0000";
layers = (
{
layerId = UUID0;
paths = (
{
closed = 1;
nodes = (
"460 574 LINE",
"483 589 OFFCURVE",
"494 614 OFFCURVE",
"494 649 CURVE SMOOTH",
"494 681 LINE SMOOTH",
"494 728 OFFCURVE",
"478 758 OFFCURVE",
"443 770 CURVE SMOOTH",
"408 783 OFFCURVE",
"384 785 OFFCURVE",
"335 785 CURVE SMOOTH",
"286 785 OFFCURVE",
"262 783 OFFCURVE",
"227 770 CURVE SMOOTH",
"192 758 OFFCURVE",
"176 728 OFFCURVE",
"176 681 CURVE SMOOTH",
"176 649 LINE SMOOTH",
"176 612 OFFCURVE",
"189 586 OFFCURVE",
"214 571 CURVE",
"3 0 LINE",
"156 0 LINE",
"214 171 LINE",
"451 171 LINE",
"509 0 LINE",
"667 0 LINE"
);
},
{
closed = 1;
nodes = (
"405 642 LINE",
"405 610 OFFCURVE",
"390 603 OFFCURVE",
"335 603 CURVE SMOOTH",
"280 603 OFFCURVE",
"265 610 OFFCURVE",
"265 642 CURVE SMOOTH",
"265 679 LINE SMOOTH",
"265 698 OFFCURVE",
"269 710 OFFCURVE",
"277 715 CURVE SMOOTH",
"285 720 OFFCURVE",
"304 723 OFFCURVE",
"335 723 CURVE SMOOTH",
"366 723 OFFCURVE",
"385 720 OFFCURVE",
"393 715 CURVE SMOOTH",
"401 710 OFFCURVE",
"405 698 OFFCURVE",
"405 679 CURVE SMOOTH"
);
},
{
closed = 1;
nodes = (
"248 275 LINE",
"330 519 LINE",
"335 519 LINE",
"417 275 LINE"
);
}
);
width = 652;
}
);
unicode = 00C5;
},
{
glyphname = AE;
lastChange = "2016-10-15 17:21:52 +0000";
layers = (
{
layerId = UUID0;
paths = (
{
closed = 1;
nodes = (
"955 111 LINE",
"623 111 LINE",
"623 278 LINE",
"912 278 LINE",
"912 389 LINE",
"623 389 LINE",
"623 538 LINE",
"945 538 LINE",
"945 649 LINE",
"330 649 LINE",
"0 0 LINE",
"166 0 LINE",
"245 171 LINE",
"470 171 LINE",
"470 0 LINE",
"955 0 LINE"
);
},
{
closed = 1;
nodes = (
"292 275 LINE",
"413 538 LINE",
"470 538 LINE",
"470 275 LINE"
);
}
);
width = 990;
}
);
unicode = 00C6;
},
{
glyphname = Ccedilla;
lastChange = "2016-10-15 17:21:52 +0000";
layers = (
{
layerId = UUID0;
paths = (
{
closed = 1;
nodes = (
"567 130 LINE",
"485 111 OFFCURVE",
"420 101 OFFCURVE",
"373 101 CURVE SMOOTH",
"266 101 OFFCURVE",
"212 130 OFFCURVE",
"212 189 CURVE SMOOTH",
"212 465 LINE SMOOTH",
"212 502 OFFCURVE",
"227 525 OFFCURVE",
"258 536 CURVE SMOOTH",
"290 547 OFFCURVE",
"314 548 OFFCURVE",
"359 548 CURVE SMOOTH",
"416 548 OFFCURVE",
"484 539 OFFCURVE",
"563 520 CURVE",
"563 637 LINE",
"475 652 OFFCURVE",
"406 659 OFFCURVE",
"357 659 CURVE SMOOTH",
"156 659 OFFCURVE",
"56 594 OFFCURVE",
"56 463 CURVE SMOOTH",
"56 178 LINE SMOOTH",
"56 63 OFFCURVE",
"143 0 OFFCURVE",
"317 -9 CURVE",
"259 -96 LINE",
"299 -96 LINE SMOOTH",
"349 -96 OFFCURVE",
"374 -109 OFFCURVE",
"374 -134 CURVE SMOOTH",
"374 -157 OFFCURVE",
"358 -169 OFFCURVE",
"327 -169 CURVE SMOOTH",
"306 -169 OFFCURVE",
"285 -163 OFFCURVE",
"265 -151 CURVE",
"243 -197 LINE",
"266 -212 OFFCURVE",
"297 -220 OFFCURVE",
"334 -220 CURVE SMOOTH",
"365 -220 OFFCURVE",
"393 -212 OFFCURVE",
"417 -197 CURVE SMOOTH",
"442 -182 OFFCURVE",
"454 -159 OFFCURVE",
"454 -129 CURVE SMOOTH",
"454 -77 OFFCURVE",
"412 -54 OFFCURVE",
"357 -50 CURVE",
"386 -10 LINE",
"439 -9 OFFCURVE",
"499 -1 OFFCURVE",
"567 12 CURVE"
);
}
);
width = 597;
}
);
unicode = 00C7;
},
{
glyphname = Egrave;
lastChange = "2016-10-15 17:21:52 +0000";
layers = (
{
layerId = UUID0;
paths = (
{
closed = 1;
nodes = (
"575 111 LINE",
"226 111 LINE",
"226 278 LINE",
"532 278 LINE",
"532 389 LINE",
"226 389 LINE",
"226 538 LINE",
"565 538 LINE",
"565 649 LINE",
"70 649 LINE",
"70 0 LINE",
"575 0 LINE"
);
},
{
closed = 1;
nodes = (
"323 845 LINE",
"164 845 LINE",
"289 718 LINE",
"413 718 LINE"
);
}
);
width = 610;
}
);
unicode = 00C8;
},
{
glyphname = Eacute;
lastChange = "2016-10-15 17:21:52 +0000";
layers = (
{
layerId = UUID0;
paths = (
{
closed = 1;
nodes = (
"575 111 LINE",
"226 111 LINE",
"226 278 LINE",
"532 278 LINE",
"532 389 LINE",
"226 389 LINE",
"226 538 LINE",
"565 538 LINE",
"565 649 LINE",
"70 649 LINE",
"70 0 LINE",
"575 0 LINE"
);
},
{
closed = 1;
nodes = (
"313 845 LINE",
"223 718 LINE",
"347 718 LINE",
"472 845 LINE"
);
}
);
width = 610;
}
);
unicode = 00C9;
},
{
glyphname = Ecircumflex;
lastChange = "2016-10-15 17:21:52 +0000";
layers = (
{
layerId = UUID0;
paths = (
{
closed = 1;
nodes = (
"575 111 LINE",
"226 111 LINE",
"226 278 LINE",
"532 278 LINE",
"532 389 LINE",
"226 389 LINE",
"226 538 LINE",
"565 538 LINE",
"565 649 LINE",
"70 649 LINE",
"70 0 LINE",
"575 0 LINE"
);
},
{
closed = 1;
nodes = (
"397 845 LINE",
"210 845 LINE",
"154 718 LINE",
"252 718 LINE",
"304 805 LINE",
"357 718 LINE",
"455 718 LINE"
);
}
);
width = 610;
}
);
unicode = 00CA;
},
{
glyphname = Edieresis;
lastChange = "2016-10-15 17:21:52 +0000";
layers = (
{
layerId = UUID0;
paths = (
{
closed = 1;
nodes = (
"575 111 LINE",
"226 111 LINE",
"226 278 LINE",
"532 278 LINE",
"532 389 LINE",
"226 389 LINE",
"226 538 LINE",
"565 538 LINE",
"565 649 LINE",
"70 649 LINE",
"70 0 LINE",
"575 0 LINE"
);
},
{
closed = 1;
nodes = (
"463 848 LINE",
"337 848 LINE",
"337 730 LINE",
"463 730 LINE"
);
},
{
closed = 1;
nodes = (
"273 848 LINE",
"147 848 LINE",
"147 730 LINE",
"273 730 LINE"
);
}
);
width = 610;
}
);
unicode = 00CB;
},
{
glyphname = Igrave;
lastChange = "2016-10-15 17:21:52 +0000";
layers = (
{
layerId = UUID0;
paths = (
{
closed = 1;
nodes = (
"226 649 LINE",
"70 649 LINE",
"70 0 LINE",
"226 0 LINE"
);
},
{
closed = 1;
nodes = (
"183 845 LINE",
"24 845 LINE",
"149 718 LINE",
"273 718 LINE"
);
}
);
width = 296;
}
);
unicode = 00CC;
},
{
glyphname = Iacute;
lastChange = "2016-10-15 17:21:52 +0000";
layers = (
{
layerId = UUID0;
paths = (
{
closed = 1;
nodes = (
"226 649 LINE",
"70 649 LINE",
"70 0 LINE",
"226 0 LINE"
);
},
{
closed = 1;
nodes = (
"114 845 LINE",
"24 718 LINE",
"148 718 LINE",
"273 845 LINE"
);
}
);
width = 296;
}
);
unicode = 00CD;
},
{
glyphname = Icircumflex;
lastChange = "2016-10-15 17:21:52 +0000";
layers = (
{
layerId = UUID0;
paths = (
{
closed = 1;
nodes = (
"226 649 LINE",
"70 649 LINE",
"70 0 LINE",
"226 0 LINE"
);
},
{
closed = 1;
nodes = (
"241 845 LINE",
"54 845 LINE",
"-2 718 LINE",
"96 718 LINE",
"148 805 LINE",
"201 718 LINE",
"299 718 LINE"
);
}
);
width = 296;
}
);
unicode = 00CE;
},
{
glyphname = Idieresis;
lastChange = "2016-10-15 17:21:52 +0000";
layers = (
{
layerId = UUID0;
paths = (
{
closed = 1;
nodes = (
"226 649 LINE",
"70 649 LINE",
"70 0 LINE",
"226 0 LINE"
);
},
{
closed = 1;
nodes = (
"306 848 LINE",
"180 848 LINE",
"180 730 LINE",
"306 730 LINE"
);
},
{
closed = 1;
nodes = (
"116 848 LINE",
"-10 848 LINE",
"-10 730 LINE",
"116 730 LINE"
);
}
);
width = 296;
}
);
unicode = 00CF;
},
{
glyphname = Eth;
lastChange = "2016-10-15 17:21:52 +0000";
layers = (
{
layerId = UUID0;
paths = (
{
closed = 1;
nodes = (
"10 284 LINE",
"348 284 LINE",
"348 385 LINE",
"10 385 LINE"
);
},
{
closed = 1;
nodes = (
"654 452 LINE",
"654 529 OFFCURVE",
"630 581 OFFCURVE",
"582 608 CURVE SMOOTH",
"535 635 OFFCURVE",
"456 649 OFFCURVE",
"346 649 CURVE SMOOTH",
"70 649 LINE",
"70 0 LINE",
"347 0 LINE SMOOTH",
"461 0 OFFCURVE",
"541 13 OFFCURVE",
"586 39 CURVE SMOOTH",
"631 65 OFFCURVE",
"654 115 OFFCURVE",
"654 188 CURVE SMOOTH"
);
},
{
closed = 1;
nodes = (
"498 188 LINE",
"498 155 OFFCURVE",
"487 133 OFFCURVE",
"464 124 CURVE SMOOTH",
"441 115 OFFCURVE",
"400 111 OFFCURVE",
"340 111 CURVE SMOOTH",
"226 111 LINE",
"226 538 LINE",
"345 538 LINE SMOOTH",
"448 538 OFFCURVE",
"498 518 OFFCURVE",
"498 455 CURVE SMOOTH"
);
}
);
width = 677;
}
);
unicode = 00D0;
},
{
glyphname = Ntilde;
lastChange = "2016-10-15 17:21:52 +0000";
layers = (
{
layerId = UUID0;
paths = (
{
closed = 1;
nodes = (
"681 649 LINE",
"542 649 LINE",
"542 206 LINE",
"228 649 LINE",
"70 649 LINE",
"70 0 LINE",
"209 0 LINE",
"209 450 LINE",
"523 0 LINE",
"681 0 LINE"
);
},
{
closed = 1;
nodes = (
"427 824 OFFCURVE",
"409 829 OFFCURVE",
"383 839 CURVE SMOOTH",
"358 849 OFFCURVE",
"337 854 OFFCURVE",
"322 854 CURVE SMOOTH",
"298 854 OFFCURVE",
"278 845 OFFCURVE",
"261 826 CURVE SMOOTH",
"245 807 OFFCURVE",
"235 790 OFFCURVE",
"231 775 CURVE",
"271 751 LINE",
"280 773 OFFCURVE",
"294 784 OFFCURVE",
"313 784 CURVE SMOOTH",
"320 784 OFFCURVE",
"337 778 OFFCURVE",
"364 767 CURVE SMOOTH",
"391 756 OFFCURVE",
"412 751 OFFCURVE",
"429 751 CURVE SMOOTH",
"453 751 OFFCURVE",
"473 761 OFFCURVE",
"489 780 CURVE SMOOTH",
"505 799 OFFCURVE",
"515 817 OFFCURVE",
"520 833 CURVE",
"479 857 LINE",
"470 835 OFFCURVE",
"457 824 OFFCURVE",
"438 824 CURVE SMOOTH"
);
}
);
width = 751;
}
);
unicode = 00D1;
},
{
glyphname = Ograve;
lastChange = "2016-10-15 17:21:52 +0000";
layers = (
{
layerId = UUID0;
paths = (
{
closed = 1;
nodes = (
"672 462 LINE",
"669 568 OFFCURVE",
"604 619 OFFCURVE",
"519 640 CURVE",
"459 657 OFFCURVE",
"416 659 OFFCURVE",
"363 659 CURVE SMOOTH",
"311 659 OFFCURVE",
"269 657 OFFCURVE",
"209 640 CURVE SMOOTH",
"179 632 OFFCURVE",
"153 621 OFFCURVE",
"132 608 CURVE SMOOTH",
"91 581 OFFCURVE",
"56 529 OFFCURVE",
"56 462 CURVE SMOOTH",
"56 178 LINE SMOOTH",
"56 99 OFFCURVE",
"100 45 OFFCURVE",
"168 21 CURVE SMOOTH",
"237 -3 OFFCURVE",
"294 -10 OFFCURVE",
"363 -10 CURVE SMOOTH",
"436 -10 OFFCURVE",
"500 0 OFFCURVE",
"565 25 CURVE",
"630 52 OFFCURVE",
"672 105 OFFCURVE",
"672 178 CURVE SMOOTH"
);
},
{
closed = 1;
nodes = (
"516 178 LINE",
"516 145 OFFCURVE",
"499 122 OFFCURVE",
"467 113 CURVE SMOOTH",
"435 104 OFFCURVE",
"409 101 OFFCURVE",
"365 101 CURVE SMOOTH",
"321 101 OFFCURVE",
"295 104 OFFCURVE",
"262 113 CURVE SMOOTH",
"230 122 OFFCURVE",
"212 145 OFFCURVE",
"212 178 CURVE SMOOTH",
"212 463 LINE SMOOTH",
"212 527 OFFCURVE",
"263 548 OFFCURVE",
"364 548 CURVE SMOOTH",
"464 548 OFFCURVE",
"516 526 OFFCURVE",
"516 463 CURVE SMOOTH"
);
},
{
closed = 1;
nodes = (
"344 845 LINE",
"185 845 LINE",
"310 718 LINE",
"434 718 LINE"
);
}
);
width = 728;
}
);
unicode = 00D2;
},
{
glyphname = Oacute;
lastChange = "2016-10-15 17:21:52 +0000";
layers = (
{
layerId = UUID0;
paths = (
{
closed = 1;
nodes = (
"672 462 LINE",
"669 568 OFFCURVE",
"604 619 OFFCURVE",
"519 640 CURVE",
"459 657 OFFCURVE",
"416 659 OFFCURVE",
"363 659 CURVE SMOOTH",
"311 659 OFFCURVE",
"269 657 OFFCURVE",
"209 640 CURVE SMOOTH",
"179 632 OFFCURVE",
"153 621 OFFCURVE",
"132 608 CURVE SMOOTH",
"91 581 OFFCURVE",
"56 529 OFFCURVE",
"56 462 CURVE SMOOTH",
"56 178 LINE SMOOTH",
"56 99 OFFCURVE",
"100 45 OFFCURVE",
"168 21 CURVE SMOOTH",
"237 -3 OFFCURVE",
"294 -10 OFFCURVE",
"363 -10 CURVE SMOOTH",
"436 -10 OFFCURVE",
"500 0 OFFCURVE",
"565 25 CURVE",
"630 52 OFFCURVE",
"672 105 OFFCURVE",
"672 178 CURVE SMOOTH"
);
},
{
closed = 1;
nodes = (
"516 178 LINE",
"516 145 OFFCURVE",
"499 122 OFFCURVE",
"467 113 CURVE SMOOTH",
"435 104 OFFCURVE",
"409 101 OFFCURVE",
"365 101 CURVE SMOOTH",
"321 101 OFFCURVE",
"295 104 OFFCURVE",
"262 113 CURVE SMOOTH",
"230 122 OFFCURVE",
"212 145 OFFCURVE",
"212 178 CURVE SMOOTH",
"212 463 LINE SMOOTH",
"212 527 OFFCURVE",
"263 548 OFFCURVE",
"364 548 CURVE SMOOTH",
"464 548 OFFCURVE",
"516 526 OFFCURVE",
"516 463 CURVE SMOOTH"
);
},
{
closed = 1;
nodes = (
"361 845 LINE",
"271 718 LINE",
"395 718 LINE",
"520 845 LINE"
);
}
);
width = 728;
}
);
unicode = 00D3;
},
{
glyphname = Ocircumflex;
lastChange = "2016-10-15 17:21:52 +0000";
layers = (
{
layerId = UUID0;
paths = (
{
closed = 1;
nodes = (
"672 462 LINE",
"669 568 OFFCURVE",
"604 619 OFFCURVE",
"519 640 CURVE",
"459 657 OFFCURVE",
"416 659 OFFCURVE",
"363 659 CURVE SMOOTH",
"311 659 OFFCURVE",
"269 657 OFFCURVE",
"209 640 CURVE SMOOTH",
"179 632 OFFCURVE",
"153 621 OFFCURVE",
"132 608 CURVE SMOOTH",
"91 581 OFFCURVE",
"56 529 OFFCURVE",
"56 462 CURVE SMOOTH",
"56 178 LINE SMOOTH",
"56 99 OFFCURVE",
"100 45 OFFCURVE",
"168 21 CURVE SMOOTH",
"237 -3 OFFCURVE",
"294 -10 OFFCURVE",
"363 -10 CURVE SMOOTH",
"436 -10 OFFCURVE",
"500 0 OFFCURVE",
"565 25 CURVE",
"630 52 OFFCURVE",
"672 105 OFFCURVE",
"672 178 CURVE SMOOTH"
);
},
{
closed = 1;
nodes = (
"516 178 LINE",
"516 145 OFFCURVE",
"499 122 OFFCURVE",
"467 113 CURVE SMOOTH",
"435 104 OFFCURVE",
"409 101 OFFCURVE",
"365 101 CURVE SMOOTH",
"321 101 OFFCURVE",
"295 104 OFFCURVE",
"262 113 CURVE SMOOTH",
"230 122 OFFCURVE",
"212 145 OFFCURVE",
"212 178 CURVE SMOOTH",
"212 463 LINE SMOOTH",
"212 527 OFFCURVE",
"263 548 OFFCURVE",
"364 548 CURVE SMOOTH",
"464 548 OFFCURVE",
"516 526 OFFCURVE",
"516 463 CURVE SMOOTH"
);
},
{
closed = 1;
nodes = (
"456 845 LINE",
"269 845 LINE",
"213 718 LINE",
"311 718 LINE",
"363 805 LINE",
"416 718 LINE",
"514 718 LINE"
);
}
);
width = 728;
}
);
unicode = 00D4;
},
{
glyphname = Otilde;
lastChange = "2016-10-15 17:21:52 +0000";
layers = (
{
layerId = UUID0;
paths = (
{
closed = 1;
nodes = (
"672 462 LINE",
"669 568 OFFCURVE",
"604 619 OFFCURVE",
"519 640 CURVE",
"459 657 OFFCURVE",
"416 659 OFFCURVE",
"363 659 CURVE SMOOTH",
"311 659 OFFCURVE",
"269 657 OFFCURVE",
"209 640 CURVE SMOOTH",
"179 632 OFFCURVE",
"153 621 OFFCURVE",
"132 608 CURVE SMOOTH",
"91 581 OFFCURVE",
"56 529 OFFCURVE",
"56 462 CURVE SMOOTH",
"56 178 LINE SMOOTH",
"56 99 OFFCURVE",
"100 45 OFFCURVE",
"168 21 CURVE SMOOTH",
"237 -3 OFFCURVE",
"294 -10 OFFCURVE",
"363 -10 CURVE SMOOTH",
"436 -10 OFFCURVE",
"500 0 OFFCURVE",
"565 25 CURVE",
"630 52 OFFCURVE",
"672 105 OFFCURVE",
"672 178 CURVE SMOOTH"
);
},
{
closed = 1;
nodes = (
"516 178 LINE",
"516 145 OFFCURVE",
"499 122 OFFCURVE",
"467 113 CURVE SMOOTH",
"435 104 OFFCURVE",
"409 101 OFFCURVE",
"365 101 CURVE SMOOTH",
"321 101 OFFCURVE",
"295 104 OFFCURVE",
"262 113 CURVE SMOOTH",
"230 122 OFFCURVE",
"212 145 OFFCURVE",
"212 178 CURVE SMOOTH",
"212 463 LINE SMOOTH",
"212 527 OFFCURVE",
"263 548 OFFCURVE",
"364 548 CURVE SMOOTH",
"464 548 OFFCURVE",
"516 526 OFFCURVE",
"516 463 CURVE SMOOTH"
);
},
{
closed = 1;
nodes = (
"415 824 OFFCURVE",
"397 829 OFFCURVE",
"371 839 CURVE SMOOTH",
"346 849 OFFCURVE",
"325 854 OFFCURVE",
"310 854 CURVE SMOOTH",
"286 854 OFFCURVE",
"266 845 OFFCURVE",
"249 826 CURVE SMOOTH",
"233 807 OFFCURVE",
"223 790 OFFCURVE",
"219 775 CURVE",
"259 751 LINE",
"268 773 OFFCURVE",
"282 784 OFFCURVE",
"301 784 CURVE SMOOTH",
"308 784 OFFCURVE",
"325 778 OFFCURVE",
"352 767 CURVE SMOOTH",
"379 756 OFFCURVE",
"400 751 OFFCURVE",
"417 751 CURVE SMOOTH",
"441 751 OFFCURVE",
"461 761 OFFCURVE",
"477 780 CURVE SMOOTH",
"493 799 OFFCURVE",
"503 817 OFFCURVE",
"508 833 CURVE",
"467 857 LINE",
"458 835 OFFCURVE",
"445 824 OFFCURVE",
"426 824 CURVE SMOOTH"
);
}
);
width = 728;
}
);
unicode = 00D5;
},
{
glyphname = Odieresis;
lastChange = "2016-10-15 17:21:52 +0000";
layers = (
{
layerId = UUID0;
paths = (
{
closed = 1;
nodes = (
"672 462 LINE",
"669 568 OFFCURVE",
"604 619 OFFCURVE",
"519 640 CURVE",
"459 657 OFFCURVE",
"416 659 OFFCURVE",
"363 659 CURVE SMOOTH",
"311 659 OFFCURVE",
"269 657 OFFCURVE",
"209 640 CURVE SMOOTH",
"179 632 OFFCURVE",
"153 621 OFFCURVE",
"132 608 CURVE SMOOTH",
"91 581 OFFCURVE",
"56 529 OFFCURVE",
"56 462 CURVE SMOOTH",
"56 178 LINE SMOOTH",
"56 99 OFFCURVE",
"100 45 OFFCURVE",
"168 21 CURVE SMOOTH",
"237 -3 OFFCURVE",
"294 -10 OFFCURVE",
"363 -10 CURVE SMOOTH",
"436 -10 OFFCURVE",
"500 0 OFFCURVE",
"565 25 CURVE",
"630 52 OFFCURVE",
"672 105 OFFCURVE",
"672 178 CURVE SMOOTH"
);
},
{
closed = 1;
nodes = (
"516 178 LINE",
"516 145 OFFCURVE",
"499 122 OFFCURVE",
"467 113 CURVE SMOOTH",
"435 104 OFFCURVE",
"409 101 OFFCURVE",
"365 101 CURVE SMOOTH",
"321 101 OFFCURVE",
"295 104 OFFCURVE",
"262 113 CURVE SMOOTH",
"230 122 OFFCURVE",
"212 145 OFFCURVE",
"212 178 CURVE SMOOTH",
"212 463 LINE SMOOTH",
"212 527 OFFCURVE",
"263 548 OFFCURVE",
"364 548 CURVE SMOOTH",
"464 548 OFFCURVE",
"516 526 OFFCURVE",
"516 463 CURVE SMOOTH"
);
},
{
closed = 1;
nodes = (
"522 848 LINE",
"396 848 LINE",
"396 730 LINE",
"522 730 LINE"
);
},
{
closed = 1;
nodes = (
"332 848 LINE",
"206 848 LINE",
"206 730 LINE",
"332 730 LINE"
);
}
);
width = 728;
}
);
unicode = 00D6;
},
{
glyphname = multiply;
lastChange = "2016-10-15 17:21:52 +0000";
layers = (
{
layerId = UUID0;
paths = (
{
closed = 1;
nodes = (
"70 462 LINE",
"218 314 LINE",
"70 166 LINE",
"142 95 LINE",
"289 242 LINE",
"438 94 LINE",
"509 166 LINE",
"361 314 LINE",
"509 462 LINE",
"438 534 LINE",
"289 385 LINE",
"142 533 LINE"
);
}
);
width = 580;
}
);
unicode = 00D7;
},
{
glyphname = Oslash;
lastChange = "2016-10-15 17:21:52 +0000";
layers = (
{
layerId = UUID0;
paths = (
{
closed = 1;
nodes = (
"672 462 LINE",
"669 568 OFFCURVE",
"604 619 OFFCURVE",
"519 640 CURVE",
"459 657 OFFCURVE",
"416 659 OFFCURVE",
"363 659 CURVE SMOOTH",
"311 659 OFFCURVE",
"269 657 OFFCURVE",
"209 640 CURVE SMOOTH",
"179 632 OFFCURVE",
"153 621 OFFCURVE",
"132 608 CURVE SMOOTH",
"91 581 OFFCURVE",
"56 529 OFFCURVE",
"56 462 CURVE SMOOTH",
"56 178 LINE SMOOTH",
"56 99 OFFCURVE",
"100 45 OFFCURVE",
"168 21 CURVE SMOOTH",
"237 -3 OFFCURVE",
"294 -10 OFFCURVE",
"363 -10 CURVE SMOOTH",
"436 -10 OFFCURVE",
"500 0 OFFCURVE",
"565 25 CURVE",
"630 52 OFFCURVE",
"672 105 OFFCURVE",
"672 178 CURVE SMOOTH"
);
},
{
closed = 1;
nodes = (
"516 178 LINE",
"516 145 OFFCURVE",
"499 122 OFFCURVE",
"467 113 CURVE SMOOTH",
"435 104 OFFCURVE",
"409 101 OFFCURVE",
"365 101 CURVE SMOOTH",
"316 101 OFFCURVE",
"279 106 OFFCURVE",
"256 115 CURVE",
"516 463 LINE"
);
},
{
closed = 1;
nodes = (
"212 463 LINE",
"212 527 OFFCURVE",
"263 548 OFFCURVE",
"364 548 CURVE SMOOTH",
"410 548 OFFCURVE",
"445 543 OFFCURVE",
"468 533 CURVE",
"212 189 LINE"
);
}
);
width = 728;
}
);
unicode = 00D8;
},
{
glyphname = Ugrave;
lastChange = "2016-10-15 17:21:52 +0000";
layers = (
{
layerId = UUID0;
paths = (
{
closed = 1;
nodes = (
"475 649 LINE",
"475 178 LINE SMOOTH",
"475 119 OFFCURVE",
"442 101 OFFCURVE",
"351 101 CURVE SMOOTH",
"259 101 OFFCURVE",
"224 119 OFFCURVE",
"224 178 CURVE SMOOTH",
"224 649 LINE",
"68 649 LINE",
"68 178 LINE SMOOTH",
"68 53 OFFCURVE",
"162 -10 OFFCURVE",
"349 -10 CURVE SMOOTH",
"537 -10 OFFCURVE",
"631 53 OFFCURVE",
"631 178 CURVE SMOOTH",
"631 649 LINE"
);
},
{
closed = 1;
nodes = (
"333 845 LINE",
"174 845 LINE",
"299 718 LINE",
"423 718 LINE"
);
}
);
width = 699;
}
);
unicode = 00D9;
},
{
glyphname = Uacute;
lastChange = "2016-10-15 17:21:52 +0000";
layers = (
{
layerId = UUID0;
paths = (
{
closed = 1;
nodes = (
"475 649 LINE",
"475 178 LINE SMOOTH",
"475 119 OFFCURVE",
"442 101 OFFCURVE",
"351 101 CURVE SMOOTH",
"259 101 OFFCURVE",
"224 119 OFFCURVE",
"224 178 CURVE SMOOTH",
"224 649 LINE",
"68 649 LINE",
"68 178 LINE SMOOTH",
"68 53 OFFCURVE",
"162 -10 OFFCURVE",
"349 -10 CURVE SMOOTH",
"537 -10 OFFCURVE",
"631 53 OFFCURVE",
"631 178 CURVE SMOOTH",
"631 649 LINE"
);
},
{
closed = 1;
nodes = (
"360 845 LINE",
"270 718 LINE",
"394 718 LINE",
"519 845 LINE"
);
}
);
width = 699;
}
);
unicode = 00DA;
},
{
glyphname = Ucircumflex;
lastChange = "2016-10-15 17:21:52 +0000";
layers = (
{
layerId = UUID0;
paths = (
{
closed = 1;
nodes = (
"475 649 LINE",
"475 178 LINE SMOOTH",
"475 119 OFFCURVE",
"442 101 OFFCURVE",
"351 101 CURVE SMOOTH",
"259 101 OFFCURVE",
"224 119 OFFCURVE",
"224 178 CURVE SMOOTH",
"224 649 LINE",
"68 649 LINE",
"68 178 LINE SMOOTH",
"68 53 OFFCURVE",
"162 -10 OFFCURVE",
"349 -10 CURVE SMOOTH",
"537 -10 OFFCURVE",
"631 53 OFFCURVE",
"631 178 CURVE SMOOTH",
"631 649 LINE"
);
},
{
closed = 1;
nodes = (
"442 845 LINE",
"255 845 LINE",
"199 718 LINE",
"297 718 LINE",
"349 805 LINE",
"402 718 LINE",
"500 718 LINE"
);
}
);
width = 699;
}
);
unicode = 00DB;
},
{
glyphname = Udieresis;
lastChange = "2016-10-15 17:21:52 +0000";
layers = (
{
layerId = UUID0;
paths = (
{
closed = 1;
nodes = (
"475 649 LINE",
"475 178 LINE SMOOTH",
"475 119 OFFCURVE",
"442 101 OFFCURVE",
"351 101 CURVE SMOOTH",
"259 101 OFFCURVE",
"224 119 OFFCURVE",
"224 178 CURVE SMOOTH",
"224 649 LINE",
"68 649 LINE",
"68 178 LINE SMOOTH",
"68 53 OFFCURVE",
"162 -10 OFFCURVE",
"349 -10 CURVE SMOOTH",
"537 -10 OFFCURVE",
"631 53 OFFCURVE",
"631 178 CURVE SMOOTH",
"631 649 LINE"
);
},
{
closed = 1;
nodes = (
"507 848 LINE",
"381 848 LINE",
"381 730 LINE",
"507 730 LINE"
);
},
{
closed = 1;
nodes = (
"317 848 LINE",
"191 848 LINE",
"191 730 LINE",
"317 730 LINE"
);
}
);
width = 699;
}
);
unicode = 00DC;
},
{
glyphname = Yacute;
lastChange = "2016-10-15 17:21:52 +0000";
layers = (
{
layerId = UUID0;
paths = (
{
closed = 1;
nodes = (
"458 649 LINE",
"322 395 LINE",
"185 649 LINE",
"8 649 LINE",
"243 260 LINE",
"243 0 LINE",
"399 0 LINE",
"399 262 LINE",
"636 649 LINE"
);
},
{
closed = 1;
nodes = (
"326 845 LINE",
"236 718 LINE",
"360 718 LINE",
"485 845 LINE"
);
}
);
width = 644;
}
);
unicode = 00DD;
},
{
glyphname = Thorn;
lastChange = "2016-10-15 17:21:52 +0000";
layers = (
{
layerId = UUID0;
paths = (
{
closed = 1;
nodes = (
"587 395 LINE",
"587 455 OFFCURVE",
"559 494 OFFCURVE",
"507 513 CURVE",
"456 533 OFFCURVE",
"405 539 OFFCURVE",
"330 539 CURVE SMOOTH",
"226 539 LINE",
"226 649 LINE",
"70 649 LINE",
"70 0 LINE",
"226 0 LINE",
"226 105 LINE",
"312 105 LINE SMOOTH",
"495 105 OFFCURVE",
"587 160 OFFCURVE",
"587 271 CURVE SMOOTH"
);
},
{
closed = 1;
nodes = (
"436 271 LINE",
"436 229 OFFCURVE",
"399 208 OFFCURVE",
"325 208 CURVE SMOOTH",
"226 208 LINE",
"226 437 LINE",
"323 437 LINE SMOOTH",
"412 437 OFFCURVE",
"436 430 OFFCURVE",
"436 390 CURVE SMOOTH"
);
}
);
width = 627;
}
);
unicode = 00DE;
},
{
glyphname = germandbls;
lastChange = "2016-10-15 17:21:52 +0000";
layers = (
{
layerId = UUID0;
paths = (
{
closed = 1;
nodes = (
"589 265 LINE",
"589 289 OFFCURVE",
"578 310 OFFCURVE",
"556 329 CURVE SMOOTH",
"535 348 OFFCURVE",
"512 358 OFFCURVE",
"488 361 CURVE",
"489 366 LINE",
"526 377 OFFCURVE",
"560 413 OFFCURVE",
"560 450 CURVE SMOOTH",
"560 569 LINE SMOOTH",
"560 662 OFFCURVE",
"497 710 OFFCURVE",
"324 710 CURVE SMOOTH",
"177 710 OFFCURVE",
"105 687 OFFCURVE",
"81 650 CURVE",
"70 631 OFFCURVE",
"64 604 OFFCURVE",
"64 569 CURVE SMOOTH",
"64 0 LINE",
"210 0 LINE",
"210 555 LINE SMOOTH",
"210 578 OFFCURVE",
"217 593 OFFCURVE",
"231 599 CURVE SMOOTH",
"245 606 OFFCURVE",
"276 609 OFFCURVE",
"324 609 CURVE SMOOTH",
"400 609 OFFCURVE",
"419 595 OFFCURVE",
"419 555 CURVE SMOOTH",
"419 460 LINE SMOOTH",
"419 416 OFFCURVE",
"396 402 OFFCURVE",
"327 402 CURVE SMOOTH",
"277 402 LINE",
"277 304 LINE",
"352 304 LINE SMOOTH",
"389 304 OFFCURVE",
"413 300 OFFCURVE",
"424 293 CURVE SMOOTH",
"436 286 OFFCURVE",
"442 270 OFFCURVE",
"442 245 CURVE SMOOTH",
"442 167 LINE SMOOTH",
"442 122 OFFCURVE",
"416 111 OFFCURVE",
"331 111 CURVE SMOOTH",
"277 111 LINE",
"277 0 LINE",
"331 0 LINE SMOOTH",
"502 0 OFFCURVE",
"589 37 OFFCURVE",
"589 145 CURVE SMOOTH",
"589 265 LINE"
);
}
);
width = 639;
}
);
unicode = 00DF;
},
{
glyphname = agrave;
lastChange = "2016-10-15 17:21:52 +0000";
layers = (
{
layerId = UUID0;
paths = (
{
closed = 1;
nodes = (
"500 333 LINE",
"500 397 OFFCURVE",
"483 440 OFFCURVE",
"448 461 CURVE SMOOTH",
"413 483 OFFCURVE",
"351 494 OFFCURVE",
"262 494 CURVE SMOOTH",
"194 494 OFFCURVE",
"132 491 OFFCURVE",
"77 484 CURVE",
"77 392 LINE",
"149 400 OFFCURVE",
"206 404 OFFCURVE",
"247 404 CURVE SMOOTH",
"291 404 OFFCURVE",
"320 399 OFFCURVE",
"333 389 CURVE",
"347 380 OFFCURVE",
"354 360 OFFCURVE",
"354 331 CURVE SMOOTH",
"354 298 LINE",
"190 298 LINE SMOOTH",
"133 298 OFFCURVE",
"94 287 OFFCURVE",
"72 264 CURVE SMOOTH",
"50 242 OFFCURVE",
"39 202 OFFCURVE",
"39 145 CURVE SMOOTH",
"39 82 OFFCURVE",
"50 40 OFFCURVE",
"71 20 CURVE SMOOTH",
"92 0 OFFCURVE",
"136 -10 OFFCURVE",
"201 -10 CURVE SMOOTH",
"254 -10 OFFCURVE",
"291 -6 OFFCURVE",
"311 2 CURVE SMOOTH",
"331 11 OFFCURVE",
"346 25 OFFCURVE",
"357 44 CURVE",
"357 0 LINE",
"500 0 LINE"
);
},
{
closed = 1;
nodes = (
"354 124 LINE",
"354 99 OFFCURVE",
"345 87 OFFCURVE",
"321 84 CURVE SMOOTH",
"302 81 OFFCURVE",
"291 81 OFFCURVE",
"258 81 CURVE SMOOTH",
"224 81 OFFCURVE",
"203 84 OFFCURVE",
"194 91 CURVE SMOOTH",
"186 98 OFFCURVE",
"182 117 OFFCURVE",
"182 148 CURVE SMOOTH",
"182 180 OFFCURVE",
"186 200 OFFCURVE",
"194 207 CURVE SMOOTH",
"202 214 OFFCURVE",
"222 218 OFFCURVE",
"254 218 CURVE SMOOTH",
"354 218 LINE"
);
},
{
closed = 1;
nodes = (
"278 680 LINE",
"119 680 LINE",
"244 553 LINE",
"368 553 LINE"
);
}
);
width = 564;
}
);
unicode = 00E0;
},
{
glyphname = aacute;
lastChange = "2016-10-15 17:21:52 +0000";
layers = (
{
layerId = UUID0;
paths = (
{
closed = 1;
nodes = (
"500 333 LINE",
"500 397 OFFCURVE",
"483 440 OFFCURVE",
"448 461 CURVE SMOOTH",
"413 483 OFFCURVE",
"351 494 OFFCURVE",
"262 494 CURVE SMOOTH",
"194 494 OFFCURVE",
"132 491 OFFCURVE",
"77 484 CURVE",
"77 392 LINE",
"149 400 OFFCURVE",
"206 404 OFFCURVE",
"247 404 CURVE SMOOTH",
"291 404 OFFCURVE",
"320 399 OFFCURVE",
"333 389 CURVE",
"347 380 OFFCURVE",
"354 360 OFFCURVE",
"354 331 CURVE SMOOTH",
"354 298 LINE",
"190 298 LINE SMOOTH",
"133 298 OFFCURVE",
"94 287 OFFCURVE",
"72 264 CURVE SMOOTH",
"50 242 OFFCURVE",
"39 202 OFFCURVE",
"39 145 CURVE SMOOTH",
"39 82 OFFCURVE",
"50 40 OFFCURVE",
"71 20 CURVE SMOOTH",
"92 0 OFFCURVE",
"136 -10 OFFCURVE",
"201 -10 CURVE SMOOTH",
"254 -10 OFFCURVE",
"291 -6 OFFCURVE",
"311 2 CURVE SMOOTH",
"331 11 OFFCURVE",
"346 25 OFFCURVE",
"357 44 CURVE",
"357 0 LINE",
"500 0 LINE"
);
},
{
closed = 1;
nodes = (
"354 124 LINE",
"354 99 OFFCURVE",
"345 87 OFFCURVE",
"321 84 CURVE SMOOTH",
"302 81 OFFCURVE",
"291 81 OFFCURVE",
"258 81 CURVE SMOOTH",
"224 81 OFFCURVE",
"203 84 OFFCURVE",
"194 91 CURVE SMOOTH",
"186 98 OFFCURVE",
"182 117 OFFCURVE",
"182 148 CURVE SMOOTH",
"182 180 OFFCURVE",
"186 200 OFFCURVE",
"194 207 CURVE SMOOTH",
"202 214 OFFCURVE",
"222 218 OFFCURVE",
"254 218 CURVE SMOOTH",
"354 218 LINE"
);
},
{
closed = 1;
nodes = (
"268 680 LINE",
"178 553 LINE",
"302 553 LINE",
"427 680 LINE"
);
}
);
width = 564;
}
);
unicode = 00E1;
},
{
glyphname = acircumflex;
lastChange = "2016-10-15 17:21:52 +0000";
layers = (
{
layerId = UUID0;
paths = (
{
closed = 1;
nodes = (
"500 333 LINE",
"500 397 OFFCURVE",
"483 440 OFFCURVE",
"448 461 CURVE SMOOTH",
"413 483 OFFCURVE",
"351 494 OFFCURVE",
"262 494 CURVE SMOOTH",
"194 494 OFFCURVE",
"132 491 OFFCURVE",
"77 484 CURVE",
"77 392 LINE",
"149 400 OFFCURVE",
"206 404 OFFCURVE",
"247 404 CURVE SMOOTH",
"291 404 OFFCURVE",
"320 399 OFFCURVE",
"333 389 CURVE",
"347 380 OFFCURVE",
"354 360 OFFCURVE",
"354 331 CURVE SMOOTH",
"354 298 LINE",
"190 298 LINE SMOOTH",
"133 298 OFFCURVE",
"94 287 OFFCURVE",
"72 264 CURVE SMOOTH",
"50 242 OFFCURVE",
"39 202 OFFCURVE",
"39 145 CURVE SMOOTH",
"39 82 OFFCURVE",
"50 40 OFFCURVE",
"71 20 CURVE SMOOTH",
"92 0 OFFCURVE",
"136 -10 OFFCURVE",
"201 -10 CURVE SMOOTH",
"254 -10 OFFCURVE",
"291 -6 OFFCURVE",
"311 2 CURVE SMOOTH",
"331 11 OFFCURVE",
"346 25 OFFCURVE",
"357 44 CURVE",
"357 0 LINE",
"500 0 LINE"
);
},
{
closed = 1;
nodes = (
"354 124 LINE",
"354 99 OFFCURVE",
"345 87 OFFCURVE",
"321 84 CURVE SMOOTH",
"302 81 OFFCURVE",
"291 81 OFFCURVE",
"258 81 CURVE SMOOTH",
"224 81 OFFCURVE",
"203 84 OFFCURVE",
"194 91 CURVE SMOOTH",
"186 98 OFFCURVE",
"182 117 OFFCURVE",
"182 148 CURVE SMOOTH",
"182 180 OFFCURVE",
"186 200 OFFCURVE",
"194 207 CURVE SMOOTH",
"202 214 OFFCURVE",
"222 218 OFFCURVE",
"254 218 CURVE SMOOTH",
"354 218 LINE"
);
},
{
closed = 1;
nodes = (
"374 680 LINE",
"187 680 LINE",
"131 553 LINE",
"229 553 LINE",
"281 640 LINE",
"334 553 LINE",
"432 553 LINE"
);
}
);
width = 564;
}
);
unicode = 00E2;
},
{
glyphname = atilde;
lastChange = "2016-10-15 17:21:52 +0000";
layers = (
{
layerId = UUID0;
paths = (
{
closed = 1;
nodes = (
"500 333 LINE",
"500 397 OFFCURVE",
"483 440 OFFCURVE",
"448 461 CURVE SMOOTH",
"413 483 OFFCURVE",
"351 494 OFFCURVE",
"262 494 CURVE SMOOTH",
"194 494 OFFCURVE",
"132 491 OFFCURVE",
"77 484 CURVE",
"77 392 LINE",
"149 400 OFFCURVE",
"206 404 OFFCURVE",
"247 404 CURVE SMOOTH",
"291 404 OFFCURVE",
"320 399 OFFCURVE",
"333 389 CURVE",
"347 380 OFFCURVE",
"354 360 OFFCURVE",
"354 331 CURVE SMOOTH",
"354 298 LINE",
"190 298 LINE SMOOTH",
"133 298 OFFCURVE",
"94 287 OFFCURVE",
"72 264 CURVE SMOOTH",
"50 242 OFFCURVE",
"39 202 OFFCURVE",
"39 145 CURVE SMOOTH",
"39 82 OFFCURVE",
"50 40 OFFCURVE",
"71 20 CURVE SMOOTH",
"92 0 OFFCURVE",
"136 -10 OFFCURVE",
"201 -10 CURVE SMOOTH",
"254 -10 OFFCURVE",
"291 -6 OFFCURVE",
"311 2 CURVE SMOOTH",
"331 11 OFFCURVE",
"346 25 OFFCURVE",
"357 44 CURVE",
"357 0 LINE",
"500 0 LINE"
);
},
{
closed = 1;
nodes = (
"354 124 LINE",
"354 99 OFFCURVE",
"345 87 OFFCURVE",
"321 84 CURVE SMOOTH",
"302 81 OFFCURVE",
"291 81 OFFCURVE",
"258 81 CURVE SMOOTH",
"224 81 OFFCURVE",
"203 84 OFFCURVE",
"194 91 CURVE SMOOTH",
"186 98 OFFCURVE",
"182 117 OFFCURVE",
"182 148 CURVE SMOOTH",
"182 180 OFFCURVE",
"186 200 OFFCURVE",
"194 207 CURVE SMOOTH",
"202 214 OFFCURVE",
"222 218 OFFCURVE",
"254 218 CURVE SMOOTH",
"354 218 LINE"
);
},
{
closed = 1;
nodes = (
"333 659 OFFCURVE",
"315 664 OFFCURVE",
"289 674 CURVE SMOOTH",
"264 684 OFFCURVE",
"243 689 OFFCURVE",
"228 689 CURVE SMOOTH",
"204 689 OFFCURVE",
"184 680 OFFCURVE",
"167 661 CURVE SMOOTH",
"151 642 OFFCURVE",
"141 625 OFFCURVE",
"137 610 CURVE",
"177 586 LINE",
"186 608 OFFCURVE",
"200 619 OFFCURVE",
"219 619 CURVE SMOOTH",
"226 619 OFFCURVE",
"243 613 OFFCURVE",
"270 602 CURVE SMOOTH",
"297 591 OFFCURVE",
"318 586 OFFCURVE",
"335 586 CURVE SMOOTH",
"359 586 OFFCURVE",
"379 596 OFFCURVE",
"395 615 CURVE SMOOTH",
"411 634 OFFCURVE",
"421 652 OFFCURVE",
"426 668 CURVE",
"385 692 LINE",
"376 670 OFFCURVE",
"363 659 OFFCURVE",
"344 659 CURVE SMOOTH"
);
}
);
width = 564;
}
);
unicode = 00E3;
},
{
glyphname = adieresis;
lastChange = "2016-10-15 17:21:52 +0000";
layers = (
{
layerId = UUID0;
paths = (
{
closed = 1;
nodes = (
"500 333 LINE",
"500 397 OFFCURVE",
"483 440 OFFCURVE",
"448 461 CURVE SMOOTH",
"413 483 OFFCURVE",
"351 494 OFFCURVE",
"262 494 CURVE SMOOTH",
"194 494 OFFCURVE",
"132 491 OFFCURVE",
"77 484 CURVE",
"77 392 LINE",
"149 400 OFFCURVE",
"206 404 OFFCURVE",
"247 404 CURVE SMOOTH",
"291 404 OFFCURVE",
"320 399 OFFCURVE",
"333 389 CURVE",
"347 380 OFFCURVE",
"354 360 OFFCURVE",
"354 331 CURVE SMOOTH",
"354 298 LINE",
"190 298 LINE SMOOTH",
"133 298 OFFCURVE",
"94 287 OFFCURVE",
"72 264 CURVE SMOOTH",
"50 242 OFFCURVE",
"39 202 OFFCURVE",
"39 145 CURVE SMOOTH",
"39 82 OFFCURVE",
"50 40 OFFCURVE",
"71 20 CURVE SMOOTH",
"92 0 OFFCURVE",
"136 -10 OFFCURVE",
"201 -10 CURVE SMOOTH",
"254 -10 OFFCURVE",
"291 -6 OFFCURVE",
"311 2 CURVE SMOOTH",
"331 11 OFFCURVE",
"346 25 OFFCURVE",
"357 44 CURVE",
"357 0 LINE",
"500 0 LINE"
);
},
{
closed = 1;
nodes = (
"354 124 LINE",
"354 99 OFFCURVE",
"345 87 OFFCURVE",
"321 84 CURVE SMOOTH",
"302 81 OFFCURVE",
"291 81 OFFCURVE",
"258 81 CURVE SMOOTH",
"224 81 OFFCURVE",
"203 84 OFFCURVE",
"194 91 CURVE SMOOTH",
"186 98 OFFCURVE",
"182 117 OFFCURVE",
"182 148 CURVE SMOOTH",
"182 180 OFFCURVE",
"186 200 OFFCURVE",
"194 207 CURVE SMOOTH",
"202 214 OFFCURVE",
"222 218 OFFCURVE",
"254 218 CURVE SMOOTH",
"354 218 LINE"
);
},
{
closed = 1;
nodes = (
"440 683 LINE",
"314 683 LINE",
"314 565 LINE",
"440 565 LINE"
);
},
{
closed = 1;
nodes = (
"250 683 LINE",
"124 683 LINE",
"124 565 LINE",
"250 565 LINE"
);
}
);
width = 564;
}
);
unicode = 00E4;
},
{
glyphname = aring;
lastChange = "2016-10-15 17:21:52 +0000";
layers = (
{
layerId = UUID0;
paths = (
{
closed = 1;
nodes = (
"500 333 LINE",
"500 397 OFFCURVE",
"483 440 OFFCURVE",
"448 461 CURVE SMOOTH",
"413 483 OFFCURVE",
"351 494 OFFCURVE",
"262 494 CURVE SMOOTH",
"194 494 OFFCURVE",
"132 491 OFFCURVE",
"77 484 CURVE",
"77 392 LINE",
"149 400 OFFCURVE",
"206 404 OFFCURVE",
"247 404 CURVE SMOOTH",
"291 404 OFFCURVE",
"320 399 OFFCURVE",
"333 389 CURVE",
"347 380 OFFCURVE",
"354 360 OFFCURVE",
"354 331 CURVE SMOOTH",
"354 298 LINE",
"190 298 LINE SMOOTH",
"133 298 OFFCURVE",
"94 287 OFFCURVE",
"72 264 CURVE SMOOTH",
"50 242 OFFCURVE",
"39 202 OFFCURVE",
"39 145 CURVE SMOOTH",
"39 82 OFFCURVE",
"50 40 OFFCURVE",
"71 20 CURVE SMOOTH",
"92 0 OFFCURVE",
"136 -10 OFFCURVE",
"201 -10 CURVE SMOOTH",
"254 -10 OFFCURVE",
"291 -6 OFFCURVE",
"311 2 CURVE SMOOTH",
"331 11 OFFCURVE",
"346 25 OFFCURVE",
"357 44 CURVE",
"357 0 LINE",
"500 0 LINE"
);
},
{
closed = 1;
nodes = (
"354 124 LINE",
"354 99 OFFCURVE",
"345 87 OFFCURVE",
"321 84 CURVE SMOOTH",
"302 81 OFFCURVE",
"291 81 OFFCURVE",
"258 81 CURVE SMOOTH",
"224 81 OFFCURVE",
"203 84 OFFCURVE",
"194 91 CURVE SMOOTH",
"186 98 OFFCURVE",
"182 117 OFFCURVE",
"182 148 CURVE SMOOTH",
"182 180 OFFCURVE",
"186 200 OFFCURVE",
"194 207 CURVE SMOOTH",
"202 214 OFFCURVE",
"222 218 OFFCURVE",
"254 218 CURVE SMOOTH",
"354 218 LINE"
);
},
{
closed = 1;
nodes = (
"431 663 LINE",
"431 722 OFFCURVE",
"407 748 OFFCURVE",
"368 759 CURVE SMOOTH",
"340 767 OFFCURVE",
"321 767 OFFCURVE",
"282 767 CURVE SMOOTH",
"243 767 OFFCURVE",
"224 767 OFFCURVE",
"195 759 CURVE SMOOTH",
"181 755 OFFCURVE",
"170 749 OFFCURVE",
"162 742 CURVE SMOOTH",
"146 729 OFFCURVE",
"133 702 OFFCURVE",
"133 663 CURVE SMOOTH",
"133 651 LINE SMOOTH",
"133 607 OFFCURVE",
"147 579 OFFCURVE",
"178 567 CURVE SMOOTH",
"210 555 OFFCURVE",
"234 553 OFFCURVE",
"282 553 CURVE SMOOTH",
"330 553 OFFCURVE",
"354 555 OFFCURVE",
"385 567 CURVE SMOOTH",
"417 579 OFFCURVE",
"431 607 OFFCURVE",
"431 651 CURVE SMOOTH"
);
},
{
closed = 1;
nodes = (
"352 644 LINE",
"352 612 OFFCURVE",
"337 605 OFFCURVE",
"282 605 CURVE SMOOTH",
"227 605 OFFCURVE",
"212 612 OFFCURVE",
"212 644 CURVE SMOOTH",
"212 671 LINE SMOOTH",
"212 690 OFFCURVE",
"216 702 OFFCURVE",
"224 707 CURVE SMOOTH",
"232 712 OFFCURVE",
"251 715 OFFCURVE",
"282 715 CURVE SMOOTH",
"313 715 OFFCURVE",
"332 712 OFFCURVE",
"340 707 CURVE SMOOTH",
"348 702 OFFCURVE",
"352 690 OFFCURVE",
"352 671 CURVE SMOOTH"
);
}
);
width = 564;
}
);
unicode = 00E5;
},
{
glyphname = ae;
lastChange = "2016-10-15 17:21:52 +0000";
layers = (
{
layerId = UUID0;
paths = (
{
closed = 1;
nodes = (
"797 321 LINE",
"797 450 OFFCURVE",
"726 494 OFFCURVE",
"578 494 CURVE SMOOTH",
"509 494 OFFCURVE",
"458 484 OFFCURVE",
"423 463 CURVE",
"390 484 OFFCURVE",
"337 494 OFFCURVE",
"262 494 CURVE SMOOTH",
"194 494 OFFCURVE",
"132 491 OFFCURVE",
"77 484 CURVE",
"77 392 LINE",
"149 400 OFFCURVE",
"206 404 OFFCURVE",
"247 404 CURVE SMOOTH",
"291 404 OFFCURVE",
"320 399 OFFCURVE",
"333 389 CURVE",
"347 380 OFFCURVE",
"354 360 OFFCURVE",
"354 331 CURVE SMOOTH",
"354 298 LINE",
"190 298 LINE SMOOTH",
"133 298 OFFCURVE",
"94 287 OFFCURVE",
"72 264 CURVE SMOOTH",
"50 242 OFFCURVE",
"39 202 OFFCURVE",
"39 145 CURVE SMOOTH",
"39 82 OFFCURVE",
"50 40 OFFCURVE",
"71 20 CURVE SMOOTH",
"92 0 OFFCURVE",
"136 -10 OFFCURVE",
"201 -10 CURVE SMOOTH",
"256 -10 OFFCURVE",
"295 -5 OFFCURVE",
"317 6 CURVE SMOOTH",
"340 17 OFFCURVE",
"359 37 OFFCURVE",
"374 67 CURVE",
"406 16 OFFCURVE",
"480 -10 OFFCURVE",
"596 -10 CURVE SMOOTH",
"660 -10 OFFCURVE",
"723 -4 OFFCURVE",
"784 9 CURVE",
"784 102 LINE",
"724 88 OFFCURVE",
"671 81 OFFCURVE",
"624 81 CURVE SMOOTH",
"517 81 OFFCURVE",
"488 104 OFFCURVE",
"488 159 CURVE SMOOTH",
"488 203 LINE",
"797 203 LINE"
);
},
{
closed = 1;
nodes = (
"354 124 LINE",
"354 99 OFFCURVE",
"345 87 OFFCURVE",
"321 84 CURVE SMOOTH",
"302 81 OFFCURVE",
"291 81 OFFCURVE",
"258 81 CURVE SMOOTH",
"224 81 OFFCURVE",
"203 84 OFFCURVE",
"194 91 CURVE SMOOTH",
"186 98 OFFCURVE",
"182 117 OFFCURVE",
"182 148 CURVE SMOOTH",
"182 180 OFFCURVE",
"186 200 OFFCURVE",
"194 207 CURVE SMOOTH",
"202 214 OFFCURVE",
"222 218 OFFCURVE",
"254 218 CURVE SMOOTH",
"354 218 LINE"
);
},
{
closed = 1;
nodes = (
"488 286 LINE",
"488 356 LINE SMOOTH",
"488 388 OFFCURVE",
"505 404 OFFCURVE",
"576 404 CURVE SMOOTH",
"640 404 OFFCURVE",
"659 388 OFFCURVE",
"659 356 CURVE SMOOTH",
"659 286 LINE"
);
}
);
width = 845;
}
);
unicode = 00E6;
},
{
glyphname = ccedilla;
lastChange = "2016-10-15 17:21:52 +0000";
layers = (
{
layerId = UUID0;
paths = (
{
closed = 1;
nodes = (
"464 103 LINE",
"395 88 OFFCURVE",
"344 81 OFFCURVE",
"309 81 CURVE SMOOTH",
"235 81 OFFCURVE",
"198 107 OFFCURVE",
"198 158 CURVE SMOOTH",
"198 336 LINE SMOOTH",
"198 381 OFFCURVE",
"232 404 OFFCURVE",
"299 404 CURVE SMOOTH",
"335 404 OFFCURVE",
"388 396 OFFCURVE",
"457 380 CURVE",
"457 476 LINE",
"396 488 OFFCURVE",
"347 494 OFFCURVE",
"310 494 CURVE SMOOTH",
"266 494 OFFCURVE",
"246 494 OFFCURVE",
"205 489 CURVE SMOOTH",
"165 484 OFFCURVE",
"145 476 OFFCURVE",
"114 459 CURVE",
"74 435 OFFCURVE",
"50 390 OFFCURVE",
"50 318 CURVE SMOOTH",
"50 157 LINE SMOOTH",
"50 89 OFFCURVE",
"73 44 OFFCURVE",
"114 21 CURVE",
"155 0 OFFCURVE",
"194 -8 OFFCURVE",
"251 -9 CURVE",
"230 -39 LINE",
"204 -77 LINE SMOOTH",
"197 -88 OFFCURVE",
"194 -94 OFFCURVE",
"193 -96 CURVE",
"233 -96 LINE SMOOTH",
"283 -96 OFFCURVE",
"308 -109 OFFCURVE",
"308 -134 CURVE SMOOTH",
"308 -157 OFFCURVE",
"292 -169 OFFCURVE",
"261 -169 CURVE SMOOTH",
"240 -169 OFFCURVE",
"219 -163 OFFCURVE",
"199 -151 CURVE",
"177 -197 LINE",
"200 -212 OFFCURVE",
"231 -220 OFFCURVE",
"268 -220 CURVE SMOOTH",
"299 -220 OFFCURVE",
"327 -212 OFFCURVE",
"351 -197 CURVE SMOOTH",
"376 -182 OFFCURVE",
"388 -159 OFFCURVE",
"388 -129 CURVE SMOOTH",
"388 -77 OFFCURVE",
"346 -54 OFFCURVE",
"291 -50 CURVE",
"320 -9 LINE",
"361 -8 OFFCURVE",
"409 -3 OFFCURVE",
"464 7 CURVE"
);
}
);
width = 482;
}
);
unicode = 00E7;
},
{
glyphname = egrave;
lastChange = "2016-10-15 17:21:52 +0000";
layers = (
{
layerId = UUID0;
paths = (
{
closed = 1;
nodes = (
"511 321 LINE",
"511 450 OFFCURVE",
"438 494 OFFCURVE",
"289 494 CURVE SMOOTH",
"130 494 OFFCURVE",
"50 445 OFFCURVE",
"50 321 CURVE SMOOTH",
"50 147 LINE SMOOTH",
"50 42 OFFCURVE",
"136 -10 OFFCURVE",
"307 -10 CURVE SMOOTH",
"372 -10 OFFCURVE",
"436 -4 OFFCURVE",
"497 9 CURVE",
"497 102 LINE",
"437 88 OFFCURVE",
"383 81 OFFCURVE",
"335 81 CURVE SMOOTH",
"228 81 OFFCURVE",
"197 104 OFFCURVE",
"197 159 CURVE SMOOTH",
"197 203 LINE",
"511 203 LINE"
);
},
{
closed = 1;
nodes = (
"197 286 LINE",
"197 356 LINE SMOOTH",
"197 387 OFFCURVE",
"216 404 OFFCURVE",
"287 404 CURVE SMOOTH",
"351 404 OFFCURVE",
"372 387 OFFCURVE",
"372 356 CURVE SMOOTH",
"372 286 LINE"
);
},
{
closed = 1;
nodes = (
"263 680 LINE",
"104 680 LINE",
"229 553 LINE",
"353 553 LINE"
);
}
);
width = 559;
}
);
unicode = 00E8;
},
{
glyphname = eacute;
lastChange = "2016-10-15 17:21:52 +0000";
layers = (
{
layerId = UUID0;
paths = (
{
closed = 1;
nodes = (
"511 321 LINE",
"511 450 OFFCURVE",
"438 494 OFFCURVE",
"289 494 CURVE SMOOTH",
"130 494 OFFCURVE",
"50 445 OFFCURVE",
"50 321 CURVE SMOOTH",
"50 147 LINE SMOOTH",
"50 42 OFFCURVE",
"136 -10 OFFCURVE",
"307 -10 CURVE SMOOTH",
"372 -10 OFFCURVE",
"436 -4 OFFCURVE",
"497 9 CURVE",
"497 102 LINE",
"437 88 OFFCURVE",
"383 81 OFFCURVE",
"335 81 CURVE SMOOTH",
"228 81 OFFCURVE",
"197 104 OFFCURVE",
"197 159 CURVE SMOOTH",
"197 203 LINE",
"511 203 LINE"
);
},
{
closed = 1;
nodes = (
"197 286 LINE",
"197 356 LINE SMOOTH",
"197 387 OFFCURVE",
"216 404 OFFCURVE",
"287 404 CURVE SMOOTH",
"351 404 OFFCURVE",
"372 387 OFFCURVE",
"372 356 CURVE SMOOTH",
"372 286 LINE"
);
},
{
closed = 1;
nodes = (
"302 680 LINE",
"212 553 LINE",
"336 553 LINE",
"461 680 LINE"
);
}
);
width = 559;
}
);
unicode = 00E9;
},
{
glyphname = ecircumflex;
lastChange = "2016-10-15 17:21:52 +0000";
layers = (
{
layerId = UUID0;
paths = (
{
closed = 1;
nodes = (
"511 321 LINE",
"511 450 OFFCURVE",
"438 494 OFFCURVE",
"289 494 CURVE SMOOTH",
"130 494 OFFCURVE",
"50 445 OFFCURVE",
"50 321 CURVE SMOOTH",
"50 147 LINE SMOOTH",
"50 42 OFFCURVE",
"136 -10 OFFCURVE",
"307 -10 CURVE SMOOTH",
"372 -10 OFFCURVE",
"436 -4 OFFCURVE",
"497 9 CURVE",
"497 102 LINE",
"437 88 OFFCURVE",
"383 81 OFFCURVE",
"335 81 CURVE SMOOTH",
"228 81 OFFCURVE",
"197 104 OFFCURVE",
"197 159 CURVE SMOOTH",
"197 203 LINE",
"511 203 LINE"
);
},
{
closed = 1;
nodes = (
"197 286 LINE",
"197 356 LINE SMOOTH",
"197 387 OFFCURVE",
"216 404 OFFCURVE",
"287 404 CURVE SMOOTH",
"351 404 OFFCURVE",
"372 387 OFFCURVE",
"372 356 CURVE SMOOTH",
"372 286 LINE"
);
},
{
closed = 1;
nodes = (
"380 680 LINE",
"193 680 LINE",
"137 553 LINE",
"235 553 LINE",
"287 640 LINE",
"340 553 LINE",
"438 553 LINE"
);
}
);
width = 559;
}
);
unicode = 00EA;
},
{
glyphname = edieresis;
lastChange = "2016-10-15 17:21:52 +0000";
layers = (
{
layerId = UUID0;
paths = (
{
closed = 1;
nodes = (
"511 321 LINE",
"511 450 OFFCURVE",
"438 494 OFFCURVE",
"289 494 CURVE SMOOTH",
"130 494 OFFCURVE",
"50 445 OFFCURVE",
"50 321 CURVE SMOOTH",
"50 147 LINE SMOOTH",
"50 42 OFFCURVE",
"136 -10 OFFCURVE",
"307 -10 CURVE SMOOTH",
"372 -10 OFFCURVE",
"436 -4 OFFCURVE",
"497 9 CURVE",
"497 102 LINE",
"437 88 OFFCURVE",
"383 81 OFFCURVE",
"335 81 CURVE SMOOTH",
"228 81 OFFCURVE",
"197 104 OFFCURVE",
"197 159 CURVE SMOOTH",
"197 203 LINE",
"511 203 LINE"
);
},
{
closed = 1;
nodes = (
"197 286 LINE",
"197 356 LINE SMOOTH",
"197 387 OFFCURVE",
"216 404 OFFCURVE",
"287 404 CURVE SMOOTH",
"351 404 OFFCURVE",
"372 387 OFFCURVE",
"372 356 CURVE SMOOTH",
"372 286 LINE"
);
},
{
closed = 1;
nodes = (
"437 683 LINE",
"311 683 LINE",
"311 565 LINE",
"437 565 LINE"
);
},
{
closed = 1;
nodes = (
"247 683 LINE",
"121 683 LINE",
"121 565 LINE",
"247 565 LINE"
);
}
);
width = 559;
}
);
unicode = 00EB;
},
{
glyphname = igrave;
lastChange = "2016-10-15 17:21:52 +0000";
layers = (
{
layerId = UUID0;
paths = (
{
closed = 1;
nodes = (
"214 484 LINE",
"68 484 LINE",
"68 0 LINE",
"214 0 LINE"
);
},
{
closed = 1;
nodes = (
"176 680 LINE",
"17 680 LINE",
"142 553 LINE",
"266 553 LINE"
);
}
);
width = 282;
}
);
unicode = 00EC;
},
{
glyphname = iacute;
lastChange = "2016-10-15 17:21:52 +0000";
layers = (
{
layerId = UUID0;
paths = (
{
closed = 1;
nodes = (
"214 484 LINE",
"68 484 LINE",
"68 0 LINE",
"214 0 LINE"
);
},
{
closed = 1;
nodes = (
"107 680 LINE",
"17 553 LINE",
"141 553 LINE",
"266 680 LINE"
);
}
);
width = 282;
}
);
unicode = 00ED;
},
{
glyphname = icircumflex;
lastChange = "2016-10-15 17:21:52 +0000";
layers = (
{
layerId = UUID0;
paths = (
{
closed = 1;
nodes = (
"214 484 LINE",
"68 484 LINE",
"68 0 LINE",
"214 0 LINE"
);
},
{
closed = 1;
nodes = (
"234 680 LINE",
"47 680 LINE",
"-9 553 LINE",
"89 553 LINE",
"141 640 LINE",
"194 553 LINE",
"292 553 LINE"
);
}
);
width = 282;
}
);
unicode = 00EE;
},
{
glyphname = idieresis;
lastChange = "2016-10-15 17:21:52 +0000";
layers = (
{
layerId = UUID0;
paths = (
{
closed = 1;
nodes = (
"214 484 LINE",
"68 484 LINE",
"68 0 LINE",
"214 0 LINE"
);
},
{
closed = 1;
nodes = (
"299 683 LINE",
"173 683 LINE",
"173 565 LINE",
"299 565 LINE"
);
},
{
closed = 1;
nodes = (
"109 683 LINE",
"-17 683 LINE",
"-17 565 LINE",
"109 565 LINE"
);
}
);
width = 282;
}
);
unicode = 00EF;
},
{
glyphname = eth;
lastChange = "2016-10-15 17:21:52 +0000";
layers = (
{
layerId = UUID0;
paths = (
{
closed = 1;
nodes = (
"316 584 LINE",
"339 553 OFFCURVE",
"359 522 OFFCURVE",
"376 490 CURVE",
"352 493 OFFCURVE",
"325 494 OFFCURVE",
"296 494 CURVE SMOOTH",
"241 494 OFFCURVE",
"210 493 OFFCURVE",
"162 478 CURVE SMOOTH",
"138 471 OFFCURVE",
"118 462 OFFCURVE",
"103 449 CURVE SMOOTH",
"74 424 OFFCURVE",
"50 376 OFFCURVE",
"50 309 CURVE SMOOTH",
"50 166 LINE",
"53 70 OFFCURVE",
"93 23 OFFCURVE",
"159 5 CURVE SMOOTH",
"207 -8 OFFCURVE",
"240 -10 OFFCURVE",
"296 -10 CURVE SMOOTH",
"352 -10 OFFCURVE",
"385 -8 OFFCURVE",
"432 5 CURVE SMOOTH",
"456 12 OFFCURVE",
"475 21 OFFCURVE",
"490 33 CURVE SMOOTH",
"519 58 OFFCURVE",
"542 103 OFFCURVE",
"542 166 CURVE SMOOTH",
"542 321 LINE SMOOTH",
"542 426 OFFCURVE",
"505 525 OFFCURVE",
"430 618 CURVE",
"480 633 LINE",
"480 700 LINE",
"383 671 LINE",
"374 681 OFFCURVE",
"364 691 OFFCURVE",
"354 700 CURVE",
"212 700 LINE",
"239 673 OFFCURVE",
"259 653 OFFCURVE",
"272 638 CURVE",
"219 622 LINE",
"219 555 LINE"
);
},
{
closed = 1;
nodes = (
"396 149 LINE",
"396 98 OFFCURVE",
"377 81 OFFCURVE",
"296 81 CURVE SMOOTH",
"215 81 OFFCURVE",
"196 98 OFFCURVE",
"196 149 CURVE SMOOTH",
"196 332 LINE SMOOTH",
"196 384 OFFCURVE",
"216 404 OFFCURVE",
"296 404 CURVE SMOOTH",
"376 404 OFFCURVE",
"396 384 OFFCURVE",
"396 332 CURVE SMOOTH"
);
}
);
width = 592;
}
);
unicode = 00F0;
},
{
glyphname = ntilde;
lastChange = "2016-10-15 17:21:52 +0000";
layers = (
{
layerId = UUID0;
paths = (
{
closed = 1;
nodes = (
"531 355 LINE",
"531 448 OFFCURVE",
"491 494 OFFCURVE",
"363 494 CURVE SMOOTH",
"271 494 OFFCURVE",
"219 471 OFFCURVE",
"208 425 CURVE",
"208 484 LINE",
"64 484 LINE",
"64 0 LINE",
"210 0 LINE",
"210 336 LINE SMOOTH",
"210 363 OFFCURVE",
"216 381 OFFCURVE",
"227 390 CURVE SMOOTH",
"238 399 OFFCURVE",
"265 404 OFFCURVE",
"307 404 CURVE SMOOTH",
"341 404 OFFCURVE",
"362 399 OFFCURVE",
"371 390 CURVE SMOOTH",
"380 381 OFFCURVE",
"385 363 OFFCURVE",
"385 336 CURVE SMOOTH",
"385 0 LINE",
"531 0 LINE"
);
},
{
closed = 1;
nodes = (
"349 659 OFFCURVE",
"331 664 OFFCURVE",
"305 674 CURVE SMOOTH",
"280 684 OFFCURVE",
"259 689 OFFCURVE",
"244 689 CURVE SMOOTH",
"220 689 OFFCURVE",
"200 680 OFFCURVE",
"183 661 CURVE SMOOTH",
"167 642 OFFCURVE",
"157 625 OFFCURVE",
"153 610 CURVE",
"193 586 LINE",
"202 608 OFFCURVE",
"216 619 OFFCURVE",
"235 619 CURVE SMOOTH",
"242 619 OFFCURVE",
"259 613 OFFCURVE",
"286 602 CURVE SMOOTH",
"313 591 OFFCURVE",
"334 586 OFFCURVE",
"351 586 CURVE SMOOTH",
"375 586 OFFCURVE",
"395 596 OFFCURVE",
"411 615 CURVE SMOOTH",
"427 634 OFFCURVE",
"437 652 OFFCURVE",
"442 668 CURVE",
"401 692 LINE",
"392 670 OFFCURVE",
"379 659 OFFCURVE",
"360 659 CURVE SMOOTH"
);
}
);
width = 595;
}
);
unicode = 00F1;
},
{
glyphname = ograve;
lastChange = "2016-10-15 17:21:52 +0000";
layers = (
{
layerId = UUID0;
paths = (
{
closed = 1;
nodes = (
"542 309 LINE",
"538 412 OFFCURVE",
"498 460 OFFCURVE",
"430 478 CURVE",
"382 493 OFFCURVE",
"351 494 OFFCURVE",
"296 494 CURVE SMOOTH",
"241 494 OFFCURVE",
"210 493 OFFCURVE",
"162 478 CURVE SMOOTH",
"138 471 OFFCURVE",
"118 462 OFFCURVE",
"103 449 CURVE SMOOTH",
"74 424 OFFCURVE",
"50 376 OFFCURVE",
"50 309 CURVE SMOOTH",
"50 166 LINE",
"53 70 OFFCURVE",
"93 23 OFFCURVE",
"159 5 CURVE SMOOTH",
"207 -8 OFFCURVE",
"240 -10 OFFCURVE",
"296 -10 CURVE SMOOTH",
"352 -10 OFFCURVE",
"385 -8 OFFCURVE",
"432 5 CURVE SMOOTH",
"456 12 OFFCURVE",
"475 21 OFFCURVE",
"490 33 CURVE SMOOTH",
"519 58 OFFCURVE",
"542 103 OFFCURVE",
"542 166 CURVE SMOOTH"
);
},
{
closed = 1;
nodes = (
"396 149 LINE",
"396 98 OFFCURVE",
"377 81 OFFCURVE",
"296 81 CURVE SMOOTH",
"215 81 OFFCURVE",
"196 98 OFFCURVE",
"196 149 CURVE SMOOTH",
"196 332 LINE SMOOTH",
"196 384 OFFCURVE",
"216 404 OFFCURVE",
"296 404 CURVE SMOOTH",
"376 404 OFFCURVE",
"396 384 OFFCURVE",
"396 332 CURVE SMOOTH"
);
},
{
closed = 1;
nodes = (
"275 680 LINE",
"116 680 LINE",
"241 553 LINE",
"365 553 LINE"
);
}
);
width = 592;
}
);
unicode = 00F2;
},
{
glyphname = oacute;
lastChange = "2016-10-15 17:21:52 +0000";
layers = (
{
layerId = UUID0;
paths = (
{
closed = 1;
nodes = (
"542 309 LINE",
"538 412 OFFCURVE",
"498 460 OFFCURVE",
"430 478 CURVE",
"382 493 OFFCURVE",
"351 494 OFFCURVE",
"296 494 CURVE SMOOTH",
"241 494 OFFCURVE",
"210 493 OFFCURVE",
"162 478 CURVE SMOOTH",
"138 471 OFFCURVE",
"118 462 OFFCURVE",
"103 449 CURVE SMOOTH",
"74 424 OFFCURVE",
"50 376 OFFCURVE",
"50 309 CURVE SMOOTH",
"50 166 LINE",
"53 70 OFFCURVE",
"93 23 OFFCURVE",
"159 5 CURVE SMOOTH",
"207 -8 OFFCURVE",
"240 -10 OFFCURVE",
"296 -10 CURVE SMOOTH",
"352 -10 OFFCURVE",
"385 -8 OFFCURVE",
"432 5 CURVE SMOOTH",
"456 12 OFFCURVE",
"475 21 OFFCURVE",
"490 33 CURVE SMOOTH",
"519 58 OFFCURVE",
"542 103 OFFCURVE",
"542 166 CURVE SMOOTH"
);
},
{
closed = 1;
nodes = (
"396 149 LINE",
"396 98 OFFCURVE",
"377 81 OFFCURVE",
"296 81 CURVE SMOOTH",
"215 81 OFFCURVE",
"196 98 OFFCURVE",
"196 149 CURVE SMOOTH",
"196 332 LINE SMOOTH",
"196 384 OFFCURVE",
"216 404 OFFCURVE",
"296 404 CURVE SMOOTH",
"376 404 OFFCURVE",
"396 384 OFFCURVE",
"396 332 CURVE SMOOTH"
);
},
{
closed = 1;
nodes = (
"315 680 LINE",
"225 553 LINE",
"349 553 LINE",
"474 680 LINE"
);
}
);
width = 592;
}
);
unicode = 00F3;
},
{
glyphname = ocircumflex;
lastChange = "2016-10-15 17:21:52 +0000";
layers = (
{
layerId = UUID0;
paths = (
{
closed = 1;
nodes = (
"542 309 LINE",
"538 412 OFFCURVE",
"498 460 OFFCURVE",
"430 478 CURVE",
"382 493 OFFCURVE",
"351 494 OFFCURVE",
"296 494 CURVE SMOOTH",
"241 494 OFFCURVE",
"210 493 OFFCURVE",
"162 478 CURVE SMOOTH",
"138 471 OFFCURVE",
"118 462 OFFCURVE",
"103 449 CURVE SMOOTH",
"74 424 OFFCURVE",
"50 376 OFFCURVE",
"50 309 CURVE SMOOTH",
"50 166 LINE",
"53 70 OFFCURVE",
"93 23 OFFCURVE",
"159 5 CURVE SMOOTH",
"207 -8 OFFCURVE",
"240 -10 OFFCURVE",
"296 -10 CURVE SMOOTH",
"352 -10 OFFCURVE",
"385 -8 OFFCURVE",
"432 5 CURVE SMOOTH",
"456 12 OFFCURVE",
"475 21 OFFCURVE",
"490 33 CURVE SMOOTH",
"519 58 OFFCURVE",
"542 103 OFFCURVE",
"542 166 CURVE SMOOTH"
);
},
{
closed = 1;
nodes = (
"396 149 LINE",
"396 98 OFFCURVE",
"377 81 OFFCURVE",
"296 81 CURVE SMOOTH",
"215 81 OFFCURVE",
"196 98 OFFCURVE",
"196 149 CURVE SMOOTH",
"196 332 LINE SMOOTH",
"196 384 OFFCURVE",
"216 404 OFFCURVE",
"296 404 CURVE SMOOTH",
"376 404 OFFCURVE",
"396 384 OFFCURVE",
"396 332 CURVE SMOOTH"
);
},
{
closed = 1;
nodes = (
"388 680 LINE",
"201 680 LINE",
"145 553 LINE",
"243 553 LINE",
"295 640 LINE",
"348 553 LINE",
"446 553 LINE"
);
}
);
width = 592;
}
);
unicode = 00F4;
},
{
glyphname = otilde;
lastChange = "2016-10-15 17:21:52 +0000";
layers = (
{
layerId = UUID0;
paths = (
{
closed = 1;
nodes = (
"542 309 LINE",
"538 412 OFFCURVE",
"498 460 OFFCURVE",
"430 478 CURVE",
"382 493 OFFCURVE",
"351 494 OFFCURVE",
"296 494 CURVE SMOOTH",
"241 494 OFFCURVE",
"210 493 OFFCURVE",
"162 478 CURVE SMOOTH",
"138 471 OFFCURVE",
"118 462 OFFCURVE",
"103 449 CURVE SMOOTH",
"74 424 OFFCURVE",
"50 376 OFFCURVE",
"50 309 CURVE SMOOTH",
"50 166 LINE",
"53 70 OFFCURVE",
"93 23 OFFCURVE",
"159 5 CURVE SMOOTH",
"207 -8 OFFCURVE",
"240 -10 OFFCURVE",
"296 -10 CURVE SMOOTH",
"352 -10 OFFCURVE",
"385 -8 OFFCURVE",
"432 5 CURVE SMOOTH",
"456 12 OFFCURVE",
"475 21 OFFCURVE",
"490 33 CURVE SMOOTH",
"519 58 OFFCURVE",
"542 103 OFFCURVE",
"542 166 CURVE SMOOTH"
);
},
{
closed = 1;
nodes = (
"396 149 LINE",
"396 98 OFFCURVE",
"377 81 OFFCURVE",
"296 81 CURVE SMOOTH",
"215 81 OFFCURVE",
"196 98 OFFCURVE",
"196 149 CURVE SMOOTH",
"196 332 LINE SMOOTH",
"196 384 OFFCURVE",
"216 404 OFFCURVE",
"296 404 CURVE SMOOTH",
"376 404 OFFCURVE",
"396 384 OFFCURVE",
"396 332 CURVE SMOOTH"
);
},
{
closed = 1;
nodes = (
"347 659 OFFCURVE",
"329 664 OFFCURVE",
"303 674 CURVE SMOOTH",
"278 684 OFFCURVE",
"257 689 OFFCURVE",
"242 689 CURVE SMOOTH",
"218 689 OFFCURVE",
"198 680 OFFCURVE",
"181 661 CURVE SMOOTH",
"165 642 OFFCURVE",
"155 625 OFFCURVE",
"151 610 CURVE",
"191 586 LINE",
"200 608 OFFCURVE",
"214 619 OFFCURVE",
"233 619 CURVE SMOOTH",
"240 619 OFFCURVE",
"257 613 OFFCURVE",
"284 602 CURVE SMOOTH",
"311 591 OFFCURVE",
"332 586 OFFCURVE",
"349 586 CURVE SMOOTH",
"373 586 OFFCURVE",
"393 596 OFFCURVE",
"409 615 CURVE SMOOTH",
"425 634 OFFCURVE",
"435 652 OFFCURVE",
"440 668 CURVE",
"399 692 LINE",
"390 670 OFFCURVE",
"377 659 OFFCURVE",
"358 659 CURVE SMOOTH"
);
}
);
width = 592;
}
);
unicode = 00F5;
},
{
glyphname = odieresis;
lastChange = "2016-10-15 17:21:52 +0000";
layers = (
{
layerId = UUID0;
paths = (
{
closed = 1;
nodes = (
"542 309 LINE",
"538 412 OFFCURVE",
"498 460 OFFCURVE",
"430 478 CURVE",
"382 493 OFFCURVE",
"351 494 OFFCURVE",
"296 494 CURVE SMOOTH",
"241 494 OFFCURVE",
"210 493 OFFCURVE",
"162 478 CURVE SMOOTH",
"138 471 OFFCURVE",
"118 462 OFFCURVE",
"103 449 CURVE SMOOTH",
"74 424 OFFCURVE",
"50 376 OFFCURVE",
"50 309 CURVE SMOOTH",
"50 166 LINE",
"53 70 OFFCURVE",
"93 23 OFFCURVE",
"159 5 CURVE SMOOTH",
"207 -8 OFFCURVE",
"240 -10 OFFCURVE",
"296 -10 CURVE SMOOTH",
"352 -10 OFFCURVE",
"385 -8 OFFCURVE",
"432 5 CURVE SMOOTH",
"456 12 OFFCURVE",
"475 21 OFFCURVE",
"490 33 CURVE SMOOTH",
"519 58 OFFCURVE",
"542 103 OFFCURVE",
"542 166 CURVE SMOOTH"
);
},
{
closed = 1;
nodes = (
"396 149 LINE",
"396 98 OFFCURVE",
"377 81 OFFCURVE",
"296 81 CURVE SMOOTH",
"215 81 OFFCURVE",
"196 98 OFFCURVE",
"196 149 CURVE SMOOTH",
"196 332 LINE SMOOTH",
"196 384 OFFCURVE",
"216 404 OFFCURVE",
"296 404 CURVE SMOOTH",
"376 404 OFFCURVE",
"396 384 OFFCURVE",
"396 332 CURVE SMOOTH"
);
},
{
closed = 1;
nodes = (
"454 683 LINE",
"328 683 LINE",
"328 565 LINE",
"454 565 LINE"
);
},
{
closed = 1;
nodes = (
"264 683 LINE",
"138 683 LINE",
"138 565 LINE",
"264 565 LINE"
);
}
);
width = 592;
}
);
unicode = 00F6;
},
{
glyphname = divide;
lastChange = "2016-10-15 17:21:52 +0000";
layers = (
{
layerId = UUID0;
paths = (
{
closed = 1;
nodes = (
"510 365 LINE",
"70 365 LINE",
"70 264 LINE",
"510 264 LINE"
);
},
{
closed = 1;
nodes = (
"358 554 LINE",
"222 554 LINE",
"222 426 LINE",
"358 426 LINE"
);
},
{
closed = 1;
nodes = (
"358 198 LINE",
"222 198 LINE",
"222 70 LINE",
"358 70 LINE"
);
}
);
width = 580;
}
);
unicode = 00F7;
},
{
glyphname = oslash;
lastChange = "2016-10-15 17:21:52 +0000";
layers = (
{
layerId = UUID0;
paths = (
{
closed = 1;
nodes = (
"546 309 LINE",
"542 412 OFFCURVE",
"501 460 OFFCURVE",
"433 478 CURVE",
"385 493 OFFCURVE",
"353 494 OFFCURVE",
"298 494 CURVE SMOOTH",
"243 494 OFFCURVE",
"211 493 OFFCURVE",
"163 478 CURVE SMOOTH",
"139 471 OFFCURVE",
"119 462 OFFCURVE",
"104 449 CURVE SMOOTH",
"75 424 OFFCURVE",
"50 376 OFFCURVE",
"50 309 CURVE SMOOTH",
"50 166 LINE",
"54 70 OFFCURVE",
"93 23 OFFCURVE",
"161 5 CURVE SMOOTH",
"209 -8 OFFCURVE",
"242 -10 OFFCURVE",
"298 -10 CURVE SMOOTH",
"354 -10 OFFCURVE",
"387 -8 OFFCURVE",
"435 5 CURVE SMOOTH",
"459 12 OFFCURVE",
"478 21 OFFCURVE",
"493 33 CURVE SMOOTH",
"522 58 OFFCURVE",
"546 103 OFFCURVE",
"546 166 CURVE SMOOTH"
);
},
{
closed = 1;
nodes = (
"196 151 LINE",
"196 338 LINE SMOOTH",
"196 391 OFFCURVE",
"217 411 OFFCURVE",
"298 411 CURVE SMOOTH",
"325 411 OFFCURVE",
"345 409 OFFCURVE",
"359 404 CURVE"
);
},
{
closed = 1;
nodes = (
"400 141 LINE",
"400 89 OFFCURVE",
"381 75 OFFCURVE",
"298 75 CURVE SMOOTH",
"270 75 OFFCURVE",
"250 77 OFFCURVE",
"239 80 CURVE",
"400 330 LINE"
);
}
);
width = 597;
}
);
unicode = 00F8;
},
{
glyphname = ugrave;
lastChange = "2016-10-15 17:21:52 +0000";
layers = (
{
layerId = UUID0;
paths = (
{
closed = 1;
nodes = (
"531 484 LINE",
"385 484 LINE",
"385 149 LINE SMOOTH",
"385 122 OFFCURVE",
"379 103 OFFCURVE",
"368 94 CURVE SMOOTH",
"357 85 OFFCURVE",
"330 81 OFFCURVE",
"288 81 CURVE SMOOTH",
"254 81 OFFCURVE",
"232 86 OFFCURVE",
"223 95 CURVE SMOOTH",
"214 104 OFFCURVE",
"210 122 OFFCURVE",
"210 149 CURVE SMOOTH",
"210 484 LINE",
"64 484 LINE",
"64 129 LINE SMOOTH",
"64 36 OFFCURVE",
"104 -10 OFFCURVE",
"232 -10 CURVE SMOOTH",
"324 -10 OFFCURVE",
"376 13 OFFCURVE",
"387 59 CURVE",
"387 0 LINE",
"531 0 LINE"
);
},
{
closed = 1;
nodes = (
"332 680 LINE",
"173 680 LINE",
"298 553 LINE",
"422 553 LINE"
);
}
);
width = 595;
}
);
unicode = 00F9;
},
{
glyphname = uacute;
lastChange = "2016-10-15 17:21:52 +0000";
layers = (
{
layerId = UUID0;
paths = (
{
closed = 1;
nodes = (
"531 484 LINE",
"385 484 LINE",
"385 149 LINE SMOOTH",
"385 122 OFFCURVE",
"379 103 OFFCURVE",
"368 94 CURVE SMOOTH",
"357 85 OFFCURVE",
"330 81 OFFCURVE",
"288 81 CURVE SMOOTH",
"254 81 OFFCURVE",
"232 86 OFFCURVE",
"223 95 CURVE SMOOTH",
"214 104 OFFCURVE",
"210 122 OFFCURVE",
"210 149 CURVE SMOOTH",
"210 484 LINE",
"64 484 LINE",
"64 129 LINE SMOOTH",
"64 36 OFFCURVE",
"104 -10 OFFCURVE",
"232 -10 CURVE SMOOTH",
"324 -10 OFFCURVE",
"376 13 OFFCURVE",
"387 59 CURVE",
"387 0 LINE",
"531 0 LINE"
);
},
{
closed = 1;
nodes = (
"263 680 LINE",
"173 553 LINE",
"297 553 LINE",
"422 680 LINE"
);
}
);
width = 595;
}
);
unicode = 00FA;
},
{
glyphname = ucircumflex;
lastChange = "2016-10-15 17:21:52 +0000";
layers = (
{
layerId = UUID0;
paths = (
{
closed = 1;
nodes = (
"531 484 LINE",
"385 484 LINE",
"385 149 LINE SMOOTH",
"385 122 OFFCURVE",
"379 103 OFFCURVE",
"368 94 CURVE SMOOTH",
"357 85 OFFCURVE",
"330 81 OFFCURVE",
"288 81 CURVE SMOOTH",
"254 81 OFFCURVE",
"232 86 OFFCURVE",
"223 95 CURVE SMOOTH",
"214 104 OFFCURVE",
"210 122 OFFCURVE",
"210 149 CURVE SMOOTH",
"210 484 LINE",
"64 484 LINE",
"64 129 LINE SMOOTH",
"64 36 OFFCURVE",
"104 -10 OFFCURVE",
"232 -10 CURVE SMOOTH",
"324 -10 OFFCURVE",
"376 13 OFFCURVE",
"387 59 CURVE",
"387 0 LINE",
"531 0 LINE"
);
},
{
closed = 1;
nodes = (
"390 680 LINE",
"203 680 LINE",
"147 553 LINE",
"245 553 LINE",
"297 640 LINE",
"350 553 LINE",
"448 553 LINE"
);
}
);
width = 595;
}
);
unicode = 00FB;
},
{
glyphname = udieresis;
lastChange = "2016-10-15 17:21:52 +0000";
layers = (
{
layerId = UUID0;
paths = (
{
closed = 1;
nodes = (
"531 484 LINE",
"385 484 LINE",
"385 149 LINE SMOOTH",
"385 122 OFFCURVE",
"379 103 OFFCURVE",
"368 94 CURVE SMOOTH",
"357 85 OFFCURVE",
"330 81 OFFCURVE",
"288 81 CURVE SMOOTH",
"254 81 OFFCURVE",
"232 86 OFFCURVE",
"223 95 CURVE SMOOTH",
"214 104 OFFCURVE",
"210 122 OFFCURVE",
"210 149 CURVE SMOOTH",
"210 484 LINE",
"64 484 LINE",
"64 129 LINE SMOOTH",
"64 36 OFFCURVE",
"104 -10 OFFCURVE",
"232 -10 CURVE SMOOTH",
"324 -10 OFFCURVE",
"376 13 OFFCURVE",
"387 59 CURVE",
"387 0 LINE",
"531 0 LINE"
);
},
{
closed = 1;
nodes = (
"455 683 LINE",
"329 683 LINE",
"329 565 LINE",
"455 565 LINE"
);
},
{
closed = 1;
nodes = (
"265 683 LINE",
"139 683 LINE",
"139 565 LINE",
"265 565 LINE"
);
}
);
width = 595;
}
);
unicode = 00FC;
},
{
glyphname = yacute;
lastChange = "2016-10-15 17:21:52 +0000";
layers = (
{
layerId = UUID0;
paths = (
{
closed = 1;
nodes = (
"375 484 LINE",
"276 142 LINE",
"167 484 LINE",
"8 484 LINE",
"201 4 LINE",
"113 -208 LINE",
"261 -208 LINE",
"526 484 LINE"
);
},
{
closed = 1;
nodes = (
"270 680 LINE",
"180 553 LINE",
"304 553 LINE",
"429 680 LINE"
);
}
);
width = 534;
}
);
unicode = 00FD;
},
{
glyphname = thorn;
lastChange = "2016-10-15 17:21:52 +0000";
layers = (
{
layerId = UUID0;
paths = (
{
closed = 1;
nodes = (
"559 331 LINE",
"559 390 OFFCURVE",
"553 422 OFFCURVE",
"526 451 CURVE SMOOTH",
"499 482 OFFCURVE",
"449 494 OFFCURVE",
"366 494 CURVE SMOOTH",
"283 494 OFFCURVE",
"231 479 OFFCURVE",
"210 450 CURVE",
"210 700 LINE",
"64 700 LINE",
"64 -209 LINE",
"210 -209 LINE",
"210 49 LINE",
"223 0 OFFCURVE",
"264 -10 OFFCURVE",
"355 -10 CURVE SMOOTH",
"427 -10 OFFCURVE",
"479 2 OFFCURVE",
"511 27 CURVE SMOOTH",
"543 52 OFFCURVE",
"559 100 OFFCURVE",
"559 172 CURVE SMOOTH"
);
},
{
closed = 1;
nodes = (
"413 153 LINE",
"413 124 OFFCURVE",
"406 105 OFFCURVE",
"393 95 CURVE SMOOTH",
"380 86 OFFCURVE",
"353 81 OFFCURVE",
"310 81 CURVE SMOOTH",
"267 81 OFFCURVE",
"240 86 OFFCURVE",
"228 95 CURVE SMOOTH",
"216 105 OFFCURVE",
"210 124 OFFCURVE",
"210 153 CURVE SMOOTH",
"210 332 LINE SMOOTH",
"210 359 OFFCURVE",
"216 377 OFFCURVE",
"228 388 CURVE SMOOTH",
"241 399 OFFCURVE",
"268 404 OFFCURVE",
"309 404 CURVE SMOOTH",
"355 404 OFFCURVE",
"384 400 OFFCURVE",
"395 391 CURVE",
"407 383 OFFCURVE",
"413 363 OFFCURVE",
"413 332 CURVE SMOOTH"
);
}
);
width = 613;
}
);
unicode = 00FE;
},
{
glyphname = ydieresis;
lastChange = "2016-10-15 17:21:52 +0000";
layers = (
{
layerId = UUID0;
paths = (
{
closed = 1;
nodes = (
"375 484 LINE",
"276 142 LINE",
"167 484 LINE",
"8 484 LINE",
"201 4 LINE",
"113 -208 LINE",
"261 -208 LINE",
"526 484 LINE"
);
},
{
closed = 1;
nodes = (
"416 683 LINE",
"290 683 LINE",
"290 565 LINE",
"416 565 LINE"
);
},
{
closed = 1;
nodes = (
"226 683 LINE",
"100 683 LINE",
"100 565 LINE",
"226 565 LINE"
);
}
);
width = 534;
}
);
unicode = 00FF;
},
{
glyphname = Amacron;
lastChange = "2016-10-15 17:21:52 +0000";
layers = (
{
layerId = UUID0;
paths = (
{
closed = 1;
nodes = (
"432 649 LINE",
"242 649 LINE",
"2 0 LINE",
"156 0 LINE",
"213 171 LINE",
"450 171 LINE",
"508 0 LINE",
"666 0 LINE"
);
},
{
closed = 1;
nodes = (
"248 275 LINE",
"330 519 LINE",
"334 519 LINE",
"416 275 LINE"
);
},
{
closed = 1;
nodes = (
"473 814 LINE",
"195 814 LINE",
"195 725 LINE",
"473 725 LINE"
);
}
);
width = 668;
}
);
unicode = 0100;
},
{
glyphname = amacron;
lastChange = "2016-10-15 17:21:52 +0000";
layers = (
{
layerId = UUID0;
paths = (
{
closed = 1;
nodes = (
"500 333 LINE",
"500 397 OFFCURVE",
"483 440 OFFCURVE",
"448 461 CURVE SMOOTH",
"413 483 OFFCURVE",
"351 494 OFFCURVE",
"262 494 CURVE SMOOTH",
"194 494 OFFCURVE",
"132 491 OFFCURVE",
"77 484 CURVE",
"77 392 LINE",
"149 400 OFFCURVE",
"206 404 OFFCURVE",
"247 404 CURVE SMOOTH",
"291 404 OFFCURVE",
"320 399 OFFCURVE",
"333 389 CURVE",
"347 380 OFFCURVE",
"354 360 OFFCURVE",
"354 331 CURVE SMOOTH",
"354 298 LINE",
"190 298 LINE SMOOTH",
"133 298 OFFCURVE",
"94 287 OFFCURVE",
"72 264 CURVE SMOOTH",
"50 242 OFFCURVE",
"39 202 OFFCURVE",
"39 145 CURVE SMOOTH",
"39 82 OFFCURVE",
"50 40 OFFCURVE",
"71 20 CURVE SMOOTH",
"92 0 OFFCURVE",
"136 -10 OFFCURVE",
"201 -10 CURVE SMOOTH",
"254 -10 OFFCURVE",
"291 -6 OFFCURVE",
"311 2 CURVE SMOOTH",
"331 11 OFFCURVE",
"346 25 OFFCURVE",
"357 44 CURVE",
"357 0 LINE",
"500 0 LINE"
);
},
{
closed = 1;
nodes = (
"354 124 LINE",
"354 99 OFFCURVE",
"345 87 OFFCURVE",
"321 84 CURVE SMOOTH",
"302 81 OFFCURVE",
"291 81 OFFCURVE",
"258 81 CURVE SMOOTH",
"224 81 OFFCURVE",
"203 84 OFFCURVE",
"194 91 CURVE SMOOTH",
"186 98 OFFCURVE",
"182 117 OFFCURVE",
"182 148 CURVE SMOOTH",
"182 180 OFFCURVE",
"186 200 OFFCURVE",
"194 207 CURVE SMOOTH",
"202 214 OFFCURVE",
"222 218 OFFCURVE",
"254 218 CURVE SMOOTH",
"354 218 LINE"
);
},
{
closed = 1;
nodes = (
"421 649 LINE",
"143 649 LINE",
"143 560 LINE",
"421 560 LINE"
);
}
);
width = 564;
}
);
unicode = 0101;
},
{
glyphname = Abreve;
lastChange = "2016-10-15 17:21:52 +0000";
layers = (
{
layerId = UUID0;
paths = (
{
closed = 1;
nodes = (
"432 649 LINE",
"242 649 LINE",
"2 0 LINE",
"156 0 LINE",
"213 171 LINE",
"450 171 LINE",
"508 0 LINE",
"666 0 LINE"
);
},
{
closed = 1;
nodes = (
"248 275 LINE",
"330 519 LINE",
"334 519 LINE",
"416 275 LINE"
);
},
{
closed = 1;
nodes = (
"390 845 LINE",
"386 808 OFFCURVE",
"367 790 OFFCURVE",
"334 790 CURVE SMOOTH",
"298 790 OFFCURVE",
"285 806 OFFCURVE",
"277 845 CURVE",
"196 845 LINE",
"200 769 OFFCURVE",
"251 718 OFFCURVE",
"334 718 CURVE SMOOTH",
"415 718 OFFCURVE",
"467 769 OFFCURVE",
"472 845 CURVE"
);
}
);
width = 668;
}
);
unicode = 0102;
},
{
glyphname = abreve;
lastChange = "2016-10-15 17:21:52 +0000";
layers = (
{
layerId = UUID0;
paths = (
{
closed = 1;
nodes = (
"500 333 LINE",
"500 397 OFFCURVE",
"483 440 OFFCURVE",
"448 461 CURVE SMOOTH",
"413 483 OFFCURVE",
"351 494 OFFCURVE",
"262 494 CURVE SMOOTH",
"194 494 OFFCURVE",
"132 491 OFFCURVE",
"77 484 CURVE",
"77 392 LINE",
"149 400 OFFCURVE",
"206 404 OFFCURVE",
"247 404 CURVE SMOOTH",
"291 404 OFFCURVE",
"320 399 OFFCURVE",
"333 389 CURVE",
"347 380 OFFCURVE",
"354 360 OFFCURVE",
"354 331 CURVE SMOOTH",
"354 298 LINE",
"190 298 LINE SMOOTH",
"133 298 OFFCURVE",
"94 287 OFFCURVE",
"72 264 CURVE SMOOTH",
"50 242 OFFCURVE",
"39 202 OFFCURVE",
"39 145 CURVE SMOOTH",
"39 82 OFFCURVE",
"50 40 OFFCURVE",
"71 20 CURVE SMOOTH",
"92 0 OFFCURVE",
"136 -10 OFFCURVE",
"201 -10 CURVE SMOOTH",
"254 -10 OFFCURVE",
"291 -6 OFFCURVE",
"311 2 CURVE SMOOTH",
"331 11 OFFCURVE",
"346 25 OFFCURVE",
"357 44 CURVE",
"357 0 LINE",
"500 0 LINE"
);
},
{
closed = 1;
nodes = (
"354 124 LINE",
"354 99 OFFCURVE",
"345 87 OFFCURVE",
"321 84 CURVE SMOOTH",
"302 81 OFFCURVE",
"291 81 OFFCURVE",
"258 81 CURVE SMOOTH",
"224 81 OFFCURVE",
"203 84 OFFCURVE",
"194 91 CURVE SMOOTH",
"186 98 OFFCURVE",
"182 117 OFFCURVE",
"182 148 CURVE SMOOTH",
"182 180 OFFCURVE",
"186 200 OFFCURVE",
"194 207 CURVE SMOOTH",
"202 214 OFFCURVE",
"222 218 OFFCURVE",
"254 218 CURVE SMOOTH",
"354 218 LINE"
);
},
{
closed = 1;
nodes = (
"338 680 LINE",
"334 643 OFFCURVE",
"315 625 OFFCURVE",
"282 625 CURVE SMOOTH",
"246 625 OFFCURVE",
"233 641 OFFCURVE",
"225 680 CURVE",
"144 680 LINE",
"148 604 OFFCURVE",
"199 553 OFFCURVE",
"282 553 CURVE SMOOTH",
"363 553 OFFCURVE",
"415 604 OFFCURVE",
"420 680 CURVE"
);
}
);
width = 564;
}
);
unicode = 0103;
},
{
glyphname = Aogonek;
lastChange = "2016-10-15 17:21:52 +0000";
layers = (
{
layerId = UUID0;
paths = (
{
closed = 1;
nodes = (
"615 -186 OFFCURVE",
"638 -183 OFFCURVE",
"652 -176 CURVE",
"652 -109 LINE",
"640 -113 OFFCURVE",
"630 -115 OFFCURVE",
"622 -115 CURVE SMOOTH",
"604 -115 OFFCURVE",
"595 -105 OFFCURVE",
"595 -86 CURVE SMOOTH",
"595 -45 OFFCURVE",
"619 -17 OFFCURVE",
"666 0 CURVE",
"432 649 LINE",
"242 649 LINE",
"2 0 LINE",
"156 0 LINE",
"213 171 LINE",
"450 171 LINE",
"508 0 LINE",
"491 -32 OFFCURVE",
"483 -67 OFFCURVE",
"483 -106 CURVE SMOOTH",
"483 -157 OFFCURVE",
"522 -186 OFFCURVE",
"582 -186 CURVE SMOOTH"
);
},
{
closed = 1;
nodes = (
"248 275 LINE",
"330 519 LINE",
"334 519 LINE",
"416 275 LINE"
);
}
);
width = 668;
}
);
unicode = 0104;
},
{
glyphname = aogonek;
lastChange = "2016-10-15 17:21:52 +0000";
layers = (
{
layerId = UUID0;
paths = (
{
closed = 1;
nodes = (
"479 -186 OFFCURVE",
"502 -183 OFFCURVE",
"516 -176 CURVE",
"516 -109 LINE",
"504 -113 OFFCURVE",
"494 -115 OFFCURVE",
"486 -115 CURVE SMOOTH",
"457 -115 OFFCURVE",
"448 -104 OFFCURVE",
"448 -83 CURVE SMOOTH",
"448 -52 OFFCURVE",
"464 -31 OFFCURVE",
"500 0 CURVE",
"500 333 LINE SMOOTH",
"500 397 OFFCURVE",
"483 440 OFFCURVE",
"448 461 CURVE SMOOTH",
"413 483 OFFCURVE",
"351 494 OFFCURVE",
"262 494 CURVE SMOOTH",
"194 494 OFFCURVE",
"132 491 OFFCURVE",
"77 484 CURVE",
"77 392 LINE",
"149 400 OFFCURVE",
"206 404 OFFCURVE",
"247 404 CURVE SMOOTH",
"291 404 OFFCURVE",
"320 399 OFFCURVE",
"333 389 CURVE",
"347 380 OFFCURVE",
"354 360 OFFCURVE",
"354 331 CURVE SMOOTH",
"354 298 LINE",
"190 298 LINE SMOOTH",
"133 298 OFFCURVE",
"94 287 OFFCURVE",
"72 264 CURVE SMOOTH",
"50 242 OFFCURVE",
"39 202 OFFCURVE",
"39 145 CURVE SMOOTH",
"39 82 OFFCURVE",
"50 40 OFFCURVE",
"71 20 CURVE SMOOTH",
"92 0 OFFCURVE",
"136 -10 OFFCURVE",
"201 -10 CURVE SMOOTH",
"254 -10 OFFCURVE",
"291 -6 OFFCURVE",
"311 2 CURVE SMOOTH",
"331 11 OFFCURVE",
"346 25 OFFCURVE",
"357 44 CURVE",
"357 0 LINE SMOOTH",
"357 -10 OFFCURVE",
"355 -27 OFFCURVE",
"352 -50 CURVE SMOOTH",
"349 -74 OFFCURVE",
"347 -93 OFFCURVE",
"347 -106 CURVE SMOOTH",
"347 -163 OFFCURVE",
"379 -186 OFFCURVE",
"446 -186 CURVE SMOOTH"
);
},
{
closed = 1;
nodes = (
"354 124 LINE",
"354 99 OFFCURVE",
"345 87 OFFCURVE",
"321 84 CURVE SMOOTH",
"302 81 OFFCURVE",
"291 81 OFFCURVE",
"258 81 CURVE SMOOTH",
"224 81 OFFCURVE",
"203 84 OFFCURVE",
"194 91 CURVE SMOOTH",
"186 98 OFFCURVE",
"182 117 OFFCURVE",
"182 148 CURVE SMOOTH",
"182 180 OFFCURVE",
"186 200 OFFCURVE",
"194 207 CURVE SMOOTH",
"202 214 OFFCURVE",
"222 218 OFFCURVE",
"254 218 CURVE SMOOTH",
"354 218 LINE"
);
}
);
width = 564;
}
);
unicode = 0105;
},
{
glyphname = Cacute;
lastChange = "2016-10-15 17:21:52 +0000";
layers = (
{
layerId = UUID0;
paths = (
{
closed = 1;
nodes = (
"567 130 LINE",
"485 111 OFFCURVE",
"420 101 OFFCURVE",
"373 101 CURVE SMOOTH",
"266 101 OFFCURVE",
"212 130 OFFCURVE",
"212 189 CURVE SMOOTH",
"212 465 LINE SMOOTH",
"212 502 OFFCURVE",
"227 525 OFFCURVE",
"258 536 CURVE SMOOTH",
"290 547 OFFCURVE",
"314 548 OFFCURVE",
"359 548 CURVE SMOOTH",
"416 548 OFFCURVE",
"484 539 OFFCURVE",
"563 520 CURVE",
"563 637 LINE",
"475 652 OFFCURVE",
"406 659 OFFCURVE",
"357 659 CURVE SMOOTH",
"156 659 OFFCURVE",
"56 594 OFFCURVE",
"56 463 CURVE SMOOTH",
"56 178 LINE",
"59 79 OFFCURVE",
"120 29 OFFCURVE",
"202 8 CURVE SMOOTH",
"261 -7 OFFCURVE",
"304 -10 OFFCURVE",
"357 -10 CURVE SMOOTH",
"424 -10 OFFCURVE",
"494 -3 OFFCURVE",
"567 12 CURVE"
);
},
{
closed = 1;
nodes = (
"324 845 LINE",
"234 718 LINE",
"358 718 LINE",
"483 845 LINE"
);
}
);
width = 597;
}
);
unicode = 0106;
},
{
glyphname = cacute;
lastChange = "2016-10-15 17:21:52 +0000";
layers = (
{
layerId = UUID0;
paths = (
{
closed = 1;
nodes = (
"464 103 LINE",
"395 88 OFFCURVE",
"344 81 OFFCURVE",
"309 81 CURVE SMOOTH",
"235 81 OFFCURVE",
"198 107 OFFCURVE",
"198 158 CURVE SMOOTH",
"198 336 LINE SMOOTH",
"198 381 OFFCURVE",
"232 404 OFFCURVE",
"299 404 CURVE SMOOTH",
"335 404 OFFCURVE",
"388 396 OFFCURVE",
"457 380 CURVE",
"457 476 LINE",
"396 488 OFFCURVE",
"347 494 OFFCURVE",
"310 494 CURVE SMOOTH",
"266 494 OFFCURVE",
"246 494 OFFCURVE",
"205 489 CURVE SMOOTH",
"165 484 OFFCURVE",
"145 476 OFFCURVE",
"114 459 CURVE",
"74 435 OFFCURVE",
"50 390 OFFCURVE",
"50 318 CURVE SMOOTH",
"50 157 LINE SMOOTH",
"50 72 OFFCURVE",
"87 36 OFFCURVE",
"131 12 CURVE SMOOTH",
"159 -3 OFFCURVE",
"212 -8 OFFCURVE",
"241 -9 CURVE SMOOTH",
"256 -10 OFFCURVE",
"275 -10 OFFCURVE",
"300 -10 CURVE SMOOTH",
"351 -10 OFFCURVE",
"405 -4 OFFCURVE",
"464 7 CURVE"
);
},
{
closed = 1;
nodes = (
"266 680 LINE",
"176 553 LINE",
"300 553 LINE",
"425 680 LINE"
);
}
);
width = 482;
}
);
unicode = 0107;
},
{
glyphname = Ccircumflex;
lastChange = "2016-10-15 17:21:52 +0000";
layers = (
{
layerId = UUID0;
paths = (
{
closed = 1;
nodes = (
"567 130 LINE",
"485 111 OFFCURVE",
"420 101 OFFCURVE",
"373 101 CURVE SMOOTH",
"266 101 OFFCURVE",
"212 130 OFFCURVE",
"212 189 CURVE SMOOTH",
"212 465 LINE SMOOTH",
"212 502 OFFCURVE",
"227 525 OFFCURVE",
"258 536 CURVE SMOOTH",
"290 547 OFFCURVE",
"314 548 OFFCURVE",
"359 548 CURVE SMOOTH",
"416 548 OFFCURVE",
"484 539 OFFCURVE",
"563 520 CURVE",
"563 637 LINE",
"475 652 OFFCURVE",
"406 659 OFFCURVE",
"357 659 CURVE SMOOTH",
"156 659 OFFCURVE",
"56 594 OFFCURVE",
"56 463 CURVE SMOOTH",
"56 178 LINE",
"59 79 OFFCURVE",
"120 29 OFFCURVE",
"202 8 CURVE SMOOTH",
"261 -7 OFFCURVE",
"304 -10 OFFCURVE",
"357 -10 CURVE SMOOTH",
"424 -10 OFFCURVE",
"494 -3 OFFCURVE",
"567 12 CURVE"
);
},
{
closed = 1;
nodes = (
"431 845 LINE",
"244 845 LINE",
"188 718 LINE",
"286 718 LINE",
"338 805 LINE",
"391 718 LINE",
"489 718 LINE"
);
}
);
width = 597;
}
);
unicode = 0108;
},
{
glyphname = ccircumflex;
lastChange = "2016-10-15 17:21:52 +0000";
layers = (
{
layerId = UUID0;
paths = (
{
closed = 1;
nodes = (
"464 103 LINE",
"395 88 OFFCURVE",
"344 81 OFFCURVE",
"309 81 CURVE SMOOTH",
"235 81 OFFCURVE",
"198 107 OFFCURVE",
"198 158 CURVE SMOOTH",
"198 336 LINE SMOOTH",
"198 381 OFFCURVE",
"232 404 OFFCURVE",
"299 404 CURVE SMOOTH",
"335 404 OFFCURVE",
"388 396 OFFCURVE",
"457 380 CURVE",
"457 476 LINE",
"396 488 OFFCURVE",
"347 494 OFFCURVE",
"310 494 CURVE SMOOTH",
"266 494 OFFCURVE",
"246 494 OFFCURVE",
"205 489 CURVE SMOOTH",
"165 484 OFFCURVE",
"145 476 OFFCURVE",
"114 459 CURVE",
"74 435 OFFCURVE",
"50 390 OFFCURVE",
"50 318 CURVE SMOOTH",
"50 157 LINE SMOOTH",
"50 72 OFFCURVE",
"87 36 OFFCURVE",
"131 12 CURVE SMOOTH",
"159 -3 OFFCURVE",
"212 -8 OFFCURVE",
"241 -9 CURVE SMOOTH",
"256 -10 OFFCURVE",
"275 -10 OFFCURVE",
"300 -10 CURVE SMOOTH",
"351 -10 OFFCURVE",
"405 -4 OFFCURVE",
"464 7 CURVE"
);
},
{
closed = 1;
nodes = (
"373 680 LINE",
"186 680 LINE",
"130 553 LINE",
"228 553 LINE",
"280 640 LINE",
"333 553 LINE",
"431 553 LINE"
);
}
);
width = 482;
}
);
unicode = 0109;
},
{
glyphname = Cdotaccent;
lastChange = "2016-10-15 17:21:52 +0000";
layers = (
{
layerId = UUID0;
paths = (
{
closed = 1;
nodes = (
"567 130 LINE",
"485 111 OFFCURVE",
"420 101 OFFCURVE",
"373 101 CURVE SMOOTH",
"266 101 OFFCURVE",
"212 130 OFFCURVE",
"212 189 CURVE SMOOTH",
"212 465 LINE SMOOTH",
"212 502 OFFCURVE",
"227 525 OFFCURVE",
"258 536 CURVE SMOOTH",
"290 547 OFFCURVE",
"314 548 OFFCURVE",
"359 548 CURVE SMOOTH",
"416 548 OFFCURVE",
"484 539 OFFCURVE",
"563 520 CURVE",
"563 637 LINE",
"475 652 OFFCURVE",
"406 659 OFFCURVE",
"357 659 CURVE SMOOTH",
"156 659 OFFCURVE",
"56 594 OFFCURVE",
"56 463 CURVE SMOOTH",
"56 178 LINE",
"59 79 OFFCURVE",
"120 29 OFFCURVE",
"202 8 CURVE SMOOTH",
"261 -7 OFFCURVE",
"304 -10 OFFCURVE",
"357 -10 CURVE SMOOTH",
"424 -10 OFFCURVE",
"494 -3 OFFCURVE",
"567 12 CURVE"
);
},
{
closed = 1;
nodes = (
"411 845 LINE",
"265 845 LINE",
"265 730 LINE",
"411 730 LINE"
);
}
);
width = 597;
}
);
unicode = 010A;
},
{
glyphname = cdotaccent;
lastChange = "2016-10-15 17:21:52 +0000";
layers = (
{
layerId = UUID0;
paths = (
{
closed = 1;
nodes = (
"464 103 LINE",
"395 88 OFFCURVE",
"344 81 OFFCURVE",
"309 81 CURVE SMOOTH",
"235 81 OFFCURVE",
"198 107 OFFCURVE",
"198 158 CURVE SMOOTH",
"198 336 LINE SMOOTH",
"198 381 OFFCURVE",
"232 404 OFFCURVE",
"299 404 CURVE SMOOTH",
"335 404 OFFCURVE",
"388 396 OFFCURVE",
"457 380 CURVE",
"457 476 LINE",
"396 488 OFFCURVE",
"347 494 OFFCURVE",
"310 494 CURVE SMOOTH",
"266 494 OFFCURVE",
"246 494 OFFCURVE",
"205 489 CURVE SMOOTH",
"165 484 OFFCURVE",
"145 476 OFFCURVE",
"114 459 CURVE",
"74 435 OFFCURVE",
"50 390 OFFCURVE",
"50 318 CURVE SMOOTH",
"50 157 LINE SMOOTH",
"50 72 OFFCURVE",
"87 36 OFFCURVE",
"131 12 CURVE SMOOTH",
"159 -3 OFFCURVE",
"212 -8 OFFCURVE",
"241 -9 CURVE SMOOTH",
"256 -10 OFFCURVE",
"275 -10 OFFCURVE",
"300 -10 CURVE SMOOTH",
"351 -10 OFFCURVE",
"405 -4 OFFCURVE",
"464 7 CURVE"
);
},
{
closed = 1;
nodes = (
"354 680 LINE",
"208 680 LINE",
"208 565 LINE",
"354 565 LINE"
);
}
);
width = 482;
}
);
unicode = 010B;
},
{
glyphname = Ccaron;
lastChange = "2016-10-15 17:21:52 +0000";
layers = (
{
layerId = UUID0;
paths = (
{
closed = 1;
nodes = (
"567 130 LINE",
"485 111 OFFCURVE",
"420 101 OFFCURVE",
"373 101 CURVE SMOOTH",
"266 101 OFFCURVE",
"212 130 OFFCURVE",
"212 189 CURVE SMOOTH",
"212 465 LINE SMOOTH",
"212 502 OFFCURVE",
"227 525 OFFCURVE",
"258 536 CURVE SMOOTH",
"290 547 OFFCURVE",
"314 548 OFFCURVE",
"359 548 CURVE SMOOTH",
"416 548 OFFCURVE",
"484 539 OFFCURVE",
"563 520 CURVE",
"563 637 LINE",
"475 652 OFFCURVE",
"406 659 OFFCURVE",
"357 659 CURVE SMOOTH",
"156 659 OFFCURVE",
"56 594 OFFCURVE",
"56 463 CURVE SMOOTH",
"56 178 LINE",
"59 79 OFFCURVE",
"120 29 OFFCURVE",
"202 8 CURVE SMOOTH",
"261 -7 OFFCURVE",
"304 -10 OFFCURVE",
"357 -10 CURVE SMOOTH",
"424 -10 OFFCURVE",
"494 -3 OFFCURVE",
"567 12 CURVE"
);
},
{
closed = 1;
nodes = (
"391 845 LINE",
"339 758 LINE",
"286 845 LINE",
"188 845 LINE",
"246 718 LINE",
"433 718 LINE",
"489 845 LINE"
);
}
);
width = 597;
}
);
unicode = 010C;
},
{
glyphname = ccaron;
lastChange = "2016-10-15 17:21:52 +0000";
layers = (
{
layerId = UUID0;
paths = (
{
closed = 1;
nodes = (
"464 103 LINE",
"395 88 OFFCURVE",
"344 81 OFFCURVE",
"309 81 CURVE SMOOTH",
"235 81 OFFCURVE",
"198 107 OFFCURVE",
"198 158 CURVE SMOOTH",
"198 336 LINE SMOOTH",
"198 381 OFFCURVE",
"232 404 OFFCURVE",
"299 404 CURVE SMOOTH",
"335 404 OFFCURVE",
"388 396 OFFCURVE",
"457 380 CURVE",
"457 476 LINE",
"396 488 OFFCURVE",
"347 494 OFFCURVE",
"310 494 CURVE SMOOTH",
"266 494 OFFCURVE",
"246 494 OFFCURVE",
"205 489 CURVE SMOOTH",
"165 484 OFFCURVE",
"145 476 OFFCURVE",
"114 459 CURVE",
"74 435 OFFCURVE",
"50 390 OFFCURVE",
"50 318 CURVE SMOOTH",
"50 157 LINE SMOOTH",
"50 72 OFFCURVE",
"87 36 OFFCURVE",
"131 12 CURVE SMOOTH",
"159 -3 OFFCURVE",
"212 -8 OFFCURVE",
"241 -9 CURVE SMOOTH",
"256 -10 OFFCURVE",
"275 -10 OFFCURVE",
"300 -10 CURVE SMOOTH",
"351 -10 OFFCURVE",
"405 -4 OFFCURVE",
"464 7 CURVE"
);
},
{
closed = 1;
nodes = (
"333 680 LINE",
"281 593 LINE",
"228 680 LINE",
"130 680 LINE",
"188 553 LINE",
"375 553 LINE",
"431 680 LINE"
);
}
);
width = 482;
}
);
unicode = 010D;
},
{
glyphname = Dcaron;
lastChange = "2016-10-15 17:21:52 +0000";
layers = (
{
layerId = UUID0;
paths = (
{
closed = 1;
nodes = (
"654 452 LINE",
"654 529 OFFCURVE",
"630 581 OFFCURVE",
"582 608 CURVE SMOOTH",
"535 635 OFFCURVE",
"456 649 OFFCURVE",
"346 649 CURVE SMOOTH",
"70 649 LINE",
"70 0 LINE",
"347 0 LINE SMOOTH",
"461 0 OFFCURVE",
"541 13 OFFCURVE",
"586 39 CURVE SMOOTH",
"631 65 OFFCURVE",
"654 115 OFFCURVE",
"654 188 CURVE SMOOTH"
);
},
{
closed = 1;
nodes = (
"498 188 LINE",
"498 155 OFFCURVE",
"487 133 OFFCURVE",
"464 124 CURVE SMOOTH",
"441 115 OFFCURVE",
"400 111 OFFCURVE",
"340 111 CURVE SMOOTH",
"226 111 LINE",
"226 538 LINE",
"345 538 LINE SMOOTH",
"448 538 OFFCURVE",
"498 518 OFFCURVE",
"498 455 CURVE SMOOTH"
);
},
{
closed = 1;
nodes = (
"407 845 LINE",
"355 758 LINE",
"302 845 LINE",
"204 845 LINE",
"262 718 LINE",
"449 718 LINE",
"505 845 LINE"
);
}
);
width = 710;
}
);
unicode = 010E;
},
{
glyphname = dcaron;
lastChange = "2016-10-15 17:21:52 +0000";
layers = (
{
layerId = UUID0;
paths = (
{
closed = 1;
nodes = (
"544 700 LINE",
"398 700 LINE",
"398 430 LINE",
"381 455 OFFCURVE",
"363 471 OFFCURVE",
"344 480 CURVE SMOOTH",
"325 489 OFFCURVE",
"291 494 OFFCURVE",
"243 494 CURVE SMOOTH",
"110 494 OFFCURVE",
"50 457 OFFCURVE",
"50 348 CURVE SMOOTH",
"50 159 LINE SMOOTH",
"50 88 OFFCURVE",
"63 42 OFFCURVE",
"88 21 CURVE SMOOTH",
"113 0 OFFCURVE",
"167 -10 OFFCURVE",
"250 -10 CURVE",
"358 -7 OFFCURVE",
"368 3 OFFCURVE",
"403 55 CURVE",
"403 0 LINE",
"544 0 LINE"
);
},
{
closed = 1;
nodes = (
"398 145 LINE",
"398 119 OFFCURVE",
"391 102 OFFCURVE",
"378 93 CURVE SMOOTH",
"365 85 OFFCURVE",
"334 81 OFFCURVE",
"287 81 CURVE SMOOTH",
"248 81 OFFCURVE",
"223 86 OFFCURVE",
"212 95 CURVE SMOOTH",
"201 105 OFFCURVE",
"196 123 OFFCURVE",
"196 150 CURVE SMOOTH",
"196 335 LINE SMOOTH",
"196 364 OFFCURVE",
"201 382 OFFCURVE",
"212 391 CURVE SMOOTH",
"223 400 OFFCURVE",
"250 404 OFFCURVE",
"295 404 CURVE SMOOTH",
"338 404 OFFCURVE",
"365 399 OFFCURVE",
"378 390 CURVE SMOOTH",
"391 381 OFFCURVE",
"398 364 OFFCURVE",
"398 340 CURVE SMOOTH"
);
},
{
closed = 1;
nodes = (
"605 700 LINE",
"579 537 LINE",
"675 537 LINE",
"739 700 LINE"
);
}
);
width = 700;
}
);
unicode = 010F;
},
{
glyphname = Dcroat;
lastChange = "2016-10-15 17:21:52 +0000";
layers = (
{
layerId = UUID0;
paths = (
{
closed = 1;
nodes = (
"627 452 LINE",
"627 528 OFFCURVE",
"607 580 OFFCURVE",
"566 607 CURVE SMOOTH",
"525 635 OFFCURVE",
"445 649 OFFCURVE",
"326 649 CURVE SMOOTH",
"70 649 LINE",
"70 379 LINE",
"10 379 LINE",
"10 288 LINE",
"70 288 LINE",
"70 0 LINE",
"327 0 LINE SMOOTH",
"532 0 OFFCURVE",
"627 53 OFFCURVE",
"627 188 CURVE SMOOTH"
);
},
{
closed = 1;
nodes = (
"478 186 LINE",
"478 153 OFFCURVE",
"460 130 OFFCURVE",
"425 121 CURVE SMOOTH",
"392 112 OFFCURVE",
"364 109 OFFCURVE",
"320 109 CURVE SMOOTH",
"223 109 LINE",
"223 288 LINE",
"357 288 LINE",
"357 379 LINE",
"223 379 LINE",
"223 543 LINE",
"325 543 LINE SMOOTH",
"428 543 OFFCURVE",
"478 523 OFFCURVE",
"478 460 CURVE SMOOTH"
);
}
);
width = 677;
}
);
unicode = 0110;
},
{
glyphname = dslash;
lastChange = "2016-10-15 17:21:52 +0000";
layers = (
{
layerId = UUID0;
paths = (
{
closed = 1;
nodes = (
"544 553 LINE",
"586 553 LINE",
"586 635 LINE",
"544 635 LINE",
"544 700 LINE",
"398 700 LINE",
"398 635 LINE",
"287 635 LINE",
"287 553 LINE",
"398 553 LINE",
"398 430 LINE",
"381 455 OFFCURVE",
"363 471 OFFCURVE",
"344 480 CURVE SMOOTH",
"325 489 OFFCURVE",
"291 494 OFFCURVE",
"243 494 CURVE SMOOTH",
"110 494 OFFCURVE",
"50 457 OFFCURVE",
"50 348 CURVE SMOOTH",
"50 159 LINE SMOOTH",
"50 88 OFFCURVE",
"63 42 OFFCURVE",
"88 21 CURVE SMOOTH",
"113 0 OFFCURVE",
"167 -10 OFFCURVE",
"250 -10 CURVE",
"358 -7 OFFCURVE",
"368 3 OFFCURVE",
"403 55 CURVE",
"403 0 LINE",
"544 0 LINE"
);
},
{
closed = 1;
nodes = (
"398 145 LINE",
"398 119 OFFCURVE",
"391 102 OFFCURVE",
"378 93 CURVE SMOOTH",
"365 85 OFFCURVE",
"334 81 OFFCURVE",
"287 81 CURVE SMOOTH",
"248 81 OFFCURVE",
"223 86 OFFCURVE",
"212 95 CURVE SMOOTH",
"201 105 OFFCURVE",
"196 123 OFFCURVE",
"196 150 CURVE SMOOTH",
"196 335 LINE SMOOTH",
"196 364 OFFCURVE",
"201 382 OFFCURVE",
"212 391 CURVE SMOOTH",
"223 400 OFFCURVE",
"250 404 OFFCURVE",
"295 404 CURVE SMOOTH",
"338 404 OFFCURVE",
"365 399 OFFCURVE",
"378 390 CURVE SMOOTH",
"391 381 OFFCURVE",
"398 364 OFFCURVE",
"398 340 CURVE SMOOTH"
);
}
);
width = 608;
}
);
unicode = 0111;
},
{
glyphname = Emacron;
lastChange = "2016-10-15 17:21:52 +0000";
layers = (
{
layerId = UUID0;
paths = (
{
closed = 1;
nodes = (
"575 111 LINE",
"226 111 LINE",
"226 278 LINE",
"532 278 LINE",
"532 389 LINE",
"226 389 LINE",
"226 538 LINE",
"565 538 LINE",
"565 649 LINE",
"70 649 LINE",
"70 0 LINE",
"575 0 LINE"
);
},
{
closed = 1;
nodes = (
"444 814 LINE",
"166 814 LINE",
"166 725 LINE",
"444 725 LINE"
);
}
);
width = 610;
}
);
unicode = 0112;
},
{
glyphname = emacron;
lastChange = "2016-10-15 17:21:52 +0000";
layers = (
{
layerId = UUID0;
paths = (
{
closed = 1;
nodes = (
"511 321 LINE",
"511 450 OFFCURVE",
"438 494 OFFCURVE",
"289 494 CURVE SMOOTH",
"130 494 OFFCURVE",
"50 445 OFFCURVE",
"50 321 CURVE SMOOTH",
"50 147 LINE SMOOTH",
"50 42 OFFCURVE",
"136 -10 OFFCURVE",
"307 -10 CURVE SMOOTH",
"372 -10 OFFCURVE",
"436 -4 OFFCURVE",
"497 9 CURVE",
"497 102 LINE",
"437 88 OFFCURVE",
"383 81 OFFCURVE",
"335 81 CURVE SMOOTH",
"228 81 OFFCURVE",
"197 104 OFFCURVE",
"197 159 CURVE SMOOTH",
"197 203 LINE",
"511 203 LINE"
);
},
{
closed = 1;
nodes = (
"197 286 LINE",
"197 356 LINE SMOOTH",
"197 387 OFFCURVE",
"216 404 OFFCURVE",
"287 404 CURVE SMOOTH",
"351 404 OFFCURVE",
"372 387 OFFCURVE",
"372 356 CURVE SMOOTH",
"372 286 LINE"
);
},
{
closed = 1;
nodes = (
"418 649 LINE",
"140 649 LINE",
"140 560 LINE",
"418 560 LINE"
);
}
);
width = 559;
}
);
unicode = 0113;
},
{
glyphname = Ebreve;
lastChange = "2016-10-15 17:21:52 +0000";
layers = (
{
layerId = UUID0;
paths = (
{
closed = 1;
nodes = (
"575 111 LINE",
"226 111 LINE",
"226 278 LINE",
"532 278 LINE",
"532 389 LINE",
"226 389 LINE",
"226 538 LINE",
"565 538 LINE",
"565 649 LINE",
"70 649 LINE",
"70 0 LINE",
"575 0 LINE"
);
},
{
closed = 1;
nodes = (
"389 845 LINE",
"385 808 OFFCURVE",
"366 790 OFFCURVE",
"333 790 CURVE SMOOTH",
"297 790 OFFCURVE",
"284 806 OFFCURVE",
"276 845 CURVE",
"195 845 LINE",
"199 769 OFFCURVE",
"250 718 OFFCURVE",
"333 718 CURVE SMOOTH",
"414 718 OFFCURVE",
"466 769 OFFCURVE",
"471 845 CURVE"
);
}
);
width = 610;
}
);
unicode = 0114;
},
{
glyphname = ebreve;
lastChange = "2016-10-15 17:21:52 +0000";
layers = (
{
layerId = UUID0;
paths = (
{
closed = 1;
nodes = (
"511 321 LINE",
"511 450 OFFCURVE",
"438 494 OFFCURVE",
"289 494 CURVE SMOOTH",
"130 494 OFFCURVE",
"50 445 OFFCURVE",
"50 321 CURVE SMOOTH",
"50 147 LINE SMOOTH",
"50 42 OFFCURVE",
"136 -10 OFFCURVE",
"307 -10 CURVE SMOOTH",
"372 -10 OFFCURVE",
"436 -4 OFFCURVE",
"497 9 CURVE",
"497 102 LINE",
"437 88 OFFCURVE",
"383 81 OFFCURVE",
"335 81 CURVE SMOOTH",
"228 81 OFFCURVE",
"197 104 OFFCURVE",
"197 159 CURVE SMOOTH",
"197 203 LINE",
"511 203 LINE"
);
},
{
closed = 1;
nodes = (
"197 286 LINE",
"197 356 LINE SMOOTH",
"197 387 OFFCURVE",
"216 404 OFFCURVE",
"287 404 CURVE SMOOTH",
"351 404 OFFCURVE",
"372 387 OFFCURVE",
"372 356 CURVE SMOOTH",
"372 286 LINE"
);
},
{
closed = 1;
nodes = (
"340 680 LINE",
"336 643 OFFCURVE",
"317 625 OFFCURVE",
"284 625 CURVE SMOOTH",
"248 625 OFFCURVE",
"235 641 OFFCURVE",
"227 680 CURVE",
"146 680 LINE",
"150 604 OFFCURVE",
"201 553 OFFCURVE",
"284 553 CURVE SMOOTH",
"365 553 OFFCURVE",
"417 604 OFFCURVE",
"422 680 CURVE"
);
}
);
width = 559;
}
);
unicode = 0115;
},
{
glyphname = Edotaccent;
lastChange = "2016-10-15 17:21:52 +0000";
layers = (
{
layerId = UUID0;
paths = (
{
closed = 1;
nodes = (
"575 111 LINE",
"226 111 LINE",
"226 278 LINE",
"532 278 LINE",
"532 389 LINE",
"226 389 LINE",
"226 538 LINE",
"565 538 LINE",
"565 649 LINE",
"70 649 LINE",
"70 0 LINE",
"575 0 LINE"
);
},
{
closed = 1;
nodes = (
"398 845 LINE",
"252 845 LINE",
"252 730 LINE",
"398 730 LINE"
);
}
);
width = 610;
}
);
unicode = 0116;
},
{
glyphname = edotaccent;
lastChange = "2016-10-15 17:21:52 +0000";
layers = (
{
layerId = UUID0;
paths = (
{
closed = 1;
nodes = (
"511 321 LINE",
"511 450 OFFCURVE",
"438 494 OFFCURVE",
"289 494 CURVE SMOOTH",
"130 494 OFFCURVE",
"50 445 OFFCURVE",
"50 321 CURVE SMOOTH",
"50 147 LINE SMOOTH",
"50 42 OFFCURVE",
"136 -10 OFFCURVE",
"307 -10 CURVE SMOOTH",
"372 -10 OFFCURVE",
"436 -4 OFFCURVE",
"497 9 CURVE",
"497 102 LINE",
"437 88 OFFCURVE",
"383 81 OFFCURVE",
"335 81 CURVE SMOOTH",
"228 81 OFFCURVE",
"197 104 OFFCURVE",
"197 159 CURVE SMOOTH",
"197 203 LINE",
"511 203 LINE"
);
},
{
closed = 1;
nodes = (
"197 286 LINE",
"197 356 LINE SMOOTH",
"197 387 OFFCURVE",
"216 404 OFFCURVE",
"287 404 CURVE SMOOTH",
"351 404 OFFCURVE",
"372 387 OFFCURVE",
"372 356 CURVE SMOOTH",
"372 286 LINE"
);
},
{
closed = 1;
nodes = (
"362 680 LINE",
"216 680 LINE",
"216 565 LINE",
"362 565 LINE"
);
}
);
width = 559;
}
);
unicode = 0117;
},
{
glyphname = Eogonek;
lastChange = "2016-10-15 17:21:52 +0000";
layers = (
{
layerId = UUID0;
paths = (
{
closed = 1;
nodes = (
"575 111 LINE",
"226 111 LINE",
"226 278 LINE",
"532 278 LINE",
"532 389 LINE",
"226 389 LINE",
"226 538 LINE",
"565 538 LINE",
"565 649 LINE",
"70 649 LINE",
"70 0 LINE",
"575 0 LINE"
);
},
{
closed = 1;
nodes = (
"406 -163 OFFCURVE",
"440 -186 OFFCURVE",
"505 -186 CURVE SMOOTH",
"538 -186 OFFCURVE",
"561 -183 OFFCURVE",
"575 -176 CURVE",
"575 -109 LINE",
"563 -113 OFFCURVE",
"553 -115 OFFCURVE",
"545 -115 CURVE SMOOTH",
"516 -115 OFFCURVE",
"507 -104 OFFCURVE",
"507 -83 CURVE SMOOTH",
"507 -59 OFFCURVE",
"517 -31 OFFCURVE",
"537 0 CURVE",
"442 0 LINE",
"418 -37 OFFCURVE",
"406 -73 OFFCURVE",
"406 -106 CURVE SMOOTH"
);
}
);
width = 610;
}
);
unicode = 0118;
},
{
glyphname = eogonek;
lastChange = "2016-10-15 17:21:52 +0000";
layers = (
{
layerId = UUID0;
paths = (
{
closed = 1;
nodes = (
"342 -163 OFFCURVE",
"376 -186 OFFCURVE",
"441 -186 CURVE SMOOTH",
"474 -186 OFFCURVE",
"497 -183 OFFCURVE",
"511 -176 CURVE",
"511 -109 LINE",
"499 -113 OFFCURVE",
"489 -115 OFFCURVE",
"481 -115 CURVE SMOOTH",
"452 -115 OFFCURVE",
"443 -104 OFFCURVE",
"443 -83 CURVE SMOOTH",
"443 -53 OFFCURVE",
"450 -25 OFFCURVE",
"463 2 CURVE",
"497 9 LINE",
"497 102 LINE",
"437 88 OFFCURVE",
"383 81 OFFCURVE",
"335 81 CURVE SMOOTH",
"228 81 OFFCURVE",
"197 104 OFFCURVE",
"197 159 CURVE SMOOTH",
"197 203 LINE",
"511 203 LINE",
"511 321 LINE SMOOTH",
"511 450 OFFCURVE",
"438 494 OFFCURVE",
"289 494 CURVE SMOOTH",
"130 494 OFFCURVE",
"50 445 OFFCURVE",
"50 321 CURVE SMOOTH",
"50 147 LINE SMOOTH",
"50 42 OFFCURVE",
"136 -10 OFFCURVE",
"307 -10 CURVE SMOOTH",
"338 -10 OFFCURVE",
"360 -10 OFFCURVE",
"372 -9 CURVE",
"352 -43 OFFCURVE",
"342 -75 OFFCURVE",
"342 -106 CURVE SMOOTH"
);
},
{
closed = 1;
nodes = (
"197 286 LINE",
"197 356 LINE SMOOTH",
"197 387 OFFCURVE",
"216 404 OFFCURVE",
"287 404 CURVE SMOOTH",
"351 404 OFFCURVE",
"372 387 OFFCURVE",
"372 356 CURVE SMOOTH",
"372 286 LINE"
);
}
);
width = 559;
}
);
unicode = 0119;
},
{
glyphname = Ecaron;
lastChange = "2016-10-15 17:21:52 +0000";
layers = (
{
layerId = UUID0;
paths = (
{
closed = 1;
nodes = (
"575 111 LINE",
"226 111 LINE",
"226 278 LINE",
"532 278 LINE",
"532 389 LINE",
"226 389 LINE",
"226 538 LINE",
"565 538 LINE",
"565 649 LINE",
"70 649 LINE",
"70 0 LINE",
"575 0 LINE"
);
},
{
closed = 1;
nodes = (
"375 845 LINE",
"323 758 LINE",
"270 845 LINE",
"172 845 LINE",
"230 718 LINE",
"417 718 LINE",
"473 845 LINE"
);
}
);
width = 610;
}
);
unicode = 011A;
},
{
glyphname = ecaron;
lastChange = "2016-10-15 17:21:52 +0000";
layers = (
{
layerId = UUID0;
paths = (
{
closed = 1;
nodes = (
"511 321 LINE",
"511 450 OFFCURVE",
"438 494 OFFCURVE",
"289 494 CURVE SMOOTH",
"130 494 OFFCURVE",
"50 445 OFFCURVE",
"50 321 CURVE SMOOTH",
"50 147 LINE SMOOTH",
"50 42 OFFCURVE",
"136 -10 OFFCURVE",
"307 -10 CURVE SMOOTH",
"372 -10 OFFCURVE",
"436 -4 OFFCURVE",
"497 9 CURVE",
"497 102 LINE",
"437 88 OFFCURVE",
"383 81 OFFCURVE",
"335 81 CURVE SMOOTH",
"228 81 OFFCURVE",
"197 104 OFFCURVE",
"197 159 CURVE SMOOTH",
"197 203 LINE",
"511 203 LINE"
);
},
{
closed = 1;
nodes = (
"197 286 LINE",
"197 356 LINE SMOOTH",
"197 387 OFFCURVE",
"216 404 OFFCURVE",
"287 404 CURVE SMOOTH",
"351 404 OFFCURVE",
"372 387 OFFCURVE",
"372 356 CURVE SMOOTH",
"372 286 LINE"
);
},
{
closed = 1;
nodes = (
"332 680 LINE",
"280 593 LINE",
"227 680 LINE",
"129 680 LINE",
"187 553 LINE",
"374 553 LINE",
"430 680 LINE"
);
}
);
width = 559;
}
);
unicode = 011B;
},
{
glyphname = Gcircumflex;
lastChange = "2016-10-15 17:21:52 +0000";
layers = (
{
layerId = UUID0;
paths = (
{
closed = 1;
nodes = (
"591 369 LINE",
"326 369 LINE",
"326 267 LINE",
"452 267 LINE",
"452 98 LINE",
"420 95 OFFCURVE",
"395 93 OFFCURVE",
"377 93 CURVE SMOOTH",
"303 93 OFFCURVE",
"199 109 OFFCURVE",
"199 181 CURVE SMOOTH",
"199 472 LINE SMOOTH",
"199 519 OFFCURVE",
"231 539 OFFCURVE",
"274 548 CURVE SMOOTH",
"306 555 OFFCURVE",
"327 555 OFFCURVE",
"363 555 CURVE SMOOTH",
"433 555 OFFCURVE",
"508 546 OFFCURVE",
"587 527 CURVE",
"587 638 LINE",
"499 653 OFFCURVE",
"424 660 OFFCURVE",
"361 660 CURVE SMOOTH",
"309 660 OFFCURVE",
"266 658 OFFCURVE",
"205 641 CURVE SMOOTH",
"175 633 OFFCURVE",
"149 622 OFFCURVE",
"127 609 CURVE SMOOTH",
"84 582 OFFCURVE",
"50 530 OFFCURVE",
"50 463 CURVE SMOOTH",
"50 178 LINE",
"53 79 OFFCURVE",
"117 29 OFFCURVE",
"203 8 CURVE SMOOTH",
"263 -7 OFFCURVE",
"308 -10 OFFCURVE",
"361 -10 CURVE SMOOTH",
"441 -10 OFFCURVE",
"518 -3 OFFCURVE",
"591 12 CURVE"
);
},
{
closed = 1;
nodes = (
"435 830 LINE",
"248 830 LINE",
"192 703 LINE",
"290 703 LINE",
"342 790 LINE",
"395 703 LINE",
"493 703 LINE"
);
}
);
width = 641;
}
);
unicode = 011C;
},
{
glyphname = gcircumflex;
lastChange = "2016-10-15 17:21:52 +0000";
layers = (
{
layerId = UUID0;
paths = (
{
closed = 1;
nodes = (
"403 484 LINE",
"403 429 LINE",
"368 481 OFFCURVE",
"358 491 OFFCURVE",
"250 494 CURVE",
"171 494 OFFCURVE",
"118 482 OFFCURVE",
"91 458 CURVE SMOOTH",
"64 435 OFFCURVE",
"50 390 OFFCURVE",
"50 325 CURVE SMOOTH",
"50 136 LINE SMOOTH",
"50 24 OFFCURVE",
"104 -10 OFFCURVE",
"243 -10 CURVE SMOOTH",
"291 -10 OFFCURVE",
"325 -6 OFFCURVE",
"344 3 CURVE SMOOTH",
"363 12 OFFCURVE",
"381 29 OFFCURVE",
"398 54 CURVE",
"398 -24 LINE SMOOTH",
"398 -100 OFFCURVE",
"357 -128 OFFCURVE",
"260 -128 CURVE SMOOTH",
"209 -128 OFFCURVE",
"150 -124 OFFCURVE",
"85 -115 CURVE",
"85 -213 LINE",
"126 -218 OFFCURVE",
"184 -220 OFFCURVE",
"260 -220 CURVE SMOOTH",
"445 -220 OFFCURVE",
"544 -167 OFFCURVE",
"544 -26 CURVE SMOOTH",
"544 484 LINE"
);
},
{
closed = 1;
nodes = (
"398 145 LINE",
"398 121 OFFCURVE",
"391 104 OFFCURVE",
"378 95 CURVE SMOOTH",
"365 86 OFFCURVE",
"338 81 OFFCURVE",
"295 81 CURVE SMOOTH",
"250 81 OFFCURVE",
"223 85 OFFCURVE",
"212 94 CURVE SMOOTH",
"201 103 OFFCURVE",
"196 121 OFFCURVE",
"196 150 CURVE SMOOTH",
"196 335 LINE SMOOTH",
"196 362 OFFCURVE",
"201 380 OFFCURVE",
"212 389 CURVE SMOOTH",
"223 399 OFFCURVE",
"248 404 OFFCURVE",
"287 404 CURVE SMOOTH",
"334 404 OFFCURVE",
"365 400 OFFCURVE",
"378 391 CURVE SMOOTH",
"391 383 OFFCURVE",
"398 366 OFFCURVE",
"398 340 CURVE SMOOTH"
);
},
{
closed = 1;
nodes = (
"396 680 LINE",
"209 680 LINE",
"153 553 LINE",
"251 553 LINE",
"303 640 LINE",
"356 553 LINE",
"454 553 LINE"
);
}
);
width = 608;
}
);
unicode = 011D;
},
{
glyphname = Gbreve;
lastChange = "2016-10-15 17:21:52 +0000";
layers = (
{
layerId = UUID0;
paths = (
{
closed = 1;
nodes = (
"591 369 LINE",
"326 369 LINE",
"326 267 LINE",
"452 267 LINE",
"452 98 LINE",
"420 95 OFFCURVE",
"395 93 OFFCURVE",
"377 93 CURVE SMOOTH",
"303 93 OFFCURVE",
"199 109 OFFCURVE",
"199 181 CURVE SMOOTH",
"199 472 LINE SMOOTH",
"199 519 OFFCURVE",
"231 539 OFFCURVE",
"274 548 CURVE SMOOTH",
"306 555 OFFCURVE",
"327 555 OFFCURVE",
"363 555 CURVE SMOOTH",
"433 555 OFFCURVE",
"508 546 OFFCURVE",
"587 527 CURVE",
"587 638 LINE",
"499 653 OFFCURVE",
"424 660 OFFCURVE",
"361 660 CURVE SMOOTH",
"309 660 OFFCURVE",
"266 658 OFFCURVE",
"205 641 CURVE SMOOTH",
"175 633 OFFCURVE",
"149 622 OFFCURVE",
"127 609 CURVE SMOOTH",
"84 582 OFFCURVE",
"50 530 OFFCURVE",
"50 463 CURVE SMOOTH",
"50 178 LINE",
"53 79 OFFCURVE",
"117 29 OFFCURVE",
"203 8 CURVE SMOOTH",
"263 -7 OFFCURVE",
"308 -10 OFFCURVE",
"361 -10 CURVE SMOOTH",
"441 -10 OFFCURVE",
"518 -3 OFFCURVE",
"591 12 CURVE"
);
},
{
closed = 1;
nodes = (
"403 830 LINE",
"399 791 OFFCURVE",
"380 772 OFFCURVE",
"347 772 CURVE SMOOTH",
"312 772 OFFCURVE",
"298 790 OFFCURVE",
"290 830 CURVE",
"222 830 LINE",
"226 754 OFFCURVE",
"274 703 OFFCURVE",
"347 703 CURVE SMOOTH",
"419 703 OFFCURVE",
"466 754 OFFCURVE",
"471 830 CURVE"
);
}
);
width = 641;
}
);
unicode = 011E;
},
{
glyphname = gbreve;
lastChange = "2016-10-15 17:21:52 +0000";
layers = (
{
layerId = UUID0;
paths = (
{
closed = 1;
nodes = (
"403 484 LINE",
"403 429 LINE",
"368 481 OFFCURVE",
"358 491 OFFCURVE",
"250 494 CURVE",
"171 494 OFFCURVE",
"118 482 OFFCURVE",
"91 458 CURVE SMOOTH",
"64 435 OFFCURVE",
"50 390 OFFCURVE",
"50 325 CURVE SMOOTH",
"50 136 LINE SMOOTH",
"50 24 OFFCURVE",
"104 -10 OFFCURVE",
"243 -10 CURVE SMOOTH",
"291 -10 OFFCURVE",
"325 -6 OFFCURVE",
"344 3 CURVE SMOOTH",
"363 12 OFFCURVE",
"381 29 OFFCURVE",
"398 54 CURVE",
"398 -24 LINE SMOOTH",
"398 -100 OFFCURVE",
"357 -128 OFFCURVE",
"260 -128 CURVE SMOOTH",
"209 -128 OFFCURVE",
"150 -124 OFFCURVE",
"85 -115 CURVE",
"85 -213 LINE",
"126 -218 OFFCURVE",
"184 -220 OFFCURVE",
"260 -220 CURVE SMOOTH",
"445 -220 OFFCURVE",
"544 -167 OFFCURVE",
"544 -26 CURVE SMOOTH",
"544 484 LINE"
);
},
{
closed = 1;
nodes = (
"398 145 LINE",
"398 121 OFFCURVE",
"391 104 OFFCURVE",
"378 95 CURVE SMOOTH",
"365 86 OFFCURVE",
"338 81 OFFCURVE",
"295 81 CURVE SMOOTH",
"250 81 OFFCURVE",
"223 85 OFFCURVE",
"212 94 CURVE SMOOTH",
"201 103 OFFCURVE",
"196 121 OFFCURVE",
"196 150 CURVE SMOOTH",
"196 335 LINE SMOOTH",
"196 362 OFFCURVE",
"201 380 OFFCURVE",
"212 389 CURVE SMOOTH",
"223 399 OFFCURVE",
"248 404 OFFCURVE",
"287 404 CURVE SMOOTH",
"334 404 OFFCURVE",
"365 400 OFFCURVE",
"378 391 CURVE SMOOTH",
"391 383 OFFCURVE",
"398 366 OFFCURVE",
"398 340 CURVE SMOOTH"
);
},
{
closed = 1;
nodes = (
"360 680 LINE",
"356 643 OFFCURVE",
"337 625 OFFCURVE",
"304 625 CURVE SMOOTH",
"268 625 OFFCURVE",
"255 641 OFFCURVE",
"247 680 CURVE",
"166 680 LINE",
"170 604 OFFCURVE",
"221 553 OFFCURVE",
"304 553 CURVE SMOOTH",
"385 553 OFFCURVE",
"437 604 OFFCURVE",
"442 680 CURVE"
);
}
);
width = 608;
}
);
unicode = 011F;
},
{
glyphname = Gdotaccent;
lastChange = "2016-10-15 17:21:52 +0000";
layers = (
{
layerId = UUID0;
paths = (
{
closed = 1;
nodes = (
"591 369 LINE",
"326 369 LINE",
"326 267 LINE",
"452 267 LINE",
"452 98 LINE",
"420 95 OFFCURVE",
"395 93 OFFCURVE",
"377 93 CURVE SMOOTH",
"303 93 OFFCURVE",
"199 109 OFFCURVE",
"199 181 CURVE SMOOTH",
"199 472 LINE SMOOTH",
"199 519 OFFCURVE",
"231 539 OFFCURVE",
"274 548 CURVE SMOOTH",
"306 555 OFFCURVE",
"327 555 OFFCURVE",
"363 555 CURVE SMOOTH",
"433 555 OFFCURVE",
"508 546 OFFCURVE",
"587 527 CURVE",
"587 638 LINE",
"499 653 OFFCURVE",
"424 660 OFFCURVE",
"361 660 CURVE SMOOTH",
"309 660 OFFCURVE",
"266 658 OFFCURVE",
"205 641 CURVE SMOOTH",
"175 633 OFFCURVE",
"149 622 OFFCURVE",
"127 609 CURVE SMOOTH",
"84 582 OFFCURVE",
"50 530 OFFCURVE",
"50 463 CURVE SMOOTH",
"50 178 LINE",
"53 79 OFFCURVE",
"117 29 OFFCURVE",
"203 8 CURVE SMOOTH",
"263 -7 OFFCURVE",
"308 -10 OFFCURVE",
"361 -10 CURVE SMOOTH",
"441 -10 OFFCURVE",
"518 -3 OFFCURVE",
"591 12 CURVE"
);
},
{
closed = 1;
nodes = (
"432 830 LINE",
"286 830 LINE",
"286 715 LINE",
"432 715 LINE"
);
}
);
width = 641;
}
);
unicode = 0120;
},
{
glyphname = gdotaccent;
lastChange = "2016-10-15 17:21:52 +0000";
layers = (
{
layerId = UUID0;
paths = (
{
closed = 1;
nodes = (
"403 484 LINE",
"403 429 LINE",
"368 481 OFFCURVE",
"358 491 OFFCURVE",
"250 494 CURVE",
"171 494 OFFCURVE",
"118 482 OFFCURVE",
"91 458 CURVE SMOOTH",
"64 435 OFFCURVE",
"50 390 OFFCURVE",
"50 325 CURVE SMOOTH",
"50 136 LINE SMOOTH",
"50 24 OFFCURVE",
"104 -10 OFFCURVE",
"243 -10 CURVE SMOOTH",
"291 -10 OFFCURVE",
"325 -6 OFFCURVE",
"344 3 CURVE SMOOTH",
"363 12 OFFCURVE",
"381 29 OFFCURVE",
"398 54 CURVE",
"398 -24 LINE SMOOTH",
"398 -100 OFFCURVE",
"357 -128 OFFCURVE",
"260 -128 CURVE SMOOTH",
"209 -128 OFFCURVE",
"150 -124 OFFCURVE",
"85 -115 CURVE",
"85 -213 LINE",
"126 -218 OFFCURVE",
"184 -220 OFFCURVE",
"260 -220 CURVE SMOOTH",
"445 -220 OFFCURVE",
"544 -167 OFFCURVE",
"544 -26 CURVE SMOOTH",
"544 484 LINE"
);
},
{
closed = 1;
nodes = (
"398 145 LINE",
"398 121 OFFCURVE",
"391 104 OFFCURVE",
"378 95 CURVE SMOOTH",
"365 86 OFFCURVE",
"338 81 OFFCURVE",
"295 81 CURVE SMOOTH",
"250 81 OFFCURVE",
"223 85 OFFCURVE",
"212 94 CURVE SMOOTH",
"201 103 OFFCURVE",
"196 121 OFFCURVE",
"196 150 CURVE SMOOTH",
"196 335 LINE SMOOTH",
"196 362 OFFCURVE",
"201 380 OFFCURVE",
"212 389 CURVE SMOOTH",
"223 399 OFFCURVE",
"248 404 OFFCURVE",
"287 404 CURVE SMOOTH",
"334 404 OFFCURVE",
"365 400 OFFCURVE",
"378 391 CURVE SMOOTH",
"391 383 OFFCURVE",
"398 366 OFFCURVE",
"398 340 CURVE SMOOTH"
);
},
{
closed = 1;
nodes = (
"377 680 LINE",
"231 680 LINE",
"231 565 LINE",
"377 565 LINE"
);
}
);
width = 608;
}
);
unicode = 0121;
},
{
glyphname = Gcommaaccent;
lastChange = "2016-10-15 17:21:52 +0000";
layers = (
{
layerId = UUID0;
paths = (
{
closed = 1;
nodes = (
"649 369 LINE",
"394 369 LINE",
"394 267 LINE",
"500 267 LINE",
"500 116 LINE",
"463 106 OFFCURVE",
"428 101 OFFCURVE",
"395 101 CURVE SMOOTH",
"278 101 OFFCURVE",
"212 122 OFFCURVE",
"212 189 CURVE SMOOTH",
"212 450 LINE SMOOTH",
"212 515 OFFCURVE",
"268 548 OFFCURVE",
"381 548 CURVE SMOOTH",
"478 548 OFFCURVE",
"566 539 OFFCURVE",
"645 520 CURVE",
"645 638 LINE",
"561 652 OFFCURVE",
"473 659 OFFCURVE",
"381 659 CURVE SMOOTH",
"320 659 OFFCURVE",
"267 655 OFFCURVE",
"207 635 CURVE",
"177 626 OFFCURVE",
"151 614 OFFCURVE",
"130 599 CURVE SMOOTH",
"87 570 OFFCURVE",
"56 516 OFFCURVE",
"56 448 CURVE SMOOTH",
"56 178 LINE SMOOTH",
"56 83 OFFCURVE",
"112 36 OFFCURVE",
"194 11 CURVE",
"253 -5 OFFCURVE",
"307 -10 OFFCURVE",
"379 -10 CURVE SMOOTH",
"422 -10 OFFCURVE",
"470 -6 OFFCURVE",
"521 2 CURVE SMOOTH",
"573 10 OFFCURVE",
"616 20 OFFCURVE",
"649 32 CURVE"
);
},
{
closed = 1;
nodes = (
"309 -46 LINE",
"263 -208 LINE",
"359 -208 LINE",
"442 -46 LINE"
);
}
);
width = 705;
}
);
unicode = 0122;
},
{
glyphname = gcommaaccent;
lastChange = "2016-10-15 17:21:52 +0000";
layers = (
{
layerId = UUID0;
paths = (
{
closed = 1;
nodes = (
"403 484 LINE",
"403 429 LINE",
"368 481 OFFCURVE",
"358 491 OFFCURVE",
"250 494 CURVE",
"171 494 OFFCURVE",
"118 482 OFFCURVE",
"91 458 CURVE SMOOTH",
"64 435 OFFCURVE",
"50 390 OFFCURVE",
"50 325 CURVE SMOOTH",
"50 136 LINE SMOOTH",
"50 24 OFFCURVE",
"104 -10 OFFCURVE",
"243 -10 CURVE SMOOTH",
"291 -10 OFFCURVE",
"325 -6 OFFCURVE",
"344 3 CURVE SMOOTH",
"363 12 OFFCURVE",
"381 29 OFFCURVE",
"398 54 CURVE",
"398 -24 LINE SMOOTH",
"398 -100 OFFCURVE",
"357 -128 OFFCURVE",
"260 -128 CURVE SMOOTH",
"209 -128 OFFCURVE",
"150 -124 OFFCURVE",
"85 -115 CURVE",
"85 -213 LINE",
"126 -218 OFFCURVE",
"184 -220 OFFCURVE",
"260 -220 CURVE SMOOTH",
"445 -220 OFFCURVE",
"544 -167 OFFCURVE",
"544 -26 CURVE SMOOTH",
"544 484 LINE"
);
},
{
closed = 1;
nodes = (
"398 145 LINE",
"398 121 OFFCURVE",
"391 104 OFFCURVE",
"378 95 CURVE SMOOTH",
"365 86 OFFCURVE",
"338 81 OFFCURVE",
"295 81 CURVE SMOOTH",
"250 81 OFFCURVE",
"223 85 OFFCURVE",
"212 94 CURVE SMOOTH",
"201 103 OFFCURVE",
"196 121 OFFCURVE",
"196 150 CURVE SMOOTH",
"196 335 LINE SMOOTH",
"196 362 OFFCURVE",
"201 380 OFFCURVE",
"212 389 CURVE SMOOTH",
"223 399 OFFCURVE",
"248 404 OFFCURVE",
"287 404 CURVE SMOOTH",
"334 404 OFFCURVE",
"365 400 OFFCURVE",
"378 391 CURVE SMOOTH",
"391 383 OFFCURVE",
"398 366 OFFCURVE",
"398 340 CURVE SMOOTH"
);
},
{
closed = 1;
nodes = (
"348 538 LINE",
"394 700 LINE",
"298 700 LINE",
"215 538 LINE"
);
}
);
width = 608;
}
);
unicode = 0123;
},
{
glyphname = Hcircumflex;
lastChange = "2016-10-15 17:21:52 +0000";
layers = (
{
layerId = UUID0;
paths = (
{
closed = 1;
nodes = (
"658 649 LINE",
"502 649 LINE",
"502 389 LINE",
"226 389 LINE",
"226 649 LINE",
"70 649 LINE",
"70 0 LINE",
"226 0 LINE",
"226 278 LINE",
"502 278 LINE",
"502 0 LINE",
"658 0 LINE"
);
},
{
closed = 1;
nodes = (
"456 845 LINE",
"269 845 LINE",
"213 718 LINE",
"311 718 LINE",
"363 805 LINE",
"416 718 LINE",
"514 718 LINE"
);
}
);
width = 728;
}
);
unicode = 0124;
},
{
glyphname = hcircumflex;
lastChange = "2016-10-15 17:21:52 +0000";
layers = (
{
layerId = UUID0;
paths = (
{
closed = 1;
nodes = (
"531 355 LINE",
"531 448 OFFCURVE",
"491 494 OFFCURVE",
"363 494 CURVE SMOOTH",
"270 494 OFFCURVE",
"219 471 OFFCURVE",
"210 425 CURVE",
"210 700 LINE",
"64 700 LINE",
"64 0 LINE",
"210 0 LINE",
"210 338 LINE SMOOTH",
"210 365 OFFCURVE",
"216 383 OFFCURVE",
"227 391 CURVE SMOOTH",
"238 400 OFFCURVE",
"265 404 OFFCURVE",
"307 404 CURVE SMOOTH",
"341 404 OFFCURVE",
"362 400 OFFCURVE",
"371 391 CURVE SMOOTH",
"380 382 OFFCURVE",
"385 365 OFFCURVE",
"385 338 CURVE SMOOTH",
"385 0 LINE",
"531 0 LINE"
);
},
{
closed = 1;
nodes = (
"224 871 LINE",
"37 871 LINE",
"-19 744 LINE",
"79 744 LINE",
"131 831 LINE",
"184 744 LINE",
"282 744 LINE"
);
}
);
width = 595;
}
);
unicode = 0125;
},
{
glyphname = Hbar;
lastChange = "2016-10-15 17:21:52 +0000";
layers = (
{
layerId = UUID0;
paths = (
{
closed = 1;
nodes = (
"658 649 LINE",
"502 649 LINE",
"502 485 LINE",
"226 485 LINE",
"226 649 LINE",
"70 649 LINE",
"70 0 LINE",
"226 0 LINE",
"226 208 LINE",
"502 208 LINE",
"502 0 LINE",
"658 0 LINE"
);
},
{
closed = 1;
nodes = (
"502 383 LINE",
"502 310 LINE",
"226 310 LINE",
"226 383 LINE"
);
}
);
width = 728;
}
);
unicode = 0126;
},
{
glyphname = hbar;
lastChange = "2016-10-15 17:21:52 +0000";
layers = (
{
layerId = UUID0;
paths = (
{
closed = 1;
nodes = (
"64 553 LINE",
"64 0 LINE",
"210 0 LINE",
"210 338 LINE SMOOTH",
"210 365 OFFCURVE",
"216 383 OFFCURVE",
"227 391 CURVE SMOOTH",
"238 400 OFFCURVE",
"265 404 OFFCURVE",
"307 404 CURVE SMOOTH",
"341 404 OFFCURVE",
"362 400 OFFCURVE",
"371 391 CURVE SMOOTH",
"380 382 OFFCURVE",
"385 365 OFFCURVE",
"385 338 CURVE SMOOTH",
"385 0 LINE",
"531 0 LINE",
"531 355 LINE SMOOTH",
"531 448 OFFCURVE",
"491 494 OFFCURVE",
"363 494 CURVE SMOOTH",
"270 494 OFFCURVE",
"219 471 OFFCURVE",
"210 425 CURVE",
"210 553 LINE",
"358 553 LINE",
"358 640 LINE",
"210 640 LINE",
"210 700 LINE",
"64 700 LINE",
"64 640 LINE",
"19 640 LINE",
"19 553 LINE"
);
}
);
width = 595;
}
);
unicode = 0127;
},
{
glyphname = Itilde;
lastChange = "2016-10-15 17:21:52 +0000";
layers = (
{
layerId = UUID0;
paths = (
{
closed = 1;
nodes = (
"226 649 LINE",
"70 649 LINE",
"70 0 LINE",
"226 0 LINE"
);
},
{
closed = 1;
nodes = (
"200 824 OFFCURVE",
"182 829 OFFCURVE",
"156 839 CURVE SMOOTH",
"131 849 OFFCURVE",
"110 854 OFFCURVE",
"95 854 CURVE SMOOTH",
"71 854 OFFCURVE",
"51 845 OFFCURVE",
"34 826 CURVE SMOOTH",
"18 807 OFFCURVE",
"8 790 OFFCURVE",
"4 775 CURVE",
"44 751 LINE",
"53 773 OFFCURVE",
"67 784 OFFCURVE",
"86 784 CURVE SMOOTH",
"93 784 OFFCURVE",
"110 778 OFFCURVE",
"137 767 CURVE SMOOTH",
"164 756 OFFCURVE",
"185 751 OFFCURVE",
"202 751 CURVE SMOOTH",
"226 751 OFFCURVE",
"246 761 OFFCURVE",
"262 780 CURVE SMOOTH",
"278 799 OFFCURVE",
"288 817 OFFCURVE",
"293 833 CURVE",
"252 857 LINE",
"243 835 OFFCURVE",
"230 824 OFFCURVE",
"211 824 CURVE SMOOTH"
);
}
);
width = 296;
}
);
unicode = 0128;
},
{
glyphname = itilde;
lastChange = "2016-10-15 17:21:52 +0000";
layers = (
{
layerId = UUID0;
paths = (
{
closed = 1;
nodes = (
"214 484 LINE",
"68 484 LINE",
"68 0 LINE",
"214 0 LINE"
);
},
{
closed = 1;
nodes = (
"193 659 OFFCURVE",
"175 664 OFFCURVE",
"149 674 CURVE SMOOTH",
"124 684 OFFCURVE",
"103 689 OFFCURVE",
"88 689 CURVE SMOOTH",
"64 689 OFFCURVE",
"44 680 OFFCURVE",
"27 661 CURVE SMOOTH",
"11 642 OFFCURVE",
"1 625 OFFCURVE",
"-3 610 CURVE",
"37 586 LINE",
"46 608 OFFCURVE",
"60 619 OFFCURVE",
"79 619 CURVE SMOOTH",
"86 619 OFFCURVE",
"103 613 OFFCURVE",
"130 602 CURVE SMOOTH",
"157 591 OFFCURVE",
"178 586 OFFCURVE",
"195 586 CURVE SMOOTH",
"219 586 OFFCURVE",
"239 596 OFFCURVE",
"255 615 CURVE SMOOTH",
"271 634 OFFCURVE",
"281 652 OFFCURVE",
"286 668 CURVE",
"245 692 LINE",
"236 670 OFFCURVE",
"223 659 OFFCURVE",
"204 659 CURVE SMOOTH"
);
}
);
width = 282;
}
);
unicode = 0129;
},
{
glyphname = Imacron;
lastChange = "2016-10-15 17:21:52 +0000";
layers = (
{
layerId = UUID0;
paths = (
{
closed = 1;
nodes = (
"226 649 LINE",
"70 649 LINE",
"70 0 LINE",
"226 0 LINE"
);
},
{
closed = 1;
nodes = (
"287 814 LINE",
"9 814 LINE",
"9 725 LINE",
"287 725 LINE"
);
}
);
width = 296;
}
);
unicode = 012A;
},
{
glyphname = imacron;
lastChange = "2016-10-15 17:21:52 +0000";
layers = (
{
layerId = UUID0;
paths = (
{
closed = 1;
nodes = (
"214 484 LINE",
"68 484 LINE",
"68 0 LINE",
"214 0 LINE"
);
},
{
closed = 1;
nodes = (
"280 649 LINE",
"2 649 LINE",
"2 560 LINE",
"280 560 LINE"
);
}
);
width = 282;
}
);
unicode = 012B;
},
{
glyphname = Ibreve;
lastChange = "2016-10-15 17:21:52 +0000";
layers = (
{
layerId = UUID0;
paths = (
{
closed = 1;
nodes = (
"226 649 LINE",
"70 649 LINE",
"70 0 LINE",
"226 0 LINE"
);
},
{
closed = 1;
nodes = (
"204 845 LINE",
"200 808 OFFCURVE",
"181 790 OFFCURVE",
"148 790 CURVE SMOOTH",
"112 790 OFFCURVE",
"99 806 OFFCURVE",
"91 845 CURVE",
"10 845 LINE",
"14 769 OFFCURVE",
"65 718 OFFCURVE",
"148 718 CURVE SMOOTH",
"229 718 OFFCURVE",
"281 769 OFFCURVE",
"286 845 CURVE"
);
}
);
width = 296;
}
);
unicode = 012C;
},
{
glyphname = ibreve;
lastChange = "2016-10-15 17:21:52 +0000";
layers = (
{
layerId = UUID0;
paths = (
{
closed = 1;
nodes = (
"214 484 LINE",
"68 484 LINE",
"68 0 LINE",
"214 0 LINE"
);
},
{
closed = 1;
nodes = (
"197 680 LINE",
"193 643 OFFCURVE",
"174 625 OFFCURVE",
"141 625 CURVE SMOOTH",
"105 625 OFFCURVE",
"92 641 OFFCURVE",
"84 680 CURVE",
"3 680 LINE",
"7 604 OFFCURVE",
"58 553 OFFCURVE",
"141 553 CURVE SMOOTH",
"222 553 OFFCURVE",
"274 604 OFFCURVE",
"279 680 CURVE"
);
}
);
width = 282;
}
);
unicode = 012D;
},
{
glyphname = Iogonek;
lastChange = "2016-10-15 17:21:52 +0000";
layers = (
{
layerId = UUID0;
paths = (
{
closed = 1;
nodes = (
"226 649 LINE",
"70 649 LINE",
"70 0 LINE",
"49 -32 OFFCURVE",
"39 -67 OFFCURVE",
"39 -106 CURVE SMOOTH",
"39 -163 OFFCURVE",
"73 -186 OFFCURVE",
"138 -186 CURVE SMOOTH",
"171 -186 OFFCURVE",
"194 -183 OFFCURVE",
"208 -176 CURVE",
"208 -109 LINE",
"196 -113 OFFCURVE",
"186 -115 OFFCURVE",
"178 -115 CURVE SMOOTH",
"149 -115 OFFCURVE",
"140 -104 OFFCURVE",
"140 -83 CURVE SMOOTH",
"140 -51 OFFCURVE",
"181 -15 OFFCURVE",
"226 0 CURVE"
);
}
);
width = 296;
}
);
unicode = 012E;
},
{
glyphname = iogonek;
lastChange = "2016-10-15 17:21:52 +0000";
layers = (
{
layerId = UUID0;
paths = (
{
closed = 1;
nodes = (
"183 -186 OFFCURVE",
"206 -183 OFFCURVE",
"220 -176 CURVE",
"220 -109 LINE",
"208 -113 OFFCURVE",
"198 -115 OFFCURVE",
"190 -115 CURVE SMOOTH",
"161 -115 OFFCURVE",
"152 -104 OFFCURVE",
"152 -83 CURVE SMOOTH",
"152 -50 OFFCURVE",
"173 -22 OFFCURVE",
"216 0 CURVE",
"216 484 LINE",
"70 484 LINE",
"70 0 LINE",
"51 -30 OFFCURVE",
"41 -65 OFFCURVE",
"41 -106 CURVE SMOOTH",
"41 -159 OFFCURVE",
"77 -186 OFFCURVE",
"150 -186 CURVE SMOOTH"
);
}
);
width = 286;
}
);
unicode = 012F;
},
{
glyphname = Idot;
lastChange = "2016-10-15 17:21:52 +0000";
layers = (
{
layerId = UUID0;
paths = (
{
closed = 1;
nodes = (
"226 649 LINE",
"70 649 LINE",
"70 0 LINE",
"226 0 LINE"
);
},
{
closed = 1;
nodes = (
"221 845 LINE",
"75 845 LINE",
"75 730 LINE",
"221 730 LINE"
);
}
);
width = 296;
}
);
unicode = 0130;
},
{
glyphname = dotlessi;
lastChange = "2016-10-15 17:21:52 +0000";
layers = (
{
layerId = UUID0;
paths = (
{
closed = 1;
nodes = (
"214 484 LINE",
"68 484 LINE",
"68 0 LINE",
"214 0 LINE"
);
}
);
width = 282;
}
);
unicode = 0131;
},
{
glyphname = IJ;
lastChange = "2016-10-15 17:21:52 +0000";
layers = (
{
layerId = UUID0;
paths = (
{
closed = 1;
nodes = (
"226 649 LINE",
"70 649 LINE",
"70 0 LINE",
"226 0 LINE"
);
},
{
closed = 1;
nodes = (
"517 649 LINE",
"517 172 LINE SMOOTH",
"517 125 OFFCURVE",
"491 101 OFFCURVE",
"438 101 CURVE SMOOTH",
"405 101 OFFCURVE",
"364 105 OFFCURVE",
"315 114 CURVE",
"315 0 LINE",
"362 -7 OFFCURVE",
"407 -10 OFFCURVE",
"450 -10 CURVE SMOOTH",
"595 -10 OFFCURVE",
"673 37 OFFCURVE",
"673 177 CURVE SMOOTH",
"673 649 LINE"
);
}
);
width = 741;
}
);
unicode = 0132;
},
{
glyphname = ij;
lastChange = "2016-10-15 17:21:52 +0000";
layers = (
{
layerId = UUID0;
paths = (
{
closed = 1;
nodes = (
"214 659 LINE",
"68 659 LINE",
"68 541 LINE",
"214 541 LINE"
);
},
{
closed = 1;
nodes = (
"214 484 LINE",
"68 484 LINE",
"68 0 LINE",
"214 0 LINE"
);
},
{
closed = 1;
nodes = (
"346 484 LINE",
"346 -40 LINE SMOOTH",
"346 -77 OFFCURVE",
"341 -101 OFFCURVE",
"331 -110 CURVE SMOOTH",
"321 -119 OFFCURVE",
"298 -124 OFFCURVE",
"262 -124 CURVE SMOOTH",
"254 -124 OFFCURVE",
"248 -124 OFFCURVE",
"244 -123 CURVE",
"244 -218 LINE",
"267 -219 OFFCURVE",
"282 -220 OFFCURVE",
"291 -220 CURVE SMOOTH",
"422 -220 OFFCURVE",
"492 -188 OFFCURVE",
"492 -73 CURVE SMOOTH",
"492 484 LINE"
);
},
{
closed = 1;
nodes = (
"492 659 LINE",
"346 659 LINE",
"346 541 LINE",
"492 541 LINE"
);
}
);
width = 556;
}
);
unicode = 0133;
},
